<svg xmlns="http://www.w3.org/2000/svg" xmlns:xlink="http://www.w3.org/1999/xlink" viewBox="0 0 392.91 359.72"><defs><style>.cls-1,.cls-9{fill:silver;}.cls-1,.cls-17,.cls-2,.cls-3,.cls-4,.cls-7,.cls-8{stroke:#000;}.cls-1,.cls-17,.cls-18,.cls-2,.cls-3,.cls-4,.cls-7{stroke-linecap:round;stroke-linejoin:round;}.cls-2,.cls-21,.cls-5{fill:#b6b1f4;}.cls-14,.cls-19,.cls-3,.cls-6{fill:#fff;}.cls-26,.cls-4{fill:#999;}.cls-6{opacity:0.7;}.cls-18,.cls-7,.cls-8{fill:none;}.cls-8{stroke-miterlimit:10;}.cls-10{clip-path:url(#clip-path);}.cls-11{opacity:0.2;}.cls-12{clip-path:url(#clip-path-2);}.cls-13,.cls-14{fill-opacity:0.7;opacity:0.3;}.cls-15{clip-path:url(#clip-path-3);}.cls-16{clip-path:url(#clip-path-4);}.cls-17{fill:#757575;}.cls-18{stroke:#fff;}.cls-20{clip-path:url(#clip-path-5);}.cls-21{opacity:0.4;}.cls-22{clip-path:url(#clip-path-6);}.cls-23{clip-path:url(#clip-path-7);}.cls-24{clip-path:url(#clip-path-8);}.cls-25{clip-path:url(#clip-path-9);}.cls-27{clip-path:url(#clip-path-10);}.cls-28{clip-path:url(#clip-path-11);}.cls-29{clip-path:url(#clip-path-12);}.cls-30{clip-path:url(#clip-path-13);}</style><clipPath id="clip-path" transform="translate(1024.34 -84.21)"><path class="cls-1" d="M-896.77,247.91l4,8.48s16.53,34.18,26.67,73.32c.24.93,5.48,19.47,1.28,65.64l2.39,8.1L-865,416.83s3.93,5.69,3.79,7.55c0,0-9.72,1.81-13,3.55-2.53,1.36-10.1,8.83-10.1,8.83-2.14-.44-2.33-9.12-2.33-9.12s-4.5-77.07-5.78-80.39-9.18-17.64-21.47-50.41c0,0-.28,45.77-3.57,57.35-2.92,10.3.54,39.13.54,39.13l-2,32.09s6.92,7.19,1.3,9.12c0,0-3.74-7.21-14.42-8.85-5.43-.84-12.2,8.8-12.2,8.8-2.37-.76,1-12.87,1-12.87-7.57-57.12-2-46.78-3.49-74.7-1-17.92-6.06-94.58-.09-100.81Z"/></clipPath><clipPath id="clip-path-2" transform="translate(1024.34 -84.21)"><path class="cls-2" d="M-881.84,104h22a1.88,1.88,0,0,1,1.88,1.88v15.7a0,0,0,0,1,0,0h-25.71a0,0,0,0,1,0,0v-15.7A1.88,1.88,0,0,1-881.84,104Z" transform="translate(-14.05 -79.55) rotate(-5.27)"/></clipPath><clipPath id="clip-path-3" transform="translate(1024.34 -84.21)"><path class="cls-2" d="M-844,100.49h22a1.88,1.88,0,0,1,1.88,1.88v15.7a0,0,0,0,1,0,0h-25.71a0,0,0,0,1,0,0v-15.7a1.88,1.88,0,0,1,1.88-1.88Z" transform="translate(-13.57 -76.08) rotate(-5.27)"/></clipPath><clipPath id="clip-path-4" transform="translate(1024.34 -84.21)"><path class="cls-2" d="M-778.67,109.42-772,181.3-887.85,192l-6.64-71.89a4.55,4.55,0,0,1,4.12-4.95l106.75-9.85A4.55,4.55,0,0,1-778.67,109.42Z"/></clipPath><clipPath id="clip-path-5" transform="translate(1024.34 -84.21)"><path class="cls-3" d="M-721.4,395.13s-13-4.79-15.54,4.79c0,0,2.32,10.55.92,16.32s-8.38,16.79-8.81,18.88c-.85,4.1-.21,4.38-.21,4.38s5.09,2.94,11.92-.21,18.68-16.71,20.54-19.5-5.8-13.83-5.8-13.83Z"/></clipPath><clipPath id="clip-path-6" transform="translate(1024.34 -84.21)"><path class="cls-2" d="M-841,224.6h22a1.88,1.88,0,0,1,1.88,1.88v15.7a0,0,0,0,1,0,0h-25.71a0,0,0,0,1,0,0v-15.7A1.88,1.88,0,0,1-841,224.6Z" transform="translate(16.94 71.97) rotate(4.91)"/></clipPath><clipPath id="clip-path-7" transform="translate(1024.34 -84.21)"><path class="cls-2" d="M-803.14,227.86h22a1.88,1.88,0,0,1,1.88,1.88v15.7a0,0,0,0,1,0,0H-805a0,0,0,0,1,0,0v-15.7A1.88,1.88,0,0,1-803.14,227.86Z" transform="translate(17.36 68.73) rotate(4.91)"/></clipPath><clipPath id="clip-path-8" transform="translate(1024.34 -84.21)"><path class="cls-2" d="M-738.69,246.39l-6.19,71.93-115.88-10,6.18-71.92a4.55,4.55,0,0,1,4.93-4.14l106.81,9.18A4.56,4.56,0,0,1-738.69,246.39Z"/></clipPath><clipPath id="clip-path-9" transform="translate(1024.34 -84.21)"><path class="cls-3" d="M-687.09,408.81s-5.54-3.95-17-3.16c0,0-.83,13.75-2.39,17.75s-9.79,10.93-11.31,12.12-1.53,5.34-1.53,5.34h34.81a109.61,109.61,0,0,0-2.77-17.66Z"/></clipPath><clipPath id="clip-path-10" transform="translate(1024.34 -84.21)"><path class="cls-4" d="M-678.2,268.23s-22.21,4.35-44-2.71A63,63,0,0,1-736.33,259s.06-1.4.1-3.69c.18-8.94.13-31.43-4.58-37-3-3.51-5.35-25.21.44-36.18l17.71-14.24c24.52,4.79,29.7,11.28,33.75,25.28.75,2.56,1.45,5.37,2.23,8.47.85,3.38,1.65,7.51,2.41,12C-680.59,236-678.2,268.23-678.2,268.23Z"/></clipPath><clipPath id="clip-path-11" transform="translate(1024.34 -84.21)"><path class="cls-2" d="M-861.55,357.31h22a1.88,1.88,0,0,1,1.88,1.88v15.7a0,0,0,0,1,0,0h-25.71a0,0,0,0,1,0,0v-15.7A1.88,1.88,0,0,1-861.55,357.31Z"/></clipPath><clipPath id="clip-path-12" transform="translate(1024.34 -84.21)"><path class="cls-2" d="M-823.55,357.31h22a1.88,1.88,0,0,1,1.88,1.88v15.7a0,0,0,0,1,0,0h-25.71a0,0,0,0,1,0,0v-15.7A1.88,1.88,0,0,1-823.55,357.31Z"/></clipPath><clipPath id="clip-path-13" transform="translate(1024.34 -84.21)"><path class="cls-2" d="M-758.46,371.23v72.19H-874.77V371.23a4.55,4.55,0,0,1,4.55-4.55H-763A4.55,4.55,0,0,1-758.46,371.23Z"/></clipPath></defs><g id="Background_Simple" data-name="Background Simple"><path class="cls-5" d="M-967.87,112.47c13.45-16.08,31.64-28.52,53.31-28.26,37,.46,57,33.21,78.22,58.47,11,13.1,23.49,25.74,39.83,31.9,24.52,9.23,51.82,3.84,75.7-4.73,10.7-3.84,23.37-9.24,35.42-6.48,36.63,8.38,32.81,53.09,26.76,81.39C-666.8,283-680.07,323.66-707,353c-64.42,70.29-180.38,27.2-238.49-28.89-4.27-4.13-8.37-8.43-12.21-13a179.37,179.37,0,0,1-25.16-38.44c-18.75-39-21.33-86.29-5.09-126.54A128,128,0,0,1-967.87,112.47Z" transform="translate(1024.34 -84.21)"/><path class="cls-6" d="M-967.87,112.47c13.45-16.08,31.64-28.52,53.31-28.26,37,.46,57,33.21,78.22,58.47,11,13.1,23.49,25.74,39.83,31.9,24.52,9.23,51.82,3.84,75.7-4.73,10.7-3.84,23.37-9.24,35.42-6.48,36.63,8.38,32.81,53.09,26.76,81.39C-666.8,283-680.07,323.66-707,353c-64.42,70.29-180.38,27.2-238.49-28.89-4.27-4.13-8.37-8.43-12.21-13a179.37,179.37,0,0,1-25.16-38.44c-18.75-39-21.33-86.29-5.09-126.54A128,128,0,0,1-967.87,112.47Z" transform="translate(1024.34 -84.21)"/></g><g id="Floor"><line class="cls-7" x1="0.5" y1="359.22" x2="392.41" y2="359.22"/></g><g id="Window"><polyline class="cls-7" points="238.43 156.59 238.43 9.45 247.54 9.45"/><line class="cls-7" x1="238.43" y1="174.1" x2="238.43" y2="170.2"/><polyline class="cls-7" points="270.97 9.45 364.97 9.45 364.97 187.82 238.43 187.82"/><line class="cls-7" x1="259.44" y1="9.45" x2="267.7" y2="9.45"/><rect class="cls-7" x="243.19" y="14.2" width="117.03" height="168.87"/><polyline class="cls-7" points="354.77 23.25 354.77 93.37 248.63 93.37 248.63 88.79"/><polyline class="cls-7" points="248.63 78.07 248.63 19.18 354.77 19.18"/><line class="cls-7" x1="248.63" y1="85.28" x2="248.63" y2="80.83"/><line class="cls-7" x1="336.85" y1="98.63" x2="360.21" y2="98.63"/><line class="cls-7" x1="328.54" y1="98.63" x2="331.85" y2="98.63"/><line class="cls-7" x1="243.19" y1="98.63" x2="324.59" y2="98.63"/><polyline class="cls-7" points="295.82 93.37 295.82 90.95 305.61 90.95 305.61 92.33 301.7 92.33 301.7 93.37"/><path class="cls-7" d="M-780.95,246s1.62,1.23,2.76,8.67c0,0,2-11.88,4.35-12.06s1.9,7.72,1.9,7.72.39-3.89,2.26-3.71,0,8,0,8,2.24-6.14,4.36-6-1.41,11.12-1.41,11.12,5.44-3.94,7.65-2-1.23,6.78-1.23,6.78,7.8-1.69,9,2.89" transform="translate(1024.34 -84.21)"/><path class="cls-7" d="M-751.29,263s3.4-2.23,6.07-1.19c0,0-1.7-2.59,0-4.17s3.89,4.17,3.89,4.17.24-9.65,3.65-9.16,0,9.16,0,9.16,6.07-5.38,7.53-3.51-1,4.7-1,4.7a6.56,6.56,0,0,1,6.31,1.55s4.07-4.15,8.6-4.75c0,0-3-8.73-1.55-10.49s4.11,7.62,4.11,7.62,1.15-6.1,4.95-6.58c0,0-3.16-1.72-2.22-4.33s5.31.62,5.31.62-1.8-4.59,1-5.85,4,3.84,4,3.84.79-5.34,4.14-5,2.25,6.44,2.25,6.44,3.16-4.88,4.84-4.39c3.38,1,2.35,8.72,2.35,8.72s4.71-3.27,5.92-1.76-4.89,5.81-4.89,5.81,4.67.51,7.57,3.24" transform="translate(1024.34 -84.21)"/><path class="cls-7" d="M-664.12,247.8s-.54-4.9-5.45-5.16,1.35,10.75,1.35,10.75-4-3.35-5.49-2.32,4.14,6.71,4.14,6.71-2.68-2.49-5.52-1.72,1.62,8.66,1.62,8.66a20.18,20.18,0,0,0-12.46,1.46" transform="translate(1024.34 -84.21)"/></g><g id="Table"><line class="cls-7" x1="193.14" y1="315.44" x2="193.14" y2="358.96"/><line class="cls-7" x1="193.14" y1="301.2" x2="193.14" y2="310.52"/><polyline class="cls-7" points="9.95 359.22 9.95 278.12 193.15 278.12 193.15 295.92"/><polyline class="cls-7" points="36.63 286.99 20.74 286.99 20.74 351.78"/><polyline class="cls-7" points="182.35 358.96 182.35 286.99 45.87 286.99"/><line class="cls-7" x1="174.73" y1="269.72" x2="169.68" y2="269.72"/><polyline class="cls-7" points="162.44 269.72 5.39 269.72 5.39 278.06 197.7 278.06 197.7 269.72 177.95 269.72"/><path class="cls-7" d="M-1008.12,300.49s15,1.19,15.68,12.29C-992.44,312.78-1007.68,319.8-1008.12,300.49Z" transform="translate(1024.34 -84.21)"/><path class="cls-7" d="M-978.34,303.25s8.41-11.37,22-5.54C-956.34,297.71-964.64,311.45-978.34,303.25Z" transform="translate(1024.34 -84.21)"/><path class="cls-7" d="M-957.49,267.35s2.41,21.87-17.5,15.85C-975,283.2-968.66,267.12-957.49,267.35Z" transform="translate(1024.34 -84.21)"/><path class="cls-7" d="M-981.94,255.17s15.75,8.5,4.17,21.38C-977.77,276.55-988.82,267.35-981.94,255.17Z" transform="translate(1024.34 -84.21)"/><path class="cls-7" d="M-1001.31,274.72s17.12-1.73,17.12,14.12C-984.19,288.84-1001.31,289.52-1001.31,274.72Z" transform="translate(1024.34 -84.21)"/><path class="cls-7" d="M-988.48,321.73c-.25-5.32-.25-12.16,3-19.39,7.49-16.68,10-30.73,6.11-40.63" transform="translate(1024.34 -84.21)"/><path class="cls-7" d="M-995.69,279s10.26,4.08,13.75,14.65" transform="translate(1024.34 -84.21)"/><path class="cls-7" d="M-962.91,276.1s-5.93,8.08-16,7.21" transform="translate(1024.34 -84.21)"/><path class="cls-7" d="M-962.91,300s-16.42,4.73-23,3.18" transform="translate(1024.34 -84.21)"/><path class="cls-7" d="M-1003.21,305.49s7.34,8.06,14.73,7.93" transform="translate(1024.34 -84.21)"/><path class="cls-8" d="M-969,321.73h-35.69a.87.87,0,0,0-.87.87v2.71a.86.86,0,0,0,.87.86h1l3.18,27.76h27.25l3.18-27.76h1a.86.86,0,0,0,.87-.86V322.6A.87.87,0,0,0-969,321.73Z" transform="translate(1024.34 -84.21)"/><line class="cls-7" x1="23.02" y1="241.97" x2="43.78" y2="241.97"/><line class="cls-7" x1="47.7" y1="241.97" x2="50.82" y2="241.97"/></g><g id="Character_2" data-name="Character 2"><path d="M-944.48,443.43s-1.71-6.53.29-8.95c3.59-4.34-.44-8,3.17-9.49l1.5,1.75c.3-1.77-.54-7.18,6.14-7.88,8.07-.85,8.23,5,8.66,7l-.13-2.71c3.44,0,1.66,3.44,6.88,9.06a14.88,14.88,0,0,1,3.77,11.26Z" transform="translate(1024.34 -84.21)"/><path d="M-882.87,443.43c-3.25-1.45-.26-13.71-.26-13.71s-4.37-2.93,0-6a12.16,12.16,0,0,0,12.41,2s.85-8.2,6-7.15c0,0,1.31,5.2,4.32,8.17,8.16,8,18.69,9,20.45,12.84.53,1.16-.11,3.81-.11,3.81Z" transform="translate(1024.34 -84.21)"/><path class="cls-9" d="M-896.77,247.91l4,8.48s16.53,34.18,26.67,73.32c.24.93,5.48,19.47,1.28,65.64l2.39,8.1L-865,416.83s3.93,5.69,3.79,7.55c0,0-9.72,1.81-13,3.55-2.53,1.36-10.1,8.83-10.1,8.83-2.14-.44-2.33-9.12-2.33-9.12s-4.5-77.07-5.78-80.39-9.18-17.64-21.47-50.41c0,0-.28,45.77-3.57,57.35-2.92,10.3.54,39.13.54,39.13l-2,32.09s6.92,7.19,1.3,9.12c0,0-3.74-7.21-14.42-8.85-5.43-.84-12.2,8.8-12.2,8.8-2.37-.76,1-12.87,1-12.87-7.57-57.12-2-46.78-3.49-74.7-1-17.92-6.06-94.58-.09-100.81Z" transform="translate(1024.34 -84.21)"/><g class="cls-10"><path class="cls-11" d="M-949.62,274.31c26.73,2.1,49.89-6.65,59.93-11.22-1.9-4.28-3.07-6.7-3.07-6.7l-4-8.47-50-1.82C-948.92,248.35-949.63,259.78-949.62,274.31Z" transform="translate(1024.34 -84.21)"/><path class="cls-11" d="M-913.65,297.43c12.17,32.35,20,46.51,21.25,49.81.73,1.92,2.53,28.09,3.92,50.05,1.61-20,3.25-41.07,3.4-45.2.3-8.24-5.65-19.53-6.55-22.45s1.13-6.08,1.13-6.08l-10.71-13.5c.36-4.58-5.3-24.57-5.3-24.57C-909.88,288.68-912.85,295.47-913.65,297.43Z" transform="translate(1024.34 -84.21)"/></g><path class="cls-7" d="M-896.77,247.91l4,8.48s16.53,34.18,26.67,73.32c.24.93,5.48,19.47,1.28,65.64l2.39,8.1L-865,416.83s3.93,5.69,3.79,7.55c0,0-9.72,1.81-13,3.55-2.53,1.36-10.1,8.83-10.1,8.83-2.14-.44-2.33-9.12-2.33-9.12s-4.5-77.07-5.78-80.39-9.18-17.64-21.47-50.41c0,0-.28,45.77-3.57,57.35-2.92,10.3.54,39.13.54,39.13l-2,32.09s6.92,7.19,1.3,9.12c0,0-3.74-7.21-14.42-8.85-5.43-.84-12.2,8.8-12.2,8.8-2.37-.76,1-12.87,1-12.87-7.57-57.12-2-46.78-3.49-74.7-1-17.92-6.06-94.58-.09-100.81Z" transform="translate(1024.34 -84.21)"/><path class="cls-7" d="M-913.87,296.84s6.11-11.79,11.32-15.08" transform="translate(1024.34 -84.21)"/><path class="cls-7" d="M-900.26,277.94s-18.56,5.65-25,6.74" transform="translate(1024.34 -84.21)"/><path class="cls-7" d="M-909.76,259c.8,15.45,6.25,18.08,1,21.45,0,0,.14,7.23-2.47,11.81" transform="translate(1024.34 -84.21)"/><path class="cls-7" d="M-942.29,253.09s2.2,23.75-5.11,28.22" transform="translate(1024.34 -84.21)"/><path class="cls-7" d="M-947.4,260.75s-.55,15.81,0,28.55c0,0,1.83,53.85,3.65,60.61s-2.81,17-2.41,46.22" transform="translate(1024.34 -84.21)"/><path class="cls-7" d="M-929.86,419a7.62,7.62,0,0,0-5.12.68" transform="translate(1024.34 -84.21)"/><path class="cls-7" d="M-918.87,425.41a28,28,0,0,0-7.87-5.39" transform="translate(1024.34 -84.21)"/><path class="cls-7" d="M-921.93,300.57c-4.1,4.6-10.59,13.27-17.25,14" transform="translate(1024.34 -84.21)"/><path class="cls-7" d="M-915.61,293.09c-1.26,1.59-2.56,3.15-3.88,4.7" transform="translate(1024.34 -84.21)"/><path class="cls-7" d="M-921.46,346.91s-9.31,12.69-14.43,13.42" transform="translate(1024.34 -84.21)"/><path class="cls-7" d="M-910.49,294.55s16.59,46.23,22.36,50.79c0,0,.66,34,.84,45.87s2.93,27.65,2.93,27.65" transform="translate(1024.34 -84.21)"/><path class="cls-7" d="M-866.64,418.52s-6.4,2.21-9.5,3.62a8.54,8.54,0,0,0-4.2,4.51" transform="translate(1024.34 -84.21)"/><path class="cls-7" d="M-882.81,328.67c-8.92-5.59-20.67-12.58-25.4-22.43" transform="translate(1024.34 -84.21)"/><path class="cls-7" d="M-875,333.28q-2.52-1.39-5-2.9" transform="translate(1024.34 -84.21)"/><path class="cls-7" d="M-903.12,265.25c-4.8-.07-10-.7-14.13-3.41" transform="translate(1024.34 -84.21)"/><path class="cls-7" d="M-895.51,264.8c-1.37.19-2.75.31-4.14.38" transform="translate(1024.34 -84.21)"/><path d="M-886.62,158.64c-3.66-5.54-22.32-6.95-34.28-6.95s-26.5-2-33.07,11.5c-5,10.31,6.53,64.83,6.53,64.83l-2.83,23.54c21.69,6.8,58.83,5.3,58.83,5.3l-5-21.28S-883,164.17-886.62,158.64Z" transform="translate(1024.34 -84.21)"/><path class="cls-3" d="M-928,138s1.61,12.83-3.27,15.6c0,0,2.44,9.41,11,10s12.36-8.62,12.36-8.62Z" transform="translate(1024.34 -84.21)"/><path class="cls-5" d="M-881.84,104h22a1.88,1.88,0,0,1,1.88,1.88v15.7a0,0,0,0,1,0,0h-25.71a0,0,0,0,1,0,0v-15.7A1.88,1.88,0,0,1-881.84,104Z" transform="translate(1010.29 -163.76) rotate(-5.27)"/><g class="cls-12"><path class="cls-13" d="M-881.84,104h22a1.88,1.88,0,0,1,1.88,1.88v15.7a0,0,0,0,1,0,0h-25.71a0,0,0,0,1,0,0v-15.7A1.88,1.88,0,0,1-881.84,104Z" transform="translate(1010.29 -163.76) rotate(-5.27)"/><rect class="cls-14" x="-865.83" y="104.87" width="6.33" height="12.66" transform="translate(1010.47 -163) rotate(-5.27)"/></g><path class="cls-7" d="M-881.84,104h22a1.88,1.88,0,0,1,1.88,1.88v15.7a0,0,0,0,1,0,0h-25.71a0,0,0,0,1,0,0v-15.7A1.88,1.88,0,0,1-881.84,104Z" transform="translate(1010.29 -163.76) rotate(-5.27)"/><path class="cls-5" d="M-844,100.49h22a1.88,1.88,0,0,1,1.88,1.88v15.7a0,0,0,0,1,0,0h-25.71a0,0,0,0,1,0,0v-15.7a1.88,1.88,0,0,1,1.88-1.88Z" transform="translate(1010.77 -160.29) rotate(-5.27)"/><g class="cls-15"><path class="cls-13" d="M-844,100.49h22a1.88,1.88,0,0,1,1.88,1.88v15.7a0,0,0,0,1,0,0h-25.71a0,0,0,0,1,0,0v-15.7a1.88,1.88,0,0,1,1.88-1.88Z" transform="translate(1010.77 -160.29) rotate(-5.27)"/><rect class="cls-14" x="-825.91" y="101.31" width="3.82" height="12.66" transform="translate(1010.96 -159.47) rotate(-5.27)"/></g><path class="cls-7" d="M-844,100.49h22a1.88,1.88,0,0,1,1.88,1.88v15.7a0,0,0,0,1,0,0h-25.71a0,0,0,0,1,0,0v-15.7a1.88,1.88,0,0,1,1.88-1.88Z" transform="translate(1010.77 -160.29) rotate(-5.27)"/><path class="cls-2" d="M-852,101.22h22a1.88,1.88,0,0,1,1.88,1.88v15.7a0,0,0,0,1,0,0h-25.71a0,0,0,0,1,0,0v-15.7A1.88,1.88,0,0,1-852,101.22Z" transform="translate(1010.67 -161.02) rotate(-5.27)"/><path class="cls-2" d="M-814.13,97.73h22a1.88,1.88,0,0,1,1.88,1.88v15.7a0,0,0,0,1,0,0H-816a0,0,0,0,1,0,0V99.61A1.88,1.88,0,0,1-814.13,97.73Z" transform="translate(1011.15 -157.56) rotate(-5.27)"/><rect class="cls-14" x="-835.96" y="102.12" width="6.33" height="12.66" transform="translate(1010.85 -160.28) rotate(-5.27)"/><rect class="cls-14" x="-798.53" y="98.66" width="6.33" height="12.66" transform="translate(1011.33 -156.85) rotate(-5.27)"/><path class="cls-5" d="M-778.67,109.42-772,181.3-887.85,192l-6.64-71.89a4.55,4.55,0,0,1,4.12-4.95l106.75-9.85A4.55,4.55,0,0,1-778.67,109.42Z" transform="translate(1024.34 -84.21)"/><g class="cls-16"><path class="cls-13" d="M-778.67,109.42-772,181.3-887.85,192l-6.64-71.89a4.55,4.55,0,0,1,4.12-4.95l106.75-9.85A4.55,4.55,0,0,1-778.67,109.42Z" transform="translate(1024.34 -84.21)"/></g><path class="cls-7" d="M-778.67,109.42-772,181.3-887.85,192l-6.64-71.89a4.55,4.55,0,0,1,4.12-4.95l106.75-9.85A4.55,4.55,0,0,1-778.67,109.42Z" transform="translate(1024.34 -84.21)"/><path class="cls-2" d="M-778.67,109.42-772,181.3-858,189.23l-6.63-71.88a4.54,4.54,0,0,1,4.11-4.95l76.88-7.1A4.55,4.55,0,0,1-778.67,109.42Z" transform="translate(1024.34 -84.21)"/><path class="cls-14" d="M-784.25,112.51l-73.46,6.78a1.89,1.89,0,0,1-2-1.7h0a1.88,1.88,0,0,1,1.7-2l73.47-6.78a1.87,1.87,0,0,1,2,1.7h0A1.87,1.87,0,0,1-784.25,112.51Z" transform="translate(1024.34 -84.21)"/><path d="M-913.35,112.56s-16.94-3.4-18.84,7.51,4.32,15.55,4.32,15.55Z" transform="translate(1024.34 -84.21)"/><path class="cls-3" d="M-927.84,141.61a29.33,29.33,0,0,1-.87-16.89c1.66-7,10-16.63,22.64-7.88,6.52,4.51,6.92,14.3,4.89,23.26-.49,2.14-.12,4.23-.83,6.2-2.5,6.9-7.07,12.21-9.57,12.33-4.18.21-12.52-4.84-12.17-9.24" transform="translate(1024.34 -84.21)"/><path class="cls-7" d="M-911,138.44s-3.36-2.44-6.61-.44" transform="translate(1024.34 -84.21)"/><path class="cls-7" d="M-904.63,138s2.55-2.34,4.2-2" transform="translate(1024.34 -84.21)"/><path d="M-915.76,142.18c0,.62.32,1.13.71,1.13s.7-.51.7-1.13-.31-1.12-.7-1.12S-915.76,141.56-915.76,142.18Z" transform="translate(1024.34 -84.21)"/><ellipse cx="119.71" cy="57.35" rx="0.71" ry="1.12"/><path class="cls-7" d="M-906.06,140.36c-1.25,1.62.5,7.79,0,8.23s-3.68-.81-3.68-.81-.75-.94.81-1.44" transform="translate(1024.34 -84.21)"/><path class="cls-7" d="M-908.94,151.69s-4.26,0-5.41-1.56" transform="translate(1024.34 -84.21)"/><path class="cls-17" d="M-919.11,128.58l-.33,5.16s-3.66,1.89-4.57,3.81a7.61,7.61,0,0,0-.59,4s-2.22-3.88-3.41-3.56c-.43.11-.43,1.74-.43,1.74s-5-11.16-.48-17.06S-919.11,128.58-919.11,128.58Z" transform="translate(1024.34 -84.21)"/><path class="cls-3" d="M-926.16,140.44s-1-3.75-4.36-4.74-1.06,8,1.81,9.17,3.59,2,3.76.93" transform="translate(1024.34 -84.21)"/><path d="M-930.75,127.93c-.27-.38-1.51-10,4.83-14.32s17.09-3.86,23.92,2.12,4.88,16.35,0,19.89v-4.33s-2.25,4.34-9,4.7l2.06-3.18s-3.31,2-9.17,1.83c0,0,2.75-2.19,2.35-4.14C-915.76,130.5-925,135.73-930.75,127.93Z" transform="translate(1024.34 -84.21)"/><path class="cls-3" d="M-929.55,162.61c-4.68.56-11.34,6.67-7,17.52,2.77,6.88,25.52,2.79,25.52,2.79,8.45-3.48,20.78-16,29.82-21.81,0,0-1.91-12-4.11-10.3-10.22,7.83-18.64,8.37-32.9,15.23C-918.19,166-926.61,162.26-929.55,162.61Z" transform="translate(1024.34 -84.21)"/><path class="cls-3" d="M-919.11,175.93c-.14,4.48,1.71,5.27,4.81,6.33" transform="translate(1024.34 -84.21)"/><path class="cls-3" d="M-886,151.69c.2-.65,4-7.31,5.07-9s5.85-3.22,7.7-4.24,2-2.57,3-1.46,0,3.64-5.54,6.33a53.34,53.34,0,0,0,5.9,0c1.48-.22,2.8-1.56,3.46-.63s.79,2.6-2.5,3.62a17.16,17.16,0,0,1-4.88,1,34.26,34.26,0,0,1,4.75,1.38c.52.39,1.31,1.3,2.11,1.44s1.64,1,.19,2a3.58,3.58,0,0,1-3.36.06s3.82,1.85,2.64,3-5,.92-5,.92-5.67,6.86-10.42,5.41" transform="translate(1024.34 -84.21)"/><path class="cls-7" d="M-879.22,142.68a1.8,1.8,0,0,1,1.38,1.34c.33,1.18,1.29,1.25,1.89,2.57s.42,3.36,1,4.06,0,3.65,0,3.65" transform="translate(1024.34 -84.21)"/><path class="cls-18" d="M-928.57,161.76c-2.46-3.12-7.95-1.71-7.95-1.71" transform="translate(1024.34 -84.21)"/><path class="cls-18" d="M-939.52,154.3s5.66.83,7.33,5.54" transform="translate(1024.34 -84.21)"/><path class="cls-18" d="M-929.55,184.12s-5.52,4.27-13.93-1.86" transform="translate(1024.34 -84.21)"/><path class="cls-18" d="M-936.52,185.41s-2.8,3.87-9.63,3.82" transform="translate(1024.34 -84.21)"/><path class="cls-18" d="M-901.44,234.1s-14.44,11.51-29.11,10" transform="translate(1024.34 -84.21)"/><path class="cls-18" d="M-940.48,208.81s22.42,16.44,39,17.49" transform="translate(1024.34 -84.21)"/></g><g id="Character_3" data-name="Character 3"><path d="M-749.17,211.09l-4,21.74-32.62,19.82,4.51,8.28s37.71-11.5,38.62-14.19,9.62-31.18,9.62-31.18Z" transform="translate(1024.34 -84.21)"/><path class="cls-4" d="M-734.92,174.33l-2.18,26.36-1.15,13.83c-6.29,3.06-12.44-1.54-12.82-1.84h0C-749.32,207.66-747.33,179.33-734.92,174.33Z" transform="translate(1024.34 -84.21)"/><path d="M-737.1,200.69l-1.15,13.83c-6.29,3.06-12.44-1.54-12.82-1.84.27.12,3.58,1.52,5.73,0a16.78,16.78,0,0,1-2-2.64c-.13-.52,2-.66,2-.66s-1.4-11.21,2.33-16C-741.55,191.56-739.27,195.36-737.1,200.69Z" transform="translate(1024.34 -84.21)"/><path class="cls-2" d="M-712.29,418.44l1,2.94a59.51,59.51,0,0,1-5.08,7.14s-1-.32-2.64,1.13a6.11,6.11,0,0,0-1.77,3.76s-7.63,9.16-17.33,9.29-6.76-4.75-6.76-4.75Z" transform="translate(1024.34 -84.21)"/><path class="cls-19" d="M-721.4,395.13s-13-4.79-15.54,4.79c0,0,2.32,10.55.92,16.32s-8.38,16.79-8.81,18.88c-.85,4.1-.21,4.38-.21,4.38s5.09,2.94,11.92-.21,18.68-16.71,20.54-19.5-5.8-13.83-5.8-13.83Z" transform="translate(1024.34 -84.21)"/><g class="cls-20"><path class="cls-21" d="M-721.4,395.13s-13-4.79-15.54,4.79c0,0,2.32,10.55.92,16.32s-8.38,16.79-8.81,18.88c-.85,4.1-.21,4.38-.21,4.38s5.09,2.94,11.92-.21,18.68-16.71,20.54-19.5-5.8-13.83-5.8-13.83Z" transform="translate(1024.34 -84.21)"/></g><path class="cls-7" d="M-721.4,395.13s-13-4.79-15.54,4.79c0,0,2.32,10.55.92,16.32s-8.38,16.79-8.81,18.88c-.85,4.1-.21,4.38-.21,4.38s5.09,2.94,11.92-.21,18.68-16.71,20.54-19.5-5.8-13.83-5.8-13.83Z" transform="translate(1024.34 -84.21)"/><path class="cls-7" d="M-728,408.68a28.23,28.23,0,0,1-3.25,18.8" transform="translate(1024.34 -84.21)"/><path class="cls-2" d="M-731.3,430a8.77,8.77,0,0,1-5.57,5.14,15.44,15.44,0,0,1-8,0l3.12-6.32A19.94,19.94,0,0,0-731.3,430Z" transform="translate(1024.34 -84.21)"/><path class="cls-7" d="M-729.46,426.17s-6.8.41-10.35-1" transform="translate(1024.34 -84.21)"/><path class="cls-7" d="M-728.21,422.42s-6.35,1-9.9-1" transform="translate(1024.34 -84.21)"/><path class="cls-7" d="M-727.12,418.25s-5.58.81-9.21-.91" transform="translate(1024.34 -84.21)"/><path class="cls-7" d="M-726.5,413.53s-6.2,1.94-9.13,0" transform="translate(1024.34 -84.21)"/><path class="cls-2" d="M-725.58,401.87l1.09,6.81s-8.2,5.4-13.62-1.35l0-7.11S-736.08,405-725.58,401.87Z" transform="translate(1024.34 -84.21)"/><path d="M-732.7,249c-8.3,26.33-34.1,68.56-31.48,79.37,1.43,5.9,9.94,39.33,16.59,54,2.54,5.61,8,9.36,8,9.36l4,8.47c9.62,4.19,13.07-4.33,13.07-4.33l-1.93-9.6c5.16-9.38,3-9.38-3.72-58-.78-5.73,12.5-23.44,12.5-23.44l6.83,44.54,1.11,36.5,3.55,11.28s.87,10.59.8,11.23h15.82l1.75-11.64s7.35-6.93,7.35-14.93-1.58-48.75,0-60.62S-682.2,254-682.2,254Z" transform="translate(1024.34 -84.21)"/><path class="cls-5" d="M-841,224.6h22a1.88,1.88,0,0,1,1.88,1.88v15.7a0,0,0,0,1,0,0h-25.71a0,0,0,0,1,0,0v-15.7A1.88,1.88,0,0,1-841,224.6Z" transform="translate(1041.28 -12.24) rotate(4.91)"/><g class="cls-22"><path class="cls-13" d="M-841,224.6h22a1.88,1.88,0,0,1,1.88,1.88v15.7a0,0,0,0,1,0,0h-25.71a0,0,0,0,1,0,0v-15.7A1.88,1.88,0,0,1-841,224.6Z" transform="translate(1041.28 -12.24) rotate(4.91)"/><rect class="cls-14" x="-824.85" y="226.97" width="6.33" height="12.66" transform="translate(1041.31 -12.95) rotate(4.91)"/></g><path class="cls-7" d="M-841,224.6h22a1.88,1.88,0,0,1,1.88,1.88v15.7a0,0,0,0,1,0,0h-25.71a0,0,0,0,1,0,0v-15.7A1.88,1.88,0,0,1-841,224.6Z" transform="translate(1041.28 -12.24) rotate(4.91)"/><path class="cls-5" d="M-803.14,227.86h22a1.88,1.88,0,0,1,1.88,1.88v15.7a0,0,0,0,1,0,0H-805a0,0,0,0,1,0,0v-15.7A1.88,1.88,0,0,1-803.14,227.86Z" transform="translate(1041.7 -15.48) rotate(4.91)"/><g class="cls-23"><path class="cls-13" d="M-803.14,227.86h22a1.88,1.88,0,0,1,1.88,1.88v15.7a0,0,0,0,1,0,0H-805a0,0,0,0,1,0,0v-15.7A1.88,1.88,0,0,1-803.14,227.86Z" transform="translate(1041.7 -15.48) rotate(4.91)"/><rect class="cls-14" x="-784.9" y="230.3" width="3.82" height="12.66" transform="translate(1041.73 -16.26) rotate(4.91)"/></g><path class="cls-7" d="M-803.14,227.86h22a1.88,1.88,0,0,1,1.88,1.88v15.7a0,0,0,0,1,0,0H-805a0,0,0,0,1,0,0v-15.7A1.88,1.88,0,0,1-803.14,227.86Z" transform="translate(1041.7 -15.48) rotate(4.91)"/><path class="cls-2" d="M-811.11,227.17h22a1.88,1.88,0,0,1,1.88,1.88v15.7a0,0,0,0,1,0,0H-813a0,0,0,0,1,0,0v-15.7A1.88,1.88,0,0,1-811.11,227.17Z" transform="translate(1041.61 -14.8) rotate(4.91)"/><path class="cls-2" d="M-773.25,230.43h22a1.88,1.88,0,0,1,1.88,1.88V248a0,0,0,0,1,0,0h-25.71a0,0,0,0,1,0,0v-15.7A1.88,1.88,0,0,1-773.25,230.43Z" transform="translate(1042.03 -18.03) rotate(4.91)"/><rect class="cls-14" x="-794.96" y="229.54" width="6.33" height="12.66" transform="translate(1041.63 -15.52) rotate(4.91)"/><rect class="cls-14" x="-757.51" y="232.76" width="6.33" height="12.66" transform="translate(1042.05 -18.7) rotate(4.91)"/><path class="cls-5" d="M-738.69,246.39l-6.19,71.93-115.88-10,6.18-71.92a4.55,4.55,0,0,1,4.93-4.14l106.81,9.18A4.56,4.56,0,0,1-738.69,246.39Z" transform="translate(1024.34 -84.21)"/><g class="cls-24"><path class="cls-13" d="M-738.69,246.39l-6.19,71.93-115.88-10,6.18-71.92a4.55,4.55,0,0,1,4.93-4.14l106.81,9.18A4.56,4.56,0,0,1-738.69,246.39Z" transform="translate(1024.34 -84.21)"/></g><path class="cls-7" d="M-738.69,246.39l-6.19,71.93-115.88-10,6.18-71.92a4.55,4.55,0,0,1,4.93-4.14l106.81,9.18A4.56,4.56,0,0,1-738.69,246.39Z" transform="translate(1024.34 -84.21)"/><path class="cls-2" d="M-738.69,246.39l-6.19,71.93-86-7.4,6.18-71.92a4.55,4.55,0,0,1,4.93-4.14l76.92,6.61A4.56,4.56,0,0,1-738.69,246.39Z" transform="translate(1024.34 -84.21)"/><path class="cls-14" d="M-744.73,248.45l-73.51-6.32a1.88,1.88,0,0,1-1.71-2h0a1.88,1.88,0,0,1,2-1.71l73.51,6.32a1.87,1.87,0,0,1,1.71,2h0A1.87,1.87,0,0,1-744.73,248.45Z" transform="translate(1024.34 -84.21)"/><path class="cls-19" d="M-687.09,408.81s-5.54-3.95-17-3.16c0,0-.83,13.75-2.39,17.75s-9.79,10.93-11.31,12.12-1.53,5.34-1.53,5.34h34.81a109.61,109.61,0,0,0-2.77-17.66Z" transform="translate(1024.34 -84.21)"/><g class="cls-25"><path class="cls-21" d="M-687.09,408.81s-5.54-3.95-17-3.16c0,0-.83,13.75-2.39,17.75s-9.79,10.93-11.31,12.12-1.53,5.34-1.53,5.34h34.81a109.61,109.61,0,0,0-2.77-17.66Z" transform="translate(1024.34 -84.21)"/></g><path class="cls-7" d="M-687.09,408.81s-5.54-3.95-17-3.16c0,0-.83,13.75-2.39,17.75s-9.79,10.93-11.31,12.12-1.53,5.34-1.53,5.34h34.81a109.61,109.61,0,0,0-2.77-17.66Z" transform="translate(1024.34 -84.21)"/><path class="cls-7" d="M-694.27,410.59s-.83,12.66-2.79,16a23.13,23.13,0,0,1-3.86,5" transform="translate(1024.34 -84.21)"/><path class="cls-2" d="M-701.92,433.34s-1.75,2.18-3.69,2.47-12.19-.29-12.19-.29l4.18-3.62S-705.09,430.47-701.92,433.34Z" transform="translate(1024.34 -84.21)"/><path class="cls-7" d="M-698.26,430.37s-7.43-4.26-12.71-1" transform="translate(1024.34 -84.21)"/><path class="cls-7" d="M-696.47,427.48s-5.19-4.05-11.3-1.83" transform="translate(1024.34 -84.21)"/><path class="cls-7" d="M-694.27,423.07s-5.58-4.34-11.46-1.58" transform="translate(1024.34 -84.21)"/><path class="cls-7" d="M-693.52,417.56s-6.76-3.64-11.69-.88" transform="translate(1024.34 -84.21)"/><path class="cls-2" d="M-684.52,440.86v2.57h-4a7,7,0,0,0-6.7,0H-714a13.6,13.6,0,0,1-5.73-1.29l.39-1.28Z" transform="translate(1024.34 -84.21)"/><path class="cls-2" d="M-689.5,408l-.89,5.61s-10.45-3.39-16.22-1.19v-6.9S-695.87,401.76-689.5,408Z" transform="translate(1024.34 -84.21)"/><path class="cls-26" d="M-678.2,268.23s-22.21,4.35-44-2.71A63,63,0,0,1-736.33,259s.06-1.4.1-3.69c.18-8.94.13-31.43-4.58-37-3-3.51-5.35-25.21.44-36.18l17.71-14.24c24.52,4.79,29.7,11.28,33.75,25.28.75,2.56,1.45,5.37,2.23,8.47.85,3.38,1.65,7.51,2.41,12C-680.59,236-678.2,268.23-678.2,268.23Z" transform="translate(1024.34 -84.21)"/><g class="cls-27"><path class="cls-11" d="M-684.27,213.64l-10,44.67s-14.45,4-27.92,7.21A63,63,0,0,1-736.33,259s.06-1.4.1-3.69c12.1-6.19,29.76-15.29,29.62-15.72-.23-.67,0-24,0-24s16-3.71,17.7-22.45c.75,2.56,1.45,5.37,2.23,8.47C-685.83,205-685,209.1-684.27,213.64Z" transform="translate(1024.34 -84.21)"/></g><path class="cls-7" d="M-678.2,268.23s-22.21,4.35-44-2.71A63,63,0,0,1-736.33,259s.06-1.4.1-3.69c.18-8.94.13-31.43-4.58-37-3-3.51-5.35-25.21.44-36.18l17.71-14.24c24.52,4.79,29.7,11.28,33.75,25.28.75,2.56,1.45,5.37,2.23,8.47.85,3.38,1.65,7.51,2.41,12C-680.59,236-678.2,268.23-678.2,268.23Z" transform="translate(1024.34 -84.21)"/><path class="cls-3" d="M-721.87,149.2s-7.82,11.2,2.58,19.94c0,0-12.62,14.16-16.78,12.21-1.74-.82,0-5.93,0-5.93l-7.31-13.54Z" transform="translate(1024.34 -84.21)"/><path class="cls-3" d="M-724.44,155c2.45-10.67,1.27-26.56-13.67-25.15-10.48,1-18,6.8-15,20.86,1.23,5.93,2.24,14.33,7.67,21.91,1.52,2.1,17.31-5.33,16.36-11.34" transform="translate(1024.34 -84.21)"/><path class="cls-7" d="M-745.83,148.33a7.26,7.26,0,0,1,6.49.63" transform="translate(1024.34 -84.21)"/><path class="cls-7" d="M-753.34,149.64a1.88,1.88,0,0,1,2.24-1" transform="translate(1024.34 -84.21)"/><path class="cls-3" d="M-749.61,151.86s-3.07,5.61-3.08,6.41,3.79,1.07,3.79,1.07" transform="translate(1024.34 -84.21)"/><path d="M-743,153c0,.61-.28,1.11-.65,1.13s-.7-.48-.72-1.09.27-1.11.65-1.12S-743,152.41-743,153Z" transform="translate(1024.34 -84.21)"/><path class="cls-7" d="M-747.34,163.42s5.92-1.11,7-3.19" transform="translate(1024.34 -84.21)"/><path d="M-753.38,141l4.6-1.34s6.44-3,7.81-2.58,4.15,4.69,4.07,7.13c0,0,4.33,3.82,4.88,9.36l1.33-.6s-.07-5,2.77-4.87,4.12,3.53,3.92,4.6-3.29,5.51-3.29,5.51,7.11-1.06,7.35-15-15-16.31-22.48-15.7a98,98,0,0,1-11.32.41l.42,4-3,.79,2.27,2.77-2.48,1.13Z" transform="translate(1024.34 -84.21)"/><path class="cls-18" d="M-727.63,293s18.11,4.79,23,18.27" transform="translate(1024.34 -84.21)"/><path class="cls-18" d="M-719.33,300.25s-9.79,16.29-24.76,24.75" transform="translate(1024.34 -84.21)"/><path class="cls-18" d="M-733.08,391.86s5.56-1.25,7.07-3.41" transform="translate(1024.34 -84.21)"/><path class="cls-18" d="M-702.12,393.93s5.44-2.82,10.85,0" transform="translate(1024.34 -84.21)"/><path class="cls-18" d="M-684.52,318.09s-9.12,23.65-13.74,25.84" transform="translate(1024.34 -84.21)"/><path class="cls-18" d="M-724.49,281.05c.24,2.57,11,14.48,19.87,19.2" transform="translate(1024.34 -84.21)"/><path class="cls-18" d="M-715.32,271a16.53,16.53,0,0,1,.76,10.05,15.49,15.49,0,0,0,0,8.86" transform="translate(1024.34 -84.21)"/><path class="cls-7" d="M-734.92,221.82s16.83,21.78,34.92,28.93" transform="translate(1024.34 -84.21)"/><path class="cls-7" d="M-717.46,186.61s-.06,14.81,10.62,21.49" transform="translate(1024.34 -84.21)"/><path class="cls-3" d="M-711.46,208.22c-2.25,2.22.21,30.08.21,30.08s-13.14,5.14-17.24,8.45-23.59,10.91-23.59,10.91-3,10.22.75,10.57,42.47-12.85,51.33-17.48c0,0,5.76-34,5.73-42.65" transform="translate(1024.34 -84.21)"/><path class="cls-3" d="M-750.54,257.05c-1.79-.34-5-1.52-6.67-1.13s-4.75,2.24-7.92,3-1.84,2,0,2.37a12.43,12.43,0,0,0,4.09,0l-2.56,2.51a39.93,39.93,0,0,1-4.56,2.11c-.92,0-4.22.89-4,2.29s2.11,1.24,4.22,1.32c0,0-3.37.67-3,2.58.23,1.31,4,.13,5.94.13,0,0-1.59,1.72-.4,2.25s3.79-.79,3.79-.79-.1,1.42,1.09,1.56,4.15-1,6.16-2.22a53.81,53.81,0,0,0,5.71-4.22,9.48,9.48,0,0,1,2.58-1.68" transform="translate(1024.34 -84.21)"/><path class="cls-7" d="M-767.89,269.56a22.78,22.78,0,0,0,2.76-.32c.8-.2,1.59-.46,1.59-.46" transform="translate(1024.34 -84.21)"/><path class="cls-7" d="M-765,272.27a9.52,9.52,0,0,0,3.43-1.18" transform="translate(1024.34 -84.21)"/><path class="cls-7" d="M-761.6,273.73a5.86,5.86,0,0,0,2.51-.93" transform="translate(1024.34 -84.21)"/><path class="cls-7" d="M-763.28,264.56s-.72,1.65,0,2.57,1.58,1,1.72,2,1.84,1,2.47,1.65,1.09,1.9,3.06,2" transform="translate(1024.34 -84.21)"/><path class="cls-4" d="M-712.29,179.33c-6.81,15.41,0,36.79,0,36.79s16.47,5.6,18,3.19,4.3-14.23,4.77-19.69" transform="translate(1024.34 -84.21)"/><path class="cls-7" d="M-694.27,201.33s-7,9.63-12.57,9.76" transform="translate(1024.34 -84.21)"/></g><g id="Character_1" data-name="Character 1"><path d="M-939.86,330.51a17.07,17.07,0,0,1,12.64-1.58c7.32,1.84,26.31,29,29,31.65s7.58,4,12.13,8.79c7.2,7.51,17.67,14.15,18.72,14.15s1.92-.66,3.23-.92,11.54-1.19,11.54-1.19,3.43.76,0,2.23-3.16,2.78-3.16,2.78-.69,1.11.69,2.17,2.19.48,4.15,3.27-2.78,1.21-2.78,1.21,1.06,3-1,2.7-.26,2.93-3.69,2.49-10.77-5.07-12.62-9.92c0,0-29.93-14.31-34.42-18s-23.31-23.48-24.64-23.74" transform="translate(1024.34 -84.21)"/><path class="cls-5" d="M162.79,273.1h22a1.88,1.88,0,0,1,1.88,1.88v15.7a0,0,0,0,1,0,0H160.91a0,0,0,0,1,0,0V275A1.88,1.88,0,0,1,162.79,273.1Z"/><g class="cls-28"><path class="cls-13" d="M162.79,273.1h22a1.88,1.88,0,0,1,1.88,1.88v15.7a0,0,0,0,1,0,0H160.91a0,0,0,0,1,0,0V275A1.88,1.88,0,0,1,162.79,273.1Z"/><rect class="cls-14" x="178.91" y="274.76" width="6.33" height="12.66"/></g><path class="cls-7" d="M162.79,273.1h22a1.88,1.88,0,0,1,1.88,1.88v15.7a0,0,0,0,1,0,0H160.91a0,0,0,0,1,0,0V275A1.88,1.88,0,0,1,162.79,273.1Z"/><path class="cls-5" d="M200.79,273.1h22a1.88,1.88,0,0,1,1.88,1.88v15.7a0,0,0,0,1,0,0H198.91a0,0,0,0,1,0,0V275A1.88,1.88,0,0,1,200.79,273.1Z"/><g class="cls-29"><path class="cls-13" d="M200.79,273.1h22a1.88,1.88,0,0,1,1.88,1.88v15.7a0,0,0,0,1,0,0H198.91a0,0,0,0,1,0,0V275A1.88,1.88,0,0,1,200.79,273.1Z"/><rect class="cls-14" x="218.99" y="274.76" width="3.82" height="12.66"/></g><path class="cls-7" d="M200.79,273.1h22a1.88,1.88,0,0,1,1.88,1.88v15.7a0,0,0,0,1,0,0H198.91a0,0,0,0,1,0,0V275A1.88,1.88,0,0,1,200.79,273.1Z"/><path class="cls-2" d="M192.79,273.1h22a1.88,1.88,0,0,1,1.88,1.88v15.7a0,0,0,0,1,0,0H190.91a0,0,0,0,1,0,0V275A1.88,1.88,0,0,1,192.79,273.1Z"/><path class="cls-2" d="M230.79,273.1h22a1.88,1.88,0,0,1,1.88,1.88v15.7a0,0,0,0,1,0,0H228.91a0,0,0,0,1,0,0V275A1.88,1.88,0,0,1,230.79,273.1Z"/><rect class="cls-14" x="208.91" y="274.76" width="6.33" height="12.66"/><rect class="cls-14" x="246.49" y="274.76" width="6.33" height="12.66"/><path class="cls-5" d="M-758.46,371.23v72.19H-874.77V371.23a4.55,4.55,0,0,1,4.55-4.55H-763A4.55,4.55,0,0,1-758.46,371.23Z" transform="translate(1024.34 -84.21)"/><g class="cls-30"><path class="cls-13" d="M-758.46,371.23v72.19H-874.77V371.23a4.55,4.55,0,0,1,4.55-4.55H-763A4.55,4.55,0,0,1-758.46,371.23Z" transform="translate(1024.34 -84.21)"/></g><path class="cls-7" d="M-758.46,371.23v72.19H-874.77V371.23a4.55,4.55,0,0,1,4.55-4.55H-763A4.55,4.55,0,0,1-758.46,371.23Z" transform="translate(1024.34 -84.21)"/><path class="cls-2" d="M-758.46,371.23v72.19h-86.31V371.23a4.55,4.55,0,0,1,4.55-4.55H-763A4.55,4.55,0,0,1-758.46,371.23Z" transform="translate(1024.34 -84.21)"/><path class="cls-14" d="M-764.3,373.8h-73.78a1.88,1.88,0,0,1-1.88-1.88h0a1.88,1.88,0,0,1,1.88-1.88h73.78a1.88,1.88,0,0,1,1.88,1.88h0A1.88,1.88,0,0,1-764.3,373.8Z" transform="translate(1024.34 -84.21)"/><path class="cls-17" d="M-900.9,443.42c-6,0-14.43-3.86-24.14-7.94-10.07-4.24-21.54-8.72-33.18-9.39-4.34-.25-1.71,17.33-1.71,17.33h-9.5s-9.36-12.52-10.42-23.73c0,0,7.66-4.73,9.5-5a16.76,16.76,0,0,1,1.91-.09c2.06,0,4.81.09,4.81.09h0c-.44-.26-7.45-4.48-11.32-8.77-3.19-3.54-4.66-9.13-4.76-12.47a58.66,58.66,0,0,1,.73-6.6l49.92.83s.54.38,1.5,1.09c5.79,4.22,27,19.94,37.53,31.79,3.42,3.83,5.73,7.25,6.07,9.75C-882.4,441.84-891.83,443.42-900.9,443.42Z" transform="translate(1024.34 -84.21)"/><path d="M-890,420.54l-24.28,5.55A35.81,35.81,0,0,0-925,435.48c-10.07-4.24-21.54-8.72-33.18-9.39-4.34-.25-1.71,17.33-1.71,17.33h-9.5s-9.36-12.52-10.42-23.73c0,0,8.84,12.6,11,19,0,0,3.43-11.84,9-16.59a45.66,45.66,0,0,0-8.51-7.47c2.06,0,4.81.09,4.81.09h0c-.44-.26-7.45-4.48-11.32-8.77-3.19-3.54-4.49-9.14-4.76-12.47-.14-1.64.05-6.6.05-6.6s37.24,5.31,52.1,1.92C-921.79,393-900.63,408.69-890,420.54Z" transform="translate(1024.34 -84.21)"/><path class="cls-7" d="M-929.08,419.69s19.78,9.91,25.05,13.79,6.85,2.83,6.85,2.83" transform="translate(1024.34 -84.21)"/><path class="cls-7" d="M-975,418.64s4.75,7.25,5,9.42" transform="translate(1024.34 -84.21)"/><path d="M-895.42,279.48s10.56-4.58,9.57,14.9,2.57,20.48,2.57,20.48-26.5,10.88-33.23,1.58S-916.85,281.69-895.42,279.48Z" transform="translate(1024.34 -84.21)"/><path class="cls-3" d="M-896.91,314.86s-10.9,5.14-11.89,9.89-14.63-2.4-14.63-2.4l9.89-14.22Z" transform="translate(1024.34 -84.21)"/><path class="cls-17" d="M-968.35,367c-25,31.84-4.71,47.2,23.63,44.66l-5.68,9,14.25,2.47s10.94-7.14,25.84-14.77c25.36-13,35.6-12.22,33-25.23s-33.69-21.45-64.84-7.74C-942.19,375.38-959.12,355.28-968.35,367Z" transform="translate(1024.34 -84.21)"/><path class="cls-3" d="M-959.63,436.31s6.5-18,9.23-19,12.94,2.9,14.25,5.8c0,0,3.48-5.32,4.9-3.06s-.63,6,0,8.86,7.65,6.86,10.47,7.39,4.4,2.11,4.4,3.69v3.43h-43.25A9.05,9.05,0,0,1-959.63,436.31Z" transform="translate(1024.34 -84.21)"/><path class="cls-7" d="M-931.25,426.09s-5.73,2.83-7.83,2,1.08,4.75,1.87,5.28,6-1.85,6-1.85" transform="translate(1024.34 -84.21)"/><path class="cls-7" d="M-954.22,423.12s7.78.15,10.15,3" transform="translate(1024.34 -84.21)"/><path class="cls-7" d="M-959.63,436.31s12.39,2.9,13.45,2.9a30.47,30.47,0,0,0,5-1.45s3.4,1.71,5.65,2.77,17,0,17,0" transform="translate(1024.34 -84.21)"/><path class="cls-7" d="M-944.72,411.68c11.85-1.28,34.83-15.87,42.8-20.94s10.07-3.75,10.07-3.75" transform="translate(1024.34 -84.21)"/><path class="cls-2" d="M-979.68,386.83l1.9-14.35,4.56-3.44c7.38-17.93,40.86-51.42,50-51.31,13.72.16,16.14,14.55,17.83,30.3s-19.67,13.38-19.67,13.38v3.95l-12.15,6.29,7.36-.23S-951,392-979.68,386.83Z" transform="translate(1024.34 -84.21)"/><path class="cls-3" d="M-920.33,290c2.86-9,16-11.4,20.71-9.93a16.72,16.72,0,0,1,8.91,8.13c1.21,2.59-1.3,7.17.48,9.84,2.56,3.83,2.35,11.91,1.42,17-.49,2.7-11.72,4.3-20.91-2C-919.58,306.22-923.11,298.66-920.33,290Z" transform="translate(1024.34 -84.21)"/><path d="M-907.07,277.38s11.57-1.88,11.64,1.09c.52,19.73-11.31,23.87-11.31,23.87s-4.83-3.85-5.92-1.21,1.71,9.94,5.13,10.09a7.82,7.82,0,0,0-.14,8.24s-19.58,3.27-21.2-5.8a73.35,73.35,0,0,0,1.62-9.58C-926,291.37-928.95,282.82-907.07,277.38Z" transform="translate(1024.34 -84.21)"/><path class="cls-3" d="M-891.62,297.49c2.41,2.17,4.14,2.17,4.11,2.95-.09,2.43-3,3.64-3,3.64" transform="translate(1024.34 -84.21)"/><path class="cls-7" d="M-890.57,308.13a8.88,8.88,0,0,1-5.27.13" transform="translate(1024.34 -84.21)"/><path d="M-897,285.38s7.68-2.23,6.27,10.25c0,0,3.21-4.35,3.2-9.24,0-8.47-11.33-6.77-11.33-6.77l1.47,6" transform="translate(1024.34 -84.21)"/><path class="cls-7" d="M-890,291.49a2.59,2.59,0,0,0-2-.37" transform="translate(1024.34 -84.21)"/><path class="cls-7" d="M-895.17,291.35s-4.14.24-5.92,3" transform="translate(1024.34 -84.21)"/><path d="M-896.16,297.92c.06.66-.22,1.23-.63,1.27s-.8-.47-.86-1.13.22-1.23.63-1.27S-896.23,297.26-896.16,297.92Z" transform="translate(1024.34 -84.21)"/><path class="cls-7" d="M-944.07,414.68s9.2,1,11.2,5" transform="translate(1024.34 -84.21)"/><path class="cls-3" d="M-920.78,324.48a17.09,17.09,0,0,1,12.65-1.58c7.31,1.85,26.3,29,28.94,31.65s7.58,4,12.13,8.79c7.2,7.51,17.67,14.15,18.73,14.15s1.91-.66,3.23-.92,11.54-1.19,11.54-1.19,3.42.77,0,2.23-3.17,2.79-3.17,2.79-.69,1.1.69,2.16,2.19.48,4.16,3.27-2.78,1.21-2.78,1.21,1,3-1.06,2.7-.26,2.93-3.69,2.49-10.77-5.07-12.62-9.92c0,0-29.93-14.31-34.41-18s-23.32-23.48-24.65-23.74" transform="translate(1024.34 -84.21)"/><path class="cls-2" d="M-925.08,321.58s14.76-3.95,19.91-1.05,14.9,16.35,14.9,16.35-11.89,10.65-15.57,9.68S-920.78,344-920.78,344" transform="translate(1024.34 -84.21)"/><path class="cls-7" d="M-912.29,345.3s-5.34,2.94-7.32,2.94" transform="translate(1024.34 -84.21)"/><path class="cls-7" d="M-920.78,330.55c.45.79.3,9.44,9.69,12.13" transform="translate(1024.34 -84.21)"/><path class="cls-7" d="M-971,369.32s20,3.43,26.9-2.64" transform="translate(1024.34 -84.21)"/><path class="cls-7" d="M-937.23,371.65s-5-.88-6.84,1.69-11.87,5-11.87,5" transform="translate(1024.34 -84.21)"/><path class="cls-7" d="M-977.43,390.74s-2.89,12.46,9.43,18" transform="translate(1024.34 -84.21)"/><path class="cls-7" d="M-971,391.6s.06,6.14,2,9.5l6.13,2,6.86-3.82s-1.45-7.85-1.58-9.44" transform="translate(1024.34 -84.21)"/></g></svg>