<svg id="Character_1" data-name="Character 1" xmlns="http://www.w3.org/2000/svg" viewBox="0 0 439.08 429.77"><defs><style>.cls-1,.cls-7{fill:#b6b1f4;}.cls-10,.cls-11,.cls-2,.cls-4,.cls-5,.cls-6{fill:#fff;}.cls-2{opacity:0.7;}.cls-12,.cls-13,.cls-14,.cls-15,.cls-3,.cls-8{fill:none;}.cls-12,.cls-13,.cls-3,.cls-5,.cls-7,.cls-8{stroke:#000;}.cls-12,.cls-13,.cls-14,.cls-15,.cls-3,.cls-5{stroke-linecap:round;stroke-linejoin:round;}.cls-10,.cls-12,.cls-14,.cls-15,.cls-3,.cls-5,.cls-7,.cls-8{stroke-width:1.1px;}.cls-3{stroke-dasharray:4.41;}.cls-4{opacity:0.5;}.cls-14,.cls-6,.cls-9{opacity:0.2;}.cls-10,.cls-7,.cls-8{stroke-miterlimit:10;}.cls-10{stroke:#323333;}.cls-13{stroke-width:2.21px;}.cls-14,.cls-15{stroke:#fff;}</style></defs><path class="cls-1" d="M967,193.21c-48.74-83.47-181-53.74-208-94.34C745.17,78.08,729.7,54,707.27,41.44c-21.39-11.94-46.19-16.21-67.81-14.62-77.21,5.65-110,74.73-95.11,150.59C564.14,278.6,653.84,382,760.41,382.69c55.74.38,109-19.54,150.69-47.71l.93-.63C953.73,306,1004.17,257,967,193.21Z" transform="translate(-540.86 -26.5)"/><path class="cls-2" d="M967,193.21c-48.74-83.47-181-53.74-208-94.34C745.17,78.08,729.7,54,707.27,41.44c-21.39-11.94-46.19-16.21-67.81-14.62-77.21,5.65-110,74.73-95.11,150.59C564.14,278.6,653.84,382,760.41,382.69c55.74.38,109-19.54,150.69-47.71l.93-.63C953.73,306,1004.17,257,967,193.21Z" transform="translate(-540.86 -26.5)"/><path class="cls-3" d="M588.59,199.29h-5.42a21.93,21.93,0,0,0-21.93,21.93V341.56a21.93,21.93,0,0,0,21.93,21.93h74.36a21.93,21.93,0,0,0,21.93-21.93h0" transform="translate(-540.86 -26.5)"/><path class="cls-3" d="M673.37,85.74V62A13.43,13.43,0,0,1,686.8,48.53h96.7A13.43,13.43,0,0,1,796.93,62h0" transform="translate(-540.86 -26.5)"/><ellipse class="cls-1" cx="219.54" cy="403.01" rx="191.52" ry="26.76"/><ellipse class="cls-4" cx="219.54" cy="403.01" rx="191.52" ry="26.76"/><path class="cls-5" d="M940.94,117.63V297.69a22.2,22.2,0,0,1-22.19,22.2H602.06a22.2,22.2,0,0,1-22.2-22.2V117.63c0-.53,0-1,.07-1.56a22.19,22.19,0,0,1,22.13-20.64H918.75a22.2,22.2,0,0,1,22.13,20.64C940.92,116.59,940.94,117.1,940.94,117.63Z" transform="translate(-540.86 -26.5)"/><path d="M49.8,97.89H390.41a0,0,0,0,1,0,0V264.22a20.8,20.8,0,0,1-20.8,20.8H70.6a20.8,20.8,0,0,1-20.8-20.8V97.89A0,0,0,0,1,49.8,97.89Z"/><path class="cls-6" d="M931.28,124.38V290.72a20.69,20.69,0,0,1-20.57,20.79H611.23a20.69,20.69,0,0,1-20.57-20.79V124.38Z" transform="translate(-540.86 -26.5)"/><path class="cls-7" d="M940.88,116.07h-361a22.19,22.19,0,0,1,22.13-20.64H918.75A22.2,22.2,0,0,1,940.88,116.07Z" transform="translate(-540.86 -26.5)"/><path d="M624.28,105.75a3.93,3.93,0,1,1-3.93-3.93A3.93,3.93,0,0,1,624.28,105.75Z" transform="translate(-540.86 -26.5)"/><path d="M640.91,105.75a3.94,3.94,0,1,1-3.93-3.93A3.93,3.93,0,0,1,640.91,105.75Z" transform="translate(-540.86 -26.5)"/><circle cx="112.73" cy="79.25" r="3.93"/><path class="cls-8" d="M931.27,124.39V290.72a20.8,20.8,0,0,1-20.8,20.8h-299a20.79,20.79,0,0,1-20.39-16.77h0v0a21,21,0,0,1-.38-4V124.39Z" transform="translate(-540.86 -26.5)"/><path d="M931,150.12a20.94,20.94,0,0,0-4.62-1.91l-1.87-8.35h-7.94l-1.85,8.35a20.17,20.17,0,0,0-4.63,1.91l-7.17-4.59-5.62,5.61,4.51,7.17a21.3,21.3,0,0,0-1.91,4.64l-8.35,1.85v7.94l8.35,1.87a21.05,21.05,0,0,0,1.91,4.66l-4.59,7.22,5.62,5.61,7.21-4.59a20.28,20.28,0,0,0,4.64,1.92l1.85,8.34h7.94l1.87-8.34a21,21,0,0,0,4.62-1.92l.36.23V149.91Zm-10.43,28.95a10.26,10.26,0,1,1,10.25-10.26A10.26,10.26,0,0,1,920.52,179.07Z" transform="translate(-540.86 -26.5)"/><path d="M787.85,158.16V141.42l-17.6-3.91a45.51,45.51,0,0,0-4-9.77l2.13-3.36h-83.1l2.06,3.27a43.08,43.08,0,0,0-4,9.76l-17.61,3.92v16.74L683.29,162a43.68,43.68,0,0,0,4,9.84l-9.68,15.21,11.85,11.84,15.2-9.68a44.38,44.38,0,0,0,9.77,4l3.91,17.59H735.1L739,193.26a45.13,45.13,0,0,0,9.74-4L764,198.89l11.84-11.84-9.61-15.21a45.87,45.87,0,0,0,4-9.75Zm-61,13.26a21.63,21.63,0,1,1,21.63-21.63A21.63,21.63,0,0,1,726.85,171.42Z" transform="translate(-540.86 -26.5)"/><path d="M676.79,273.14l.7-13.28L663.73,256a37.24,37.24,0,0,0-2.83-7.9l8.32-11.68-8.91-9.89-12.47,7a37,37,0,0,0-7.59-3.63l-2.38-14.12-13.28-.7-3.84,13.81a35.22,35.22,0,0,0-7.9,2.8l-11.67-8.32-9.91,8.92,7.06,12.47a35,35,0,0,0-3.64,7.58l-4,.66v18l2.92.82a34.63,34.63,0,0,0,2.83,7.92l-5.75,8,.38,6.9v0h0l5.92,6.58,12.49-7.05a34.44,34.44,0,0,0,7.61,3.67l2.27,13.56h0l.11.56,13.28.71.35-1.27h0L636.59,299a35.86,35.86,0,0,0,7.94-2.8l11.65,8.3,9.91-8.9-7-12.49a34.73,34.73,0,0,0,3.6-7.56ZM641.51,252.4a17.2,17.2,0,1,0-1.28,24.27A17.19,17.19,0,0,0,641.51,252.4Z" transform="translate(-540.86 -26.5)"/><path d="M783,253.3a26.72,26.72,0,0,0,.81-6.29l9.55-5-2.64-9.69-10.78.5a26.84,26.84,0,0,0-3.87-5l3.19-10.31-8.7-5-7.28,7.95a28.12,28.12,0,0,0-6.27-.8l-5-9.56-9.68,2.64.52,10.79a27,27,0,0,0-5,3.87l-10.31-3.19-5,8.69,8,7.26a26.61,26.61,0,0,0-.79,6.28l-9.56,5,2.64,9.68,10.79-.51a25.06,25.06,0,0,0,3.86,5l-3.21,10.26,8.7,5,7.24-7.88a26.12,26.12,0,0,0,6.29.79l5,9.56,9.68-2.63-.43-9.22-.07-1.58a26.41,26.41,0,0,0,5.06-3.87l10.31,3.2,4.26-7.44.73-1.26Zm-22.87,5.88a13,13,0,1,1,9.1-15.9A13,13,0,0,1,760.13,259.18Z" transform="translate(-540.86 -26.5)"/><path d="M893.72,270.34l2.2-13.3-13.45-5.41a35.77,35.77,0,0,0-1.93-8.3l9.68-10.79-7.84-11L869,227.25a35.31,35.31,0,0,0-7.21-4.48L861,208.28l-13.3-2.2-5.45,13.4a37.18,37.18,0,0,0-8.26,1.94l-10.82-9.68-11,7.84,5.68,13.35a36.84,36.84,0,0,0-4,6.29l-.45.92-14.48.81-2.21,13.28,2.19.88,11.27,4.55a35.18,35.18,0,0,0,1.93,8.26l-9.68,10.82,7.84,11,13.36-5.7a34.72,34.72,0,0,0,7.2,4.52l.75,14.42,13.29,2.2,5.44-13.3a34.63,34.63,0,0,0,8.29-1.95l10.8,9.7,11-7.85-5.68-13.36a34.78,34.78,0,0,0,4.55-7.25Zm-37.3-.6a17.41,17.41,0,1,1,4-24.29A17.41,17.41,0,0,1,856.42,269.74Z" transform="translate(-540.86 -26.5)"/><rect class="cls-7" x="54.93" y="145.38" width="130.8" height="171.01" rx="13.11"/><rect class="cls-9" x="54.93" y="145.38" width="130.8" height="171.01" rx="13.11"/><path class="cls-5" d="M738.76,197.91V342.7a13.11,13.11,0,0,1-13.11,13.12H621.07A13.11,13.11,0,0,1,608,342.7V197.91a13.11,13.11,0,0,1,13.1-13.11H725.65A13.1,13.1,0,0,1,738.76,197.91Z" transform="translate(-540.86 -26.5)"/><path class="cls-7" d="M738.76,197.91v7.75H608v-7.75a13.11,13.11,0,0,1,13.1-13.11H725.65A13.1,13.1,0,0,1,738.76,197.91Z" transform="translate(-540.86 -26.5)"/><rect class="cls-1" x="79.4" y="188.14" width="32.18" height="5.4"/><rect class="cls-1" x="79.4" y="236.53" width="32.18" height="5.4"/><rect class="cls-1" x="79.4" y="280.41" width="32.18" height="5.4"/><rect x="79.4" y="201.5" width="91.39" height="3.96"/><rect x="79.4" y="209.08" width="74.91" height="3.86"/><rect x="79.4" y="216.53" width="84.72" height="3.86"/><rect x="79.4" y="223.97" width="84.72" height="3.86"/><rect x="79.4" y="245.38" width="91.39" height="3.96"/><rect x="79.4" y="252.96" width="74.91" height="3.86"/><rect x="79.4" y="260.41" width="84.72" height="3.86"/><rect x="79.4" y="293.57" width="91.39" height="3.96"/><rect x="79.4" y="301.15" width="74.91" height="3.86"/><rect x="79.4" y="308.6" width="84.72" height="3.86"/><path class="cls-10" d="M886.17,84.4v58.52a15.63,15.63,0,0,1-15.63,15.63H735.75a15.63,15.63,0,0,1-15.63-15.63V84.4a15.64,15.64,0,0,1,15.63-15.64H870.54A15.64,15.64,0,0,1,886.17,84.4Z" transform="translate(-540.86 -26.5)"/><path class="cls-7" d="M886.17,84.4v1.34h-166V84.4a15.64,15.64,0,0,1,15.63-15.64H870.54A15.64,15.64,0,0,1,886.17,84.4Z" transform="translate(-540.86 -26.5)"/><path d="M744.51,80.05a2.39,2.39,0,1,1,0-3.39A2.4,2.4,0,0,1,744.51,80.05Z" transform="translate(-540.86 -26.5)"/><path d="M755.63,80.05a2.39,2.39,0,1,1,0-3.39A2.4,2.4,0,0,1,755.63,80.05Z" transform="translate(-540.86 -26.5)"/><path d="M766.75,80.05a2.39,2.39,0,1,1,0-3.39A2.4,2.4,0,0,1,766.75,80.05Z" transform="translate(-540.86 -26.5)"/><rect class="cls-3" x="189.84" y="70" width="54.28" height="46.92"/><rect x="252.49" y="70" width="62.47" height="3.3"/><rect x="252.49" y="76.83" width="47.92" height="3.29"/><rect x="252.49" y="83.63" width="71.35" height="3.33"/><rect x="252.49" y="90.26" width="60.76" height="3.33"/><path class="cls-1" d="M807.27,424.57s-29,8.32-33,9.76c-3.69,1.3-13.67,4.79-21.16,3.71a15.89,15.89,0,0,1-2.14-.46c-7.59-2.26-11-4.37-12-9.14s2.78-8.29,6.42-10.54,23.38-4.6,23.38-4.6l4.77,1.4h0Z" transform="translate(-540.86 -26.5)"/><path class="cls-11" d="M753.06,438a15.89,15.89,0,0,1-2.14-.46c-7.59-2.26-11-4.37-12-9.14s2.78-8.29,6.42-10.54,23.38-4.6,23.38-4.6l4.77,1.4c-4.31,2-20.4,3.09-23.9,5.11s-5.21,5.82-3.14,11C747.57,433.51,750.52,436.16,753.06,438Z" transform="translate(-540.86 -26.5)"/><path class="cls-12" d="M802.9,425.76s-21.78,5.64-30.41,9.25-25.12,5.19-31-2.26-.67-13.85,5.2-15.28,17.73-3.68,24.21-2.77" transform="translate(-540.86 -26.5)"/><path class="cls-12" d="M753.5,437.65s-11.09-6.08-7.41-14.6c2.72-6.28,17.5-4.92,24.82-8.35" transform="translate(-540.86 -26.5)"/><path class="cls-1" d="M895.59,439.39c-.3,3-1.34,5.81-4.34,7.58-2,1.18-4.85,1.88-8.92,1.84-10.17-.13-29.28-7.4-29.28-7.4l-17.91-9.9,9.31-14.73,2.55-4,6.59,1.48s5.44,3.08,10.93,5.54,18.78,3,23.47,6.78S896.1,434.45,895.59,439.39Z" transform="translate(-540.86 -26.5)"/><path class="cls-11" d="M895.59,439.39c-.3,3-1.34,5.81-4.34,7.58a13.46,13.46,0,0,0-.51-8.94c-2-4.49-8.51-8.45-17.07-9.11s-15.11-4.67-18.54-6.45c-2.68-1.39-8.33-4.43-10.68-5.69l2.55-4,6.59,1.48s5.44,3.08,10.93,5.54,18.78,3,23.47,6.78S896.1,434.45,895.59,439.39Z" transform="translate(-540.86 -26.5)"/><path class="cls-12" d="M839.11,434.29A113,113,0,0,0,881,448.6c3.26.39,7,.45,9.23-2a6.78,6.78,0,0,0,1.5-5.11c-.39-4.6-4.25-8.25-8.49-10.07s-8.92-2.25-13.42-3.26a53.6,53.6,0,0,1-12.91-4.72c-3.23-1.69-6.37-3.74-9.94-4.5s-7.82.16-9.72,3.28" transform="translate(-540.86 -26.5)"/><path class="cls-12" d="M889.05,447.85a12,12,0,0,0,6.55-8.46c.64-4.33-1.82-8.69-5.3-11.35s-7.82-3.92-12.11-4.81-8.67-1.49-12.75-3.09c-6.28-2.45-12.46-7.29-19-5.56" transform="translate(-540.86 -26.5)"/><path class="cls-1" d="M859.31,279.37,829,267.84l-.38-.14s.11-.8.2-2c.19-2.42.29-6.36-.85-7.69-1.68-2-6.47-.32-11.14-2.46s-13.3,1.69-13.3,1.69-6.23-1.15-9,3.35c-1.4,3.63-.92,9-.92,9s-.19.08-.57.21c-3.61,1.35-23.24,8.74-27.4,11.71-4.59,3.25-9.66,36.62-11.3,46.42s-4.53,18.63-3,22S773.9,369.61,786,373.8s55.19,3,55.19,3,.71-.19,1.95-.59c7.28-2.34,33.12-12,46.82-34.68C890,341.5,876.72,298,859.31,279.37ZM777.47,335.5c-2.23,1.58-1,7.7-1,7.7l-3.79-3.34,9.52-23.41,4.06,18S779.7,333.93,777.47,335.5Zm76.16,14.87c-1,.54,3-10.71,1.08-13.26S847,334.8,847,334.8l.5-3.07c.06-.35,3.43-17.6,3.43-17.6l1.13-1.36S863.84,333,866,340.09C866,340.09,853.11,350.37,853.63,350.37Z" transform="translate(-540.86 -26.5)"/><path class="cls-11" d="M802.12,206.36,786.48,223s-2.15,1.91-1.29,6.72,2.85,8.95,4.35,9.27a20.73,20.73,0,0,0,3.62.33s3.36,7.26,5.73,10.11c0,0,.82,11.21.38,14.32,0,0,5.62,4.91,10.91,5.53s13.47-7.48,13.47-7.48l2-9.92s4.8-7.28,5.13-9.22,2.52-1.44,3.59-2.4,3.57-5.23,4-9.27.44-8.68-4.26-7.32c-4.06-1.09-1.52-9.69-1.52-9.69l-7.14-6.31Z" transform="translate(-540.86 -26.5)"/><path class="cls-4" d="M829,267.84a15,15,0,0,1-.81,1.81c-2.58,4.87-13.82,14.13-13.82,14.13L811,273.34l-1.86,10.44c-3.75-1.63-15.19-11.54-15.19-11.54s-.39-.93-.86-2.38c.38-.13.57-.21.57-.21s-.48-5.4.92-9c2.75-4.5,9-3.35,9-3.35s8.64-3.83,13.3-1.69,9.46.48,11.14,2.46.65,9.66.65,9.66Z" transform="translate(-540.86 -26.5)"/><path class="cls-9" d="M859.31,279.37,829,267.84l-.38-.14s.11-.8.2-2l-.63,3.92-4.47,6.09a124.21,124.21,0,0,1,14,6.16,12.28,12.28,0,0,1,6.42,12.25l-5.58,47.75L836.27,369l6.9,7.17c7.28-2.34,33.12-12,46.82-34.68C890,341.5,876.72,298,859.31,279.37Zm-5.68,71c-1,.54,3-10.71,1.08-13.26S847,334.8,847,334.8l.5-3.07c.06-.35,3.43-17.6,3.43-17.6l1.13-1.36S863.84,333,866,340.09C866,340.09,853.11,350.37,853.63,350.37Z" transform="translate(-540.86 -26.5)"/><path class="cls-9" d="M788.27,337.11l-4.71-15.74s-8.44-28.81-14.24-35.91l1.53,20.26s-5,24.2-9.57,31.39-5.6,9,0,9,19.19,10.84,19.19,10.84l-1.05-9Zm-11.84,6.09-3.79-3.34,9.52-23.41,4.06,18s-6.52-.49-8.75,1.08S776.43,343.2,776.43,343.2Z" transform="translate(-540.86 -26.5)"/><path class="cls-12" d="M798.89,249.39s.87,8.49,0,12.37" transform="translate(-540.86 -26.5)"/><path class="cls-12" d="M824.51,260.62a36.2,36.2,0,0,1,1-8.11" transform="translate(-540.86 -26.5)"/><path class="cls-12" d="M826.79,212.69s5.13,6.45,4.87,11.33-.66,10.66-.53,16.32S822,257.86,817.3,258.91s-8.82,1.32-11.85-1.71-6.05-7.24-10-12.64-3-17.25-3-17.25" transform="translate(-540.86 -26.5)"/><path class="cls-12" d="M814.42,231.82a27.58,27.58,0,0,0-.4,5.37,6.12,6.12,0,0,0,1.32,4.2c.57.58,1.39,1.05,1.5,1.85a2,2,0,0,1-1.05,1.75,13.37,13.37,0,0,0-1.86,1.1" transform="translate(-540.86 -26.5)"/><path class="cls-12" d="M806.27,246.71s.59,3.83,5.73,4.63" transform="translate(-540.86 -26.5)"/><path d="M806.8,234.74c0,1.11-.47,2-1.06,2s-1.07-.89-1.07-2,.48-2,1.07-2S806.8,233.63,806.8,234.74Z" transform="translate(-540.86 -26.5)"/><path d="M822.11,235.22c0,1.11-.48,2-1.07,2s-1.06-.89-1.06-2,.47-2,1.06-2S822.11,234.12,822.11,235.22Z" transform="translate(-540.86 -26.5)"/><path class="cls-13" d="M819,230.37s5-5,9.19.58" transform="translate(-540.86 -26.5)"/><path class="cls-13" d="M808.49,230.47s-3.15-3.54-8.13,0" transform="translate(-540.86 -26.5)"/><path d="M799.27,254.06s3.05,8.4,9.86,10.78,15.85-10,15.85-10l-.47-1.61s-5.92,7.7-12.51,6.38-13.11-10.24-13.11-10.24Z" transform="translate(-540.86 -26.5)"/><path class="cls-12" d="M793.16,239s-4,1.44-5.13-1.73-4.78-11.48-1.55-14.26,5.84,3.67,5.84,3.67" transform="translate(-540.86 -26.5)"/><path class="cls-12" d="M831.12,240.68s3.78.76,4.85-2.41,4.78-11.48,1.55-14.26-5.84,3.67-5.84,3.67" transform="translate(-540.86 -26.5)"/><path d="M792.32,234.74a5.67,5.67,0,0,0,3.57-2.1,8.91,8.91,0,0,0,1-3.2,38.42,38.42,0,0,0,.57-6.43,8.8,8.8,0,0,1,.22-2.51,6.51,6.51,0,0,1,1.36-2.23c1.42-1.66,3.12-3.06,4.47-4.78a8,8,0,0,0,2-6A27.47,27.47,0,0,0,828,213.26c7.15-1.4,14-7.67,13.17-15.55a6.37,6.37,0,0,0-5-5.48c-3.53-.88-6.71,1-9.91,2.21-5.83,2.2-11.54-1.58-17.43-2.22-5-.54-11.22.09-13.85,5.1,0,0-9,1.06-13,8.5s3.58,17.72,3.58,17.72,3-3.67,6.93,3.77Z" transform="translate(-540.86 -26.5)"/><path d="M827.36,210.79S825,223,831.12,228.9c0,0,1.34-3.67,2.69-4.57a14.13,14.13,0,0,0-1.07-13.54C828.28,203.69,827.36,210.79,827.36,210.79Z" transform="translate(-540.86 -26.5)"/><path class="cls-14" d="M838.54,196.91a11.49,11.49,0,0,1-7,7.27c-8.48,3.46-16.71-.37-25.2-1.12-6.94-.62-14.59,5.64-15.08,12.76" transform="translate(-540.86 -26.5)"/><path class="cls-14" d="M786,213.94a14.81,14.81,0,0,1,9-13.08" transform="translate(-540.86 -26.5)"/><path class="cls-12" d="M796.93,260.62a38.71,38.71,0,0,0,13.21,9s10.15-3,15.32-10" transform="translate(-540.86 -26.5)"/><circle class="cls-12" cx="803.55" cy="234.74" r="8.98" transform="translate(-565.57 329.83) rotate(-24.64)"/><circle class="cls-12" cx="823.62" cy="234.74" r="8.98" transform="translate(-563.34 75.66) rotate(-7)"/><path class="cls-12" d="M798.89,257.27a7,7,0,0,0-4.32,3.35c-1.59,2.8-.63,11.61-.63,11.61s8.2,8.12,15.19,11.55l2.06-11.59,3.2,11.59s10.83-7.65,13.82-14.12c0,0,1-7.55,0-10a3.46,3.46,0,0,0-3.23-2.36" transform="translate(-540.86 -26.5)"/><path class="cls-12" d="M786,334.81s-3.21-21.5-7.48-30.27" transform="translate(-540.86 -26.5)"/><path class="cls-12" d="M769.32,285.46A86.16,86.16,0,0,1,776,296.57" transform="translate(-540.86 -26.5)"/><path class="cls-12" d="M853.63,301.51A61.79,61.79,0,0,1,857.16,291" transform="translate(-540.86 -26.5)"/><path class="cls-12" d="M847,334.81s2.31-14.74,5.07-26.88" transform="translate(-540.86 -26.5)"/><path class="cls-12" d="M850.92,314.13a17,17,0,0,1,9-6.12" transform="translate(-540.86 -26.5)"/><path class="cls-12" d="M828.65,267.7s18.64,7.45,30.67,11.67c0,0,14.8,13.92,30.66,62.13,0,0-14.54,24.46-42.2,32.3" transform="translate(-540.86 -26.5)"/><path class="cls-12" d="M852.59,351.24,866,340.09s7.07-5.38,14.42-1.7" transform="translate(-540.86 -26.5)"/><path class="cls-12" d="M852.07,312.78s11,16.28,13.88,27.31" transform="translate(-540.86 -26.5)"/><path class="cls-12" d="M776.55,343.82l-3.91-3.73s-5.8-1-12.37,3.39" transform="translate(-540.86 -26.5)"/><path class="cls-12" d="M772.64,340.09s4.86-16,9.65-24.19" transform="translate(-540.86 -26.5)"/><path class="cls-12" d="M793.65,269.66s-26.81,10.06-29.44,13-12.62,59.19-12.88,65.63c-.24,5.76,20.65,18.69,31,24.14" transform="translate(-540.86 -26.5)"/><rect class="cls-5" x="312.77" y="203.13" width="43.61" height="30.99" rx="6.53"/><polyline class="cls-12" points="326.84 212.45 318.45 217.72 326.23 224.62"/><polyline class="cls-12" points="342.12 225.12 349.66 218.7 340.96 213"/><line class="cls-12" x1="330.91" y1="229.08" x2="337.11" y2="209.66"/><path d="M813.7,288.66a1.77,1.77,0,1,1-1.76-1.76A1.76,1.76,0,0,1,813.7,288.66Z" transform="translate(-540.86 -26.5)"/><path d="M844.72,382.88h-61a1.44,1.44,0,0,1-1.44-1.43h0a1.44,1.44,0,0,1,1.44-1.43h61a1.43,1.43,0,0,1,1.43,1.43h0A1.43,1.43,0,0,1,844.72,382.88Z" transform="translate(-540.86 -26.5)"/><path class="cls-5" d="M846.86,378.14l8.18-38.4a4.08,4.08,0,0,0-4-4.93H779.75a4.08,4.08,0,0,0-4,4.87l7.33,37.13A4.08,4.08,0,0,0,787,380.1l55.79,1.28A4.1,4.1,0,0,0,846.86,378.14Z" transform="translate(-540.86 -26.5)"/><path d="M820.84,356.94a5.69,5.69,0,1,1-5.69-5.7A5.69,5.69,0,0,1,820.84,356.94Z" transform="translate(-540.86 -26.5)"/><line class="cls-12" x1="291.16" y1="311.95" x2="299.63" y2="311.95"/><line class="cls-12" x1="250.71" y1="311.95" x2="282.87" y2="311.95"/><path d="M847,418.88l-6.5,17.06s-16.57-4.18-37.81-8.53c-22.2-4.55-45.39-10.44-57.42-31.55-1.47-2.57-2.45-5.61-1.76-8.49,1.74-7.29,11.22-9.27,17.47-10a113.92,113.92,0,0,1,11.83-.66c2,0,8.65-1.09,10.26.1a47.44,47.44,0,0,0,7.72,4.57c3.55,1.5,55.36-1.36,55.36-1.36a18.49,18.49,0,0,0,1.63-6.22c8.15-4.14,27-7.64,35-6.09,12.53,2.43,19.84,9.74,18.45,17.4S872.16,413.31,847,418.88Z" transform="translate(-540.86 -26.5)"/><path class="cls-15" d="M847,418.88S831.24,414.7,818.36,406s-23-18.8-40.89-16.71" transform="translate(-540.86 -26.5)"/><path class="cls-15" d="M815.39,404c8.14-2.35,14.11-7.61,20.64-12.66a139.38,139.38,0,0,1,22.09-14.52" transform="translate(-540.86 -26.5)"/><line class="cls-12" x1="271.67" y1="209.66" x2="274.05" y2="209.66"/></svg>