<svg id="Character_1" data-name="Character 1" xmlns="http://www.w3.org/2000/svg" xmlns:xlink="http://www.w3.org/1999/xlink" viewBox="0 0 419.32 390.36"><defs><style>.cls-1,.cls-4{fill:#b6b1f4;}.cls-1,.cls-19,.cls-2,.cls-20,.cls-21,.cls-22,.cls-3,.cls-6,.cls-7,.cls-8,.cls-9{stroke:#000;}.cls-1,.cls-10,.cls-19,.cls-2,.cls-20,.cls-21,.cls-22,.cls-3,.cls-6,.cls-7,.cls-8,.cls-9{stroke-linecap:round;stroke-linejoin:round;}.cls-14,.cls-3,.cls-5{fill:#fff;}.cls-5{opacity:0.7;}.cls-10,.cls-21,.cls-22,.cls-6,.cls-7,.cls-8,.cls-9{fill:none;}.cls-7{stroke-width:2px;}.cls-8{stroke-dasharray:1 3;}.cls-9{stroke-dasharray:1 2.99;}.cls-10{stroke:#fff;}.cls-11{clip-path:url(#clip-path);}.cls-12,.cls-16{fill-opacity:0.7;}.cls-12{opacity:0.3;}.cls-13{clip-path:url(#clip-path-2);}.cls-15{clip-path:url(#clip-path-3);}.cls-16{opacity:0.2;}.cls-17{clip-path:url(#clip-path-4);}.cls-18{clip-path:url(#clip-path-5);}.cls-19{fill:#868686;}.cls-20{fill:#a5a5a5;}.cls-21{stroke-dasharray:0.98 2.93;}.cls-22{stroke-dasharray:1 3;}</style><clipPath id="clip-path" transform="translate(-36.62 -27.5)"><path class="cls-1" d="M396.54,392.35c-6.77,11-41.12,16.21-59.87,15.72s-72.7-26-76.36-31.44c-3.39-5-11.72-21.57,1.12-31.58a24.88,24.88,0,0,1,3.46-2.24c8.79-4.76,67.25,10.25,67.25,10.25s3.62-2.29,4.95-2.12c4.08.52,7,3.82,15.24,6.17,5.77,1.65,21.52-4.69,31.58.76a13.88,13.88,0,0,1,3.06,2.22C396.37,369.07,403.3,381.32,396.54,392.35Z"/></clipPath><clipPath id="clip-path-2" transform="translate(-36.62 -27.5)"><path class="cls-2" d="M327.29,401.91l17.52,13.75a200.42,200.42,0,0,0,25.11-3.76h0c8.31-1.92,15.55-4.68,15.95-8.45.61-5.74-5.53-7.31-12.82-7.09-1.37,0-2.76.13-4.17.28-11.68,1.25-26.51-5.2-26.51-5.2Z"/></clipPath><clipPath id="clip-path-3" transform="translate(-36.62 -27.5)"><path class="cls-3" d="M343.62,407.33c-3.16.51.31,7,4.59,5S346.78,406.81,343.62,407.33Z"/></clipPath><clipPath id="clip-path-4" transform="translate(-36.62 -27.5)"><path class="cls-3" d="M369.92,411.89c8.31-1.92,15.55-4.68,15.95-8.45.61-5.74-5.53-7.31-12.82-7.09C372.73,396.65,365.66,403.49,369.92,411.89Z"/></clipPath><clipPath id="clip-path-5" transform="translate(-36.62 -27.5)"><path class="cls-2" d="M316.52,402.44l-18.87,11.83a201.28,201.28,0,0,1-24.58-6.37h0c-8.05-2.78-15-6.29-15-10.08,0-5.78,6.27-6.7,13.5-5.71,1.35.18,2.73.43,4.11.72,11.48,2.47,26.91-2.38,26.91-2.38Z"/></clipPath></defs><path class="cls-4" d="M64.1,401.65H275.31c.86-1.36,1.72-2.72,2.6-4C300.63,363,337,338.36,376.74,326.79c17.79-5.18,37.08-8.26,51.38-20.06,14.72-12.13,21.47-31.49,24.4-50.34,3.55-22.83,1.63-48.41-13.86-65.54-18.19-20.12-48.67-22.37-72.37-35.56C325.5,132.6,309.68,80.9,272.57,52.59c-23.43-17.89-55.09-24.82-83.4-20.9-40.19,5.57-78,32.5-89.36,72a99.81,99.81,0,0,0-3.44,35.41c1.82,23.56,6.89,47.41,2.11,70.54-5.27,25.49-21.86,47-31.77,71.09-12.34,30-14,63.6-8.76,95.58A163.52,163.52,0,0,0,64.1,401.65Z" transform="translate(-36.62 -27.5)"/><path class="cls-5" d="M64.1,401.65H275.31c.86-1.36,1.72-2.72,2.6-4C300.63,363,337,338.36,376.74,326.79c17.79-5.18,37.08-8.26,51.38-20.06,14.72-12.13,21.47-31.49,24.4-50.34,3.55-22.83,1.63-48.41-13.86-65.54-18.19-20.12-48.67-22.37-72.37-35.56C325.5,132.6,309.68,80.9,272.57,52.59c-23.43-17.89-55.09-24.82-83.4-20.9-40.19,5.57-78,32.5-89.36,72a99.81,99.81,0,0,0-3.44,35.41c1.82,23.56,6.89,47.41,2.11,70.54-5.27,25.49-21.86,47-31.77,71.09-12.34,30-14,63.6-8.76,95.58A163.52,163.52,0,0,0,64.1,401.65Z" transform="translate(-36.62 -27.5)"/><line class="cls-6" x1="0.5" y1="374.15" x2="418.82" y2="374.15"/><path class="cls-6" d="M274.09,83.38V67.68l-11.76-1a31.91,31.91,0,0,0-2.91-7.05l7.6-9-11.1-11.1-9,7.59a32,32,0,0,0-7-2.91l-1-11.76h-15.7l-1,11.76a32.31,32.31,0,0,0-7.05,2.91l-9-7.59L195,50.6l7.59,9a32.4,32.4,0,0,0-2.91,7.05l-11.76,1v15.7l11.76,1a32.6,32.6,0,0,0,2.91,7l-7.59,9,11.1,11.1,9-7.59a32.31,32.31,0,0,0,7.05,2.91l1,11.76h15.7l1-11.76a32,32,0,0,0,7-2.91l9,7.59,11.1-11.1-7.6-9a32.11,32.11,0,0,0,2.91-7ZM231,93.77a18.24,18.24,0,1,1,18.24-18.24A18.24,18.24,0,0,1,231,93.77Z" transform="translate(-36.62 -27.5)"/><path class="cls-6" d="M442.82,236.83v-7.52l-5.64-.49a16,16,0,0,0-1.4-3.38l3.64-4.33-5.32-5.32-4.33,3.64a15.21,15.21,0,0,0-3.38-1.39l-.48-5.64h-7.53l-.49,5.64a15.41,15.41,0,0,0-3.38,1.39l-4.32-3.64-5.33,5.32,3.64,4.33a15.41,15.41,0,0,0-1.39,3.38l-5.64.49v7.52l5.64.49a15.41,15.41,0,0,0,1.39,3.38L404.86,245l5.33,5.32,4.32-3.64a15.41,15.41,0,0,0,3.38,1.39l.49,5.64h7.53l.48-5.64a15.21,15.21,0,0,0,3.38-1.39l4.33,3.64,5.32-5.32-3.64-4.33a16,16,0,0,0,1.4-3.38Zm-20.68,5a8.75,8.75,0,1,1,8.75-8.75A8.75,8.75,0,0,1,422.14,241.82Z" transform="translate(-36.62 -27.5)"/><path class="cls-6" d="M437.16,99.79a20.54,20.54,0,0,0-25.37-24.44A19.69,19.69,0,0,0,375,83.78a16.27,16.27,0,0,0-3-.28,16.08,16.08,0,0,0-16,14.28,9,9,0,0,0,.2,17.92h75.28a9,9,0,0,0,5.67-15.91Z" transform="translate(-36.62 -27.5)"/><line class="cls-6" x1="359.14" y1="81.32" x2="359.14" y2="102.07"/><line class="cls-6" x1="359.14" y1="68.87" x2="359.14" y2="77.17"/><line class="cls-6" x1="359.14" y1="61.12" x2="359.14" y2="65.55"/><polyline class="cls-6" points="355.22 99.64 359.14 104.49 363.06 99.64"/><path class="cls-6" d="M207.76,343.14A20.53,20.53,0,0,0,182.4,318.7a19.69,19.69,0,0,0-36.81,8.44,15.44,15.44,0,0,0-3-.29,16.09,16.09,0,0,0-16,14.28,9,9,0,0,0,.19,17.92H202.1a9,9,0,0,0,5.66-15.91Z" transform="translate(-36.62 -27.5)"/><line class="cls-6" x1="129.75" y1="327.64" x2="129.75" y2="306.89"/><line class="cls-6" x1="129.75" y1="340.09" x2="129.75" y2="331.79"/><line class="cls-6" x1="129.75" y1="347.84" x2="129.75" y2="343.4"/><polyline class="cls-6" points="133.66 309.32 129.75 304.47 125.83 309.32"/><path class="cls-1" d="M12,52.38H263.44a4.24,4.24,0,0,1,4.24,4.24V68.47a0,0,0,0,1,0,0H7.75a0,0,0,0,1,0,0V56.62A4.24,4.24,0,0,1,12,52.38Z"/><rect class="cls-3" x="19.12" y="71.45" width="262.71" height="184.87"/><path class="cls-3" d="M322.48,87.93a4,4,0,1,1-4-4A4,4,0,0,1,322.48,87.93Z" transform="translate(-36.62 -27.5)"/><path class="cls-3" d="M308.32,87.93a4,4,0,1,1-4-4A4,4,0,0,1,308.32,87.93Z" transform="translate(-36.62 -27.5)"/><path class="cls-3" d="M294.16,87.93a4,4,0,1,1-4-4A4,4,0,0,1,294.16,87.93Z" transform="translate(-36.62 -27.5)"/><line class="cls-7" x1="273.88" y1="79.38" x2="263.47" y2="79.38"/><line class="cls-7" x1="273.88" y1="83.6" x2="263.47" y2="83.6"/><line class="cls-7" x1="273.88" y1="87.82" x2="263.47" y2="87.82"/><line class="cls-7" x1="37.32" y1="188.46" x2="116.05" y2="188.46"/><line class="cls-7" x1="37.32" y1="194.67" x2="116.05" y2="194.67"/><line class="cls-7" x1="37.32" y1="201" x2="99.39" y2="201"/><line class="cls-6" x1="204.27" y1="73.54" x2="204.27" y2="74.04"/><line class="cls-8" x1="204.27" y1="77.03" x2="204.27" y2="251.26"/><line class="cls-6" x1="204.27" y1="252.76" x2="204.27" y2="253.26"/><line class="cls-6" x1="22.29" y1="214.86" x2="22.79" y2="214.86"/><line class="cls-9" x1="25.78" y1="214.86" x2="275.82" y2="214.86"/><line class="cls-6" x1="277.31" y1="214.86" x2="277.81" y2="214.86"/><rect class="cls-3" x="202.54" y="213.14" width="3.45" height="3.45"/><path class="cls-1" d="M162.1,28H112.8a2.18,2.18,0,0,0-2.18,2.18V53.12a2.17,2.17,0,0,0,2.18,2.18h22.12l2.53,9,2.52-9H162.1a2.18,2.18,0,0,0,2.18-2.18V30.18A2.19,2.19,0,0,0,162.1,28Z" transform="translate(-36.62 -27.5)"/><line class="cls-7" x1="82.2" y1="7.07" x2="119.45" y2="7.07"/><line class="cls-7" x1="82.2" y1="11.79" x2="119.45" y2="11.79"/><line class="cls-7" x1="82.2" y1="16.51" x2="119.45" y2="16.51"/><line class="cls-7" x1="82.2" y1="21.23" x2="110.28" y2="21.23"/><rect class="cls-2" x="51.71" y="244.08" width="53.66" height="33.63"/><rect class="cls-1" x="51.71" y="244.08" width="53.66" height="5.11"/><line class="cls-10" x1="57.19" y1="253.5" x2="70.9" y2="253.5"/><line class="cls-10" x1="64.04" y1="257.33" x2="87.78" y2="257.33"/><line class="cls-10" x1="61.01" y1="260.89" x2="68" y2="260.89"/><line class="cls-10" x1="64.04" y1="265.11" x2="80.03" y2="265.11"/><line class="cls-10" x1="57.19" y1="268.93" x2="70.9" y2="268.93"/><line class="cls-6" x1="190.5" y1="181.72" x2="144.43" y2="181.72"/><path class="cls-6" d="M228,230.52s0-21.4-23.91-21.4-23.92,21.4-23.92,21.4" transform="translate(-36.62 -27.5)"/><circle class="cls-1" cx="191.39" cy="203.02" r="2.02"/><path class="cls-1" d="M178.15,230.52a2,2,0,1,1,2,2A2,2,0,0,1,178.15,230.52Z" transform="translate(-36.62 -27.5)"/><rect class="cls-1" x="226.23" y="207.35" width="3.54" height="3.54" transform="translate(419.39 390.74) rotate(180)"/><rect class="cls-1" x="202.31" y="207.35" width="3.54" height="3.54" transform="translate(371.55 390.74) rotate(180)"/><rect class="cls-1" x="178.4" y="207.35" width="3.54" height="3.54" transform="translate(323.72 390.74) rotate(180)"/><path class="cls-1" d="M102.56,144.85v-7.07l-5.3-.45A14.1,14.1,0,0,0,96,134.15l3.42-4.06-5-5-4.06,3.42a14.1,14.1,0,0,0-3.18-1.31l-.45-5.3H79.6l-.45,5.3A14.29,14.29,0,0,0,76,128.51l-4.06-3.42-5,5,3.42,4.06A14.1,14.1,0,0,0,69,137.33l-5.3.45v7.07l5.3.46a14.29,14.29,0,0,0,1.31,3.18l-3.42,4.06,5,5L76,154.13a14.29,14.29,0,0,0,3.18,1.31l.45,5.3h7.08l.45-5.3a14.1,14.1,0,0,0,3.18-1.31l4.06,3.42,5-5L96,148.49a14.29,14.29,0,0,0,1.31-3.18Zm-19.42,4.69a8.22,8.22,0,1,1,8.22-8.22A8.22,8.22,0,0,1,83.14,149.54Z" transform="translate(-36.62 -27.5)"/><path class="cls-1" d="M126.6,160.72v-4.84l-3.63-.32a10.34,10.34,0,0,0-.9-2.17l2.34-2.78L121,147.18l-2.78,2.35a10.34,10.34,0,0,0-2.17-.9l-.32-3.63h-4.84l-.31,3.63a10.34,10.34,0,0,0-2.17.9l-2.79-2.35-3.42,3.43,2.34,2.78a9.81,9.81,0,0,0-.89,2.17l-3.63.32v4.84l3.63.31a9.81,9.81,0,0,0,.89,2.17L102.19,166l3.42,3.42,2.79-2.34a9.61,9.61,0,0,0,2.17.89l.31,3.63h4.84L116,168a9.81,9.81,0,0,0,2.17-.89l2.78,2.34,3.42-3.42-2.34-2.79A10.34,10.34,0,0,0,123,161Zm-13.3,3.2a5.63,5.63,0,1,1,5.63-5.62A5.62,5.62,0,0,1,113.3,163.92Z" transform="translate(-36.62 -27.5)"/><line class="cls-7" x1="214.15" y1="226.62" x2="252.88" y2="226.62"/><line class="cls-7" x1="214.15" y1="232.83" x2="252.88" y2="232.83"/><line class="cls-7" x1="214.15" y1="239.16" x2="236.23" y2="239.16"/><path class="cls-1" d="M199.74,269.24H179.35a5,5,0,0,1-5-5h0a5,5,0,0,1,5-5h20.39a5,5,0,0,1,5,5h0A5,5,0,0,1,199.74,269.24Z" transform="translate(-36.62 -27.5)"/><path class="cls-1" d="M237.73,269.24H217.34a5,5,0,0,1-5-5h0a5,5,0,0,1,5-5h20.39a5,5,0,0,1,5,5h0A5,5,0,0,1,237.73,269.24Z" transform="translate(-36.62 -27.5)"/><rect class="cls-3" x="216.98" y="134.45" width="43.24" height="43.24"/><line class="cls-3" x1="216.98" y1="134.45" x2="260.22" y2="177.69"/><line class="cls-3" x1="260.22" y1="134.45" x2="216.98" y2="177.69"/><rect class="cls-2" x="253.52" y="108.77" width="53.66" height="33.63"/><rect class="cls-1" x="253.52" y="108.77" width="53.66" height="5.11"/><line class="cls-10" x1="258.99" y1="118.19" x2="272.71" y2="118.19"/><line class="cls-10" x1="265.85" y1="122.01" x2="289.59" y2="122.01"/><line class="cls-10" x1="262.82" y1="125.58" x2="269.8" y2="125.58"/><line class="cls-10" x1="265.85" y1="129.79" x2="281.84" y2="129.79"/><line class="cls-10" x1="258.99" y1="133.62" x2="272.71" y2="133.62"/><polygon class="cls-3" points="233.94 85.37 233.94 95.46 229.49 99.91 219.4 99.91 219.4 85.37 233.94 85.37"/><polygon class="cls-3" points="233.94 95.46 229.49 99.91 229.49 95.46 233.94 95.46"/><polygon class="cls-3" points="79.31 163.4 79.31 173.49 74.86 177.94 64.77 177.94 64.77 163.4 79.31 163.4"/><polygon class="cls-3" points="79.31 173.49 74.86 177.94 74.86 173.49 79.31 173.49"/><polygon class="cls-3" points="24.36 225.56 24.36 235.65 19.91 240.1 9.82 240.1 9.82 225.56 24.36 225.56"/><polygon class="cls-3" points="24.36 235.65 19.91 240.1 19.91 235.65 24.36 235.65"/><path class="cls-3" d="M243,191.56c-5.29.46-12-5.86-12-5.86a1.18,1.18,0,0,1-1.89-.25c-.85-1.23-4.58-4.1-4.79-6.58s4.19-6.5,4.19-6.5c-3.4.92-3.75-1.07-3.75-1.07s5.71-4.71,7.7-4.84c.79-.05,4.19,1.91,7.48,4.55,3.44,2.77,9.89,12.52,9.89,12.52s21.86,15.87,27.38,19.93c7.29,5.36,15.93,14.87,15.93,14.87s29,13.08,37,20.27l-10.81,25.62s-26.37-17.67-29-22.15-5.27-1.79-7.91-4.72-5.17-6.28-5.17-6.28a44.76,44.76,0,0,1-12.55-9.13c-6.17-6.32-11.6-16-15-21.81A36.23,36.23,0,0,0,243,191.56Z" transform="translate(-36.62 -27.5)"/><path class="cls-3" d="M244.61,187.82s-7.87-1.9-8.55-7.09a9.55,9.55,0,0,0-1.69-3.63s-7.35-.36-6.88-3.35l9.79-.87a17.07,17.07,0,0,1,8.54,7.18" transform="translate(-36.62 -27.5)"/><path class="cls-6" d="M231,185.7a3.14,3.14,0,0,0,.33-2.12s2.16-.4,1.92-2.31c0,0,3.21-.39,1.14-4.17" transform="translate(-36.62 -27.5)"/><path class="cls-6" d="M233.23,181.27s-4.3-3.2-4.79-4.65" transform="translate(-36.62 -27.5)"/><path class="cls-6" d="M231.31,183.58s-4.58-2.8-4.66-4.44" transform="translate(-36.62 -27.5)"/><path class="cls-6" d="M232.36,169.2s-1.45,2.62-3.87,3.17" transform="translate(-36.62 -27.5)"/><path class="cls-6" d="M231.64,170.22a13,13,0,0,1,2.16,1.43" transform="translate(-36.62 -27.5)"/><path d="M399.24,258.79a235.83,235.83,0,0,0-34.9-11.66c-17.57-4.12-46-7.78-46-7.78s7.82,79.8,5.76,84.6-14.42,20.92-14.42,20.92,66.89,26.08,78.55,28.3,5.58-38.25,5.58-38.25S406.1,283.48,399.24,258.79Z" transform="translate(-36.62 -27.5)"/><path class="cls-3" d="M375.24,250.22s1.59,3-2.59,4.57c-10.83,4-22.37.47-21.14-3.77.47-1.62,3.15,0,3-6.05a7.37,7.37,0,0,0-.73-2.66A27.47,27.47,0,0,0,351,237.7a57.26,57.26,0,0,0-3.71-4.63s17.19-11,29.94,0C377.24,233.07,372.5,235.47,375.24,250.22Z" transform="translate(-36.62 -27.5)"/><path class="cls-4" d="M396.54,392.35c-6.77,11-41.12,16.21-59.87,15.72s-72.7-26-76.36-31.44c-3.39-5-11.72-21.57,1.12-31.58a24.88,24.88,0,0,1,3.46-2.24c8.79-4.76,67.25,10.25,67.25,10.25s3.62-2.29,4.95-2.12c4.08.52,7,3.82,15.24,6.17,5.77,1.65,21.52-4.69,31.58.76a13.88,13.88,0,0,1,3.06,2.22C396.37,369.07,403.3,381.32,396.54,392.35Z" transform="translate(-36.62 -27.5)"/><g class="cls-11"><path class="cls-12" d="M383.91,357.87c-10.31-.69-19.5,1.47-25.92,5.26-7.61,4.5-43.55,21.81-43.55,21.81.08-1.86,2.08-5.61,2.08-5.61-3.38-3-12.22-5.35-12.22-5.35-6.85-5.85-34-23.3-42.87-28.93a24.88,24.88,0,0,1,3.46-2.24c8.79-4.76,67.25,10.25,67.25,10.25s3.62-2.29,4.95-2.12c4.08.52,7,3.82,15.24,6.17C358.1,358.76,373.85,352.42,383.91,357.87Z" transform="translate(-36.62 -27.5)"/></g><path class="cls-6" d="M396.54,392.35c-6.77,11-41.12,16.21-59.87,15.72s-72.7-26-76.36-31.44c-3.39-5-11.72-21.57,1.12-31.58a24.88,24.88,0,0,1,3.46-2.24c8.79-4.76,67.25,10.25,67.25,10.25s3.62-2.29,4.95-2.12c4.08.52,7,3.82,15.24,6.17,5.77,1.65,21.52-4.69,31.58.76a13.88,13.88,0,0,1,3.06,2.22C396.37,369.07,403.3,381.32,396.54,392.35Z" transform="translate(-36.62 -27.5)"/><path class="cls-3" d="M386,402.3l.87,3.77s-2.3,6.53-12.42,7.6-16.09,3.3-20.95,3.59a41.93,41.93,0,0,1-7.69-.12l-1-1.48Z" transform="translate(-36.62 -27.5)"/><path d="M327.29,401.91l17.52,13.75a200.42,200.42,0,0,0,25.11-3.76h0c8.31-1.92,15.55-4.68,15.95-8.45.61-5.74-5.53-7.31-12.82-7.09-1.37,0-2.76.13-4.17.28-11.68,1.25-26.51-5.2-26.51-5.2Z" transform="translate(-36.62 -27.5)"/><g class="cls-13"><path class="cls-12" d="M385.88,403.31a53.88,53.88,0,0,0-9.75,4.8s-16.27,8.37-41.27-.26l-7.57-5.94,15.08-10.47s14.83,6.45,26.51,5.19c1.41-.15,2.81-.25,4.17-.28C380.29,396.13,386.38,397.67,385.88,403.31Z" transform="translate(-36.62 -27.5)"/></g><path class="cls-6" d="M327.29,401.91l17.52,13.75a200.42,200.42,0,0,0,25.11-3.76h0c8.31-1.92,15.55-4.68,15.95-8.45.61-5.74-5.53-7.31-12.82-7.09-1.37,0-2.76.13-4.17.28-11.68,1.25-26.51-5.2-26.51-5.2Z" transform="translate(-36.62 -27.5)"/><path class="cls-14" d="M343.62,407.33c-3.16.51.31,7,4.59,5S346.78,406.81,343.62,407.33Z" transform="translate(-36.62 -27.5)"/><g class="cls-15"><path class="cls-16" d="M349.55,411.3a66.94,66.94,0,0,1-6.81-1.19c-.61-1.27-.47-2.57.88-2.78C346.27,406.89,350.73,409.34,349.55,411.3Z" transform="translate(-36.62 -27.5)"/></g><path class="cls-6" d="M343.62,407.33c-3.16.51.31,7,4.59,5S346.78,406.81,343.62,407.33Z" transform="translate(-36.62 -27.5)"/><path class="cls-14" d="M369.92,411.89c8.31-1.92,15.55-4.68,15.95-8.45.61-5.74-5.53-7.31-12.82-7.09C372.73,396.65,365.66,403.49,369.92,411.89Z" transform="translate(-36.62 -27.5)"/><g class="cls-17"><path class="cls-12" d="M385.88,403.31a53.88,53.88,0,0,0-9.75,4.8,32.94,32.94,0,0,1-6.84,2.28c-2.8-7.69,3.45-13.75,3.76-14C380.29,396.13,386.38,397.67,385.88,403.31Z" transform="translate(-36.62 -27.5)"/></g><path class="cls-6" d="M369.92,411.89c8.31-1.92,15.55-4.68,15.95-8.45.61-5.74-5.53-7.31-12.82-7.09C372.73,396.65,365.66,403.49,369.92,411.89Z" transform="translate(-36.62 -27.5)"/><path class="cls-3" d="M364,404.76h.05a.87.87,0,0,0,.91-.83,11.78,11.78,0,0,1,3-6.59.87.87,0,0,0-1.25-1.2,13.36,13.36,0,0,0-3.47,7.71A.87.87,0,0,0,364,404.76Z" transform="translate(-36.62 -27.5)"/><path class="cls-3" d="M360.53,405h.08a.86.86,0,0,0,.88-.84,12.76,12.76,0,0,1,2.66-6.86.87.87,0,0,0-.13-1.22.86.86,0,0,0-1.21.12,14.28,14.28,0,0,0-3.05,7.92A.87.87,0,0,0,360.53,405Z" transform="translate(-36.62 -27.5)"/><path class="cls-3" d="M356.38,404.53h0a.86.86,0,0,0,.94-.78c.27-3,2.85-6.93,2.88-7a.87.87,0,0,0-.24-1.2.86.86,0,0,0-1.2.24c-.12.17-2.86,4.29-3.17,7.77A.86.86,0,0,0,356.38,404.53Z" transform="translate(-36.62 -27.5)"/><path class="cls-3" d="M352.46,404.12a1,1,0,0,0,.24,0,.87.87,0,0,0,.71-1c-.62-3.68,2.8-6.83,2.84-6.86a.88.88,0,0,0,.06-1.23.87.87,0,0,0-1.22-.06c-.17.15-4.17,3.81-3.39,8.44A.87.87,0,0,0,352.46,404.12Z" transform="translate(-36.62 -27.5)"/><path class="cls-3" d="M348.2,403.09a.94.94,0,0,0,.29,0,.87.87,0,0,0,.65-1c-.75-3.29,2.48-7,2.51-7a.86.86,0,1,0-1.29-1.15c-.16.18-3.87,4.41-2.91,8.57A.86.86,0,0,0,348.2,403.09Z" transform="translate(-36.62 -27.5)"/><path class="cls-3" d="M258.1,396.67l-1.26,3.65s1.6,6.74,11.55,8.86,15.66,5,20.46,5.78a41.19,41.19,0,0,0,7.66.68l1.14-1.37Z" transform="translate(-36.62 -27.5)"/><path d="M316.52,402.44l-18.87,11.83a201.28,201.28,0,0,1-24.58-6.37h0c-8.05-2.78-15-6.29-15-10.08,0-5.78,6.27-6.7,13.5-5.71,1.35.18,2.73.43,4.11.72,11.48,2.47,26.91-2.38,26.91-2.38Z" transform="translate(-36.62 -27.5)"/><g class="cls-18"><path class="cls-12" d="M316.52,402.44l-11.1,7a44.78,44.78,0,0,1-22.53-15.88,74.84,74.84,0,0,0,19.73-3.08Z" transform="translate(-36.62 -27.5)"/></g><path class="cls-6" d="M316.52,402.44l-18.87,11.83a201.28,201.28,0,0,1-24.58-6.37h0c-8.05-2.78-15-6.29-15-10.08,0-5.78,6.27-6.7,13.5-5.71,1.35.18,2.73.43,4.11.72,11.48,2.47,26.91-2.38,26.91-2.38Z" transform="translate(-36.62 -27.5)"/><path class="cls-3" d="M273.07,407.89c-8.05-2.78-15-6.29-15-10.08,0-5.78,6.27-6.7,13.5-5.71C271.88,392.44,278.19,400,273.07,407.89Z" transform="translate(-36.62 -27.5)"/><path class="cls-3" d="M279.71,401.42h0a.87.87,0,0,1-.82-.92,11.71,11.71,0,0,0-2.28-6.87.87.87,0,0,1,1.37-1.06,13.27,13.27,0,0,1,2.64,8A.87.87,0,0,1,279.71,401.42Z" transform="translate(-36.62 -27.5)"/><path class="cls-3" d="M283.14,402h-.08a.87.87,0,0,1-.79-.94,12.74,12.74,0,0,0-1.92-7.09.87.87,0,0,1,.25-1.2.86.86,0,0,1,1.2.24,14.41,14.41,0,0,1,2.2,8.2A.87.87,0,0,1,283.14,402Z" transform="translate(-36.62 -27.5)"/><path class="cls-3" d="M287.31,402h0a.87.87,0,0,1-.85-.88c.06-3.05-2.11-7.18-2.13-7.23a.87.87,0,0,1,1.53-.81c.1.19,2.4,4.57,2.34,8.07A.87.87,0,0,1,287.31,402Z" transform="translate(-36.62 -27.5)"/><path class="cls-3" d="M291.25,402a.91.91,0,0,1-.23,0,.87.87,0,0,1-.6-1.07c1-3.59-2.08-7.09-2.11-7.12a.89.89,0,0,1,.07-1.23.86.86,0,0,1,1.22.07c.16.17,3.74,4.23,2.49,8.75A.88.88,0,0,1,291.25,402Z" transform="translate(-36.62 -27.5)"/><path class="cls-3" d="M295.59,401.42a1,1,0,0,1-.28-.05.86.86,0,0,1-.53-1.1c1.09-3.18-1.74-7.21-1.77-7.25a.88.88,0,0,1,.21-1.21.85.85,0,0,1,1.2.2c.14.19,3.38,4.79,2,8.82A.87.87,0,0,1,295.59,401.42Z" transform="translate(-36.62 -27.5)"/><path class="cls-3" d="M299.71,406.11c3.09.84-1,6.9-5.09,4.5S296.62,405.27,299.71,406.11Z" transform="translate(-36.62 -27.5)"/><path class="cls-1" d="M264,374c4.64,6.5,18.37,13.66,32,19.58a64.58,64.58,0,0,0,8.57,11.21c8.43,8.66,11.86,3.81,11.86,3.81s5.32-.6,13.17-1.68a3.73,3.73,0,0,0,4,2.24c1-.16,3-1.63,5.21-3.55,19.83-3,46.74-8,54-13.82" transform="translate(-36.62 -27.5)"/><path class="cls-6" d="M385.1,361.63c-3.43-3.77-6.86-3.94-14.06-3.43,0,0-18.79,6-31.89,13.89s-32.24,16.26-32.24,16.26-5.83-1.69-9.88,0c0,0-2.85.22-.94,5.2" transform="translate(-36.62 -27.5)"/><path class="cls-6" d="M393.85,384.16s.09,5.81-8.14,9.83" transform="translate(-36.62 -27.5)"/><path class="cls-6" d="M303,359.91s13,9.41,15.6,15.61a54,54,0,0,1,7.39,3.81" transform="translate(-36.62 -27.5)"/><path class="cls-6" d="M319.52,367.73a14.89,14.89,0,0,1,.45,8.41" transform="translate(-36.62 -27.5)"/><path class="cls-6" d="M316.52,361.63a23.74,23.74,0,0,1,1.86,3.25" transform="translate(-36.62 -27.5)"/><path class="cls-6" d="M335,360.77s4.35,5.82,5.44,10.54" transform="translate(-36.62 -27.5)"/><path class="cls-6" d="M359.26,395.93a37.27,37.27,0,0,0,4.83-.6" transform="translate(-36.62 -27.5)"/><path class="cls-6" d="M318.46,391.76a231.67,231.67,0,0,0,37.39,4.29" transform="translate(-36.62 -27.5)"/><path class="cls-3" d="M406.45,303.58s-2.35,40.95-5.12,43.35-7.14,3.08-15.42,3.77-44.85,2.93-44.85,2.93l-3.91-11.75s19.45-2,28.08-5.15a145.12,145.12,0,0,1,19.87-5.26s-1.63-10.31-1.63-14.75V295.84" transform="translate(-36.62 -27.5)"/><path d="M399.24,258.79c8.92,5.49,11.55,18.18,8.46,45.27,0,0,2.64,3.2-1.25,4.8,0,0-14.57-5.45-21.35-1.69s-5-5.19-5-5.19-2.78-24.92,3.39-29.43" transform="translate(-36.62 -27.5)"/><path class="cls-10" d="M382.67,268.74s-8.57,8.91-1,31.43a36.74,36.74,0,0,0-1,5.6c0,1.51,2.07,2.29,2.07,2.29" transform="translate(-36.62 -27.5)"/><path class="cls-10" d="M372.65,283.83s.62,11,7.43,15.77" transform="translate(-36.62 -27.5)"/><path class="cls-10" d="M374.85,258.29s-13.29,5.09-23.87-.55c-6.26-3.34-3.68-8.71-3.68-8.71" transform="translate(-36.62 -27.5)"/><path class="cls-19" d="M279.28,361.65h72.34a18.85,18.85,0,0,0,4.84-.63l14.27-3.74a.93.93,0,0,0,.69-.89h0a.93.93,0,0,0-.93-.93h-94.2a.93.93,0,0,0-.92.93v1.35A3.91,3.91,0,0,0,279.28,361.65Z" transform="translate(-36.62 -27.5)"/><path class="cls-20" d="M272.11,358.05h72.54a1.73,1.73,0,0,0,1.69-2.33L332.88,303.4a3.18,3.18,0,0,0-2.89-2.33H257.45a1.73,1.73,0,0,0-1.69,2.33l13.46,52.32A3.18,3.18,0,0,0,272.11,358.05Z" transform="translate(-36.62 -27.5)"/><line class="cls-6" x1="223.39" y1="275.43" x2="222.02" y2="275.43"/><line class="cls-6" x1="234.02" y1="275.43" x2="226.93" y2="275.43"/><path class="cls-6" d="M342.9,351.44,331,305.26a3.19,3.19,0,0,0-2.89-2.33h-55.9" transform="translate(-36.62 -27.5)"/><line class="cls-6" x1="307.32" y1="327.96" x2="307.02" y2="326.81"/><path class="cls-3" d="M293.94,330.88a8.13,8.13,0,0,0,.25,1.25c.93,3.15,3.88,5.07,6.59,4.27s4.16-4,3.24-7.16-3.89-5.06-6.6-4.26a5,5,0,0,0-.92.39A5.57,5.57,0,0,1,293.94,330.88Z" transform="translate(-36.62 -27.5)"/><path d="M326,232.81c-6.28-.68-9.71-6.65-13.48-7.58a42.09,42.09,0,0,1-6.19-2s-1.3-4.55-3.24-3-4.51,35.49-2,34.43,2.51,2.94,2.51,2.94l23.32,20.54,19.54-34.6S332.24,233.5,326,232.81Z" transform="translate(-36.62 -27.5)"/><polyline class="cls-6" points="99.39 84.38 99.39 83.88 99.89 83.88"/><line class="cls-21" x1="102.83" y1="83.88" x2="187.43" y2="83.88"/><polyline class="cls-6" points="188.89 83.88 189.39 83.88 189.39 84.38"/><line class="cls-22" x1="189.39" y1="87.38" x2="189.39" y2="141.88"/><polyline class="cls-6" points="189.39 143.38 189.39 143.88 188.89 143.88"/><line class="cls-21" x1="185.96" y1="143.88" x2="101.36" y2="143.88"/><polyline class="cls-6" points="99.89 143.88 99.39 143.88 99.39 143.38"/><line class="cls-22" x1="99.39" y1="140.38" x2="99.39" y2="85.88"/><circle class="cls-1" cx="144.39" cy="83.88" r="1.48"/><circle class="cls-1" cx="99.39" cy="113.88" r="1.48"/><circle class="cls-1" cx="144.39" cy="143.88" r="1.48"/><circle class="cls-1" cx="189.39" cy="113.88" r="1.48"/><rect class="cls-1" x="187.67" y="142.16" width="3.45" height="3.45"/><rect class="cls-1" x="187.67" y="82.16" width="3.45" height="3.45"/><rect class="cls-1" x="97.67" y="142.16" width="3.45" height="3.45"/><rect class="cls-1" x="97.67" y="82.16" width="3.45" height="3.45"/><rect class="cls-3" x="105.37" y="89.19" width="78.33" height="49.77"/><polygon class="cls-1" points="183.69 124.25 174.99 132.96 151.43 109.41 141.52 119.32 125.71 103.51 105.36 123.86 105.36 138.96 183.69 138.96 183.69 124.25"/><circle class="cls-1" cx="167.47" cy="103.31" r="5.53"/><path class="cls-10" d="M330.09,242s-5.94,11.17-6.7,28.26" transform="translate(-36.62 -27.5)"/><path class="cls-10" d="M312.49,249.72s1.79,9.5,7,16.38" transform="translate(-36.62 -27.5)"/><path class="cls-10" d="M337.15,288.92s9,29.55,28.56,38.26" transform="translate(-36.62 -27.5)"/><path d="M360.81,235.41s-.85,6.45-7.05,6.9A27.47,27.47,0,0,0,351,237.7,86.58,86.58,0,0,1,360.81,235.41Z" transform="translate(-36.62 -27.5)"/><path class="cls-3" d="M374,235.86s10.37,1.27,14.71-12.65.93-24.41-16.24-29.46c-9.51-2.8-19-.55-22.46,6.65-2.94,6.18-1.55,11.31-2.23,13.38-.76,2.32-7.77,4.29-7.77,5.88,0,1.31,3.89,3.55,3.89,3.55l-1.15,3.46,1.08.57s-2,7.79-1.08,10.54c.67,2,18.24,2.83,19.61-2.14" transform="translate(-36.62 -27.5)"/><path class="cls-6" d="M350.12,205.46s3.43.86,4.37,2.66" transform="translate(-36.62 -27.5)"/><path d="M350.73,213.36c-.15,1,.08,1.88.51,1.94s.91-.7,1.06-1.71-.09-1.87-.52-1.93S350.87,212.36,350.73,213.36Z" transform="translate(-36.62 -27.5)"/><path class="cls-6" d="M343.85,227.24s5.58,2.14,7.66.85" transform="translate(-36.62 -27.5)"/><path class="cls-6" d="M345.81,212.57c-.41,2.24.09,4.2,1.12,4.39s2.2-1.46,2.62-3.7-.09-4.2-1.12-4.39S346.23,210.34,345.81,212.57Z" transform="translate(-36.62 -27.5)"/><path d="M389.18,201.18a16.51,16.51,0,0,0-6.51-10.06A30.58,30.58,0,0,0,370.09,186s3.32,1.45,4.58,3.35c0,0-8.58-6.43-18.75-2.2S347,202.34,347,202.34l1.49-2.88s-.17,3.43,1.63,4.69a22.3,22.3,0,0,1,2.18-4.8s2.7,8.11,10.14,10.86a5.9,5.9,0,0,1-.12-4s4.11,8.91,2.91,13.26l1.32,2.28s4.73-4.79,8.57-.8c2.21,2.3-4.23,11-5.14,11l3.89,5.71s9.71,1.39,15.31-9.14,4.23-15,4.23-15a14,14,0,0,1,2.06,4S397.07,206.21,389.18,201.18Z" transform="translate(-36.62 -27.5)"/><path class="cls-3" d="M366.32,222.78s3-10.08,9.38-6.53,1.82,8.93-.46,11-4,5.83-5.49,5.83-1.83-1.83-1.83-1.83" transform="translate(-36.62 -27.5)"/><line class="cls-6" x1="312.93" y1="185.76" x2="330.73" y2="189.46"/></svg>