<svg id="Character_1" data-name="Character 1" xmlns="http://www.w3.org/2000/svg" xmlns:xlink="http://www.w3.org/1999/xlink" viewBox="0 0 462.86 395.7"><defs><style>.cls-1,.cls-11,.cls-17,.cls-2,.cls-21{fill:#fff;}.cls-14,.cls-16,.cls-17,.cls-18,.cls-19,.cls-2,.cls-20,.cls-9{stroke:#000;}.cls-14,.cls-2,.cls-6{stroke-miterlimit:10;}.cls-3{fill:#5844bc;}.cls-4{opacity:0.7;}.cls-5,.cls-8{opacity:0.2;}.cls-6{stroke:#fff;}.cls-7,.cls-9{fill:#8e85c7;}.cls-16,.cls-17,.cls-18,.cls-19,.cls-20,.cls-9{stroke-linecap:round;stroke-linejoin:round;}.cls-10{clip-path:url(#clip-path);}.cls-11,.cls-12{opacity:0.5;}.cls-13,.cls-14,.cls-16{fill:none;}.cls-15{clip-path:url(#clip-path-2);}.cls-18{fill:#666160;}.cls-19{fill:#8e8a89;}.cls-20{fill:#b9b6b6;}.cls-21{opacity:0.1;}.cls-22{clip-path:url(#clip-path-3);}</style><clipPath id="clip-path" transform="translate(503.84 -42.95)"><path class="cls-1" d="M-175,379.42l.12-44.2c.48-1.79.86-8.35,1.89-12.92,1.74-7.66-5.1-16.9-5.58-17.2-1.92-1.19-6-1.17-6-1.17s-4-4.57-7.56-6a17.88,17.88,0,0,0-7.66-1,36.61,36.61,0,0,0-9.1-5.51,7.48,7.48,0,0,0-7.66,1.44l-4.47,7a5.21,5.21,0,0,0,.61,6.52c2.14,2.11,4.88,1.12,6.26,1.12,1.91,0,2.63-2.16,2.63-2.16s.47,11.26,0,12.69h0c-.49,1.43-4.07,4.78-4.07,4.78l-12-15.83a115.34,115.34,0,0,1-10.78-17.78,8.19,8.19,0,0,0-1.34-2.09c-2.1-2.38-6.6-3.07-7.76,1.32a8.58,8.58,0,0,0,.19,4.24c5,14.78,11.38,25.95,17.19,37.59,3.45,6.91,2.17,6.83,3.89,10-.2.14-.11.4-.32.53-.85,3.36-1.43,6.73-2.28,10.09a46,46,0,0,0-3.83-12.18,27.49,27.49,0,0,0,.52-7.12,9.33,9.33,0,0,0-3-6.31,6.2,6.2,0,0,0-3.49-1.36A3.64,3.64,0,0,0-242.4,327a36.16,36.16,0,0,1-1,5.41,52.6,52.6,0,0,1-2.76,6.8c0,4.46,2.76,3.73,4.78,21.67,1.56,14,19.56,23.21,29.36,33.3L-201.59,427a202.67,202.67,0,0,0,34.85-18.3Z"/></clipPath><clipPath id="clip-path-2" transform="translate(503.84 -42.95)"><path class="cls-1" d="M-285.5,327.36c-.43-2-3.24-1.69-3.24-1.69-9.45.56-10.73,15.37-10.73,15.37l-3.38,10.14-1.06-15.26.11-19.67s2.86-18.82,1.58-21.77a4.29,4.29,0,0,0-3.9-2.86c-5.5-1.38-5.82,6.55-5.82,6.55l-4.65,16.18-1.9,17.45-1.58-.84s-.75-18.52-.43-18.83,2.22-12.79,2.22-12.79,1-2.33,2.33-5.29a6.43,6.43,0,0,0,0-5.29c-2.23-4.54-6.87-2.42-7.83,0a70.32,70.32,0,0,1-3.81,7.2l-5.29,14.48c.2,3.28-1.68,19.46-1.68,19.46l-1.91-.87-3.07-9.5,2.33-9.73s5.08-5.59,4.23-8.88-5.18-2.32-5.18-2.32L-346.83,309h-2.54l-6,7.61a48.65,48.65,0,0,0-2.45,15.2,48.45,48.45,0,0,0,1.07,10.09l1.38,6.43v41.56s-4.12,6.66-4.12,7.29c0,.29-1.7,5.54-4.07,12.09,10.37,6.1,19.3,10.82,25.62,13.31,3,1.18,6,2.3,9,3.37,3.8-10.67,8.24-22.08,10.69-24.75,4.86-5.28,14.37-15.44,14.37-15.44s10.82-17.37,12.08-23.14c1.05-4.74,3.59-13.35,4.47-16.3a5.77,5.77,0,0,0,.24-2.07c-.07-1.56-.22-4.59-.22-7.26C-287.34,333.14-285.08,329.33-285.5,327.36Z"/></clipPath><clipPath id="clip-path-3" transform="translate(503.84 -42.95)"><path class="cls-2" d="M-72.67,308.06a71.82,71.82,0,0,1-1,11.86c-2.9,17.31-12,29.93-22.76,29.93a13.61,13.61,0,0,1-2.86-.3c-11.75-2.49-20.87-20.11-20.87-41.49,0-23.08,10.63-31.25,23.73-31.25S-72.67,285-72.67,308.06Z"/></clipPath></defs><path class="cls-3" d="M-41,236.77a119.56,119.56,0,0,1-3.33,28.48c-.75,3.06-1.65,6.11-2.68,9.11-.3.86-.6,1.72-.92,2.57-.26.7-.53,1.4-.8,2.09l-.23.57c-.29.72-.58,1.44-.89,2.15l-.15.35c-.3.7-.61,1.4-.92,2.09l-.42.91c-.28.62-.57,1.23-.87,1.84s-.63,1.29-1,1.93c-.12.23-.23.46-.35.68l-.85,1.65-.69,1.27q-1.59,2.94-3.33,5.8c-.47.78-1,1.56-1.44,2.33-.11.19-.23.38-.35.57q-.84,1.32-1.71,2.64c-.47.71-.94,1.42-1.43,2.13l-1.27,1.85-.28.39c-.44.64-.9,1.28-1.35,1.92-.56.79-1.13,1.56-1.7,2.34-.12.16-.23.32-.35.47-.65.89-1.32,1.77-2,2.64-.4.52-.8,1-1.21,1.56-.72.95-1.46,1.89-2.21,2.83s-1.43,1.79-2.16,2.68l-.24.29c-.72.89-1.44,1.77-2.18,2.65-.21.27-.44.54-.66.8-.67.81-1.35,1.62-2,2.42q-2.94,3.48-5.93,6.9-6.07,7-12.41,13.89c-3.51,3.8-7.07,7.58-10.7,11.29-17.42,17.89-36.28,34.58-56.79,47.88-2.55,1.65-5.12,3.26-7.72,4.79l-2.85,1.67-.49.28c-1,.56-2,1.11-2.95,1.65s-2,1.11-3,1.64l-1.38.72q-3,1.56-6,3c-1.09.52-2.18,1-3.28,1.51s-2,.91-3.05,1.35l-1.25.53c-.93.4-1.87.78-2.81,1.16q-2.72,1.1-5.48,2.09l-2.12.76-1.2.41-2,.65-1.72.55-.06,0q-1.69.53-3.39,1c-1.79.52-3.58,1-5.38,1.46-1.19.3-2.38.58-3.58.85s-2.26.5-3.4.74l-.27.05c-1.18.24-2.37.47-3.56.68l-1.82.31-1.84.29c-.55.09-1.11.17-1.66.24l-2,.28a154.51,154.51,0,0,1-21.37,1.21l-1.28,0a176.84,176.84,0,0,1-19.35-1.45l-1.41-.19-2.43-.34-1.89-.3c-2.67-.42-5.32-.9-8-1.44-.59-.11-1.17-.23-1.75-.36-1.78-.37-3.57-.77-5.34-1.19-1.19-.28-2.37-.57-3.55-.87l-1.77-.46-1.77-.47c-2.35-.63-4.69-1.31-7-2q-4.06-1.23-8.08-2.61l-2.92-1c-3-1.07-6-2.2-9-3.37l-1.63-.66-1.31-.57-.88-.4c-1.94-.88-4.05-1.91-6.32-3.07l-1.16-.6c-1.39-.73-2.84-1.5-4.33-2.32-3.13-1.72-6.48-3.62-10-5.69-40-23.54-101.26-67.72-115.64-84.47-.73-.85-1.44-1.71-2.15-2.58-.55-.68-1.1-1.37-1.63-2.07s-1-1.26-1.44-1.91-.83-1.13-1.23-1.71-.76-1.07-1.13-1.61a.83.83,0,0,0-.08-.12c-.45-.67-.9-1.34-1.34-2s-.84-1.3-1.24-2c-.2-.31-.39-.63-.58-.95q-.68-1.11-1.32-2.22v0c-.46-.82-.92-1.64-1.37-2.47-.78-1.45-1.53-2.91-2.23-4.39l-.54-1.15a91.47,91.47,0,0,1-3.74-9.29c-.39-1.1-.74-2.21-1.08-3.32-.43-1.43-.82-2.87-1.18-4.31-.07-.29-.14-.57-.2-.86-.18-.75-.35-1.51-.5-2.27-.23-1.06-.42-2.12-.6-3.19,0-.26-.09-.52-.12-.78-.09-.55-.17-1.1-.24-1.66s-.17-1.33-.24-2c0-.23-.05-.45-.07-.67-.06-.57-.1-1.14-.15-1.7a.61.61,0,0,0,0-.14c-.05-.68-.09-1.35-.11-2a1.28,1.28,0,0,1,0-.19q0-1.06-.06-2.13c0-.26,0-.53,0-.79V263c0-1,.05-2.09.11-3.13,0-.68.09-1.36.15-2,.12-1.34.28-2.68.48-4,.1-.68.21-1.36.34-2q.36-2,.87-4a69.72,69.72,0,0,1,3.45-10.25,72.21,72.21,0,0,1,3.59-7.34c.1-.2.22-.41.34-.61,5.39-9.49,12.72-17.91,21-25.71.88-.84,1.77-1.66,2.68-2.47s1.91-1.72,2.88-2.58l.18-.16q2.32-2,4.71-4c2.45-2.05,4.94-4.06,7.45-6.06l.25-.2c2.15-1.7,4.32-3.39,6.48-5.07,3.4-2.63,6.81-5.25,10.15-7.86l2.64-2.07c1-.76,1.92-1.52,2.87-2.28a213.69,213.69,0,0,0,23.86-22.64q2.08-2.28,4.14-4.59c.65-.74,1.3-1.47,1.94-2.21,9.13-10.4,17.62-20.92,27.07-30.85q3.38-3.56,6.92-7c2-1.91,4-3.79,6.14-5.63,2.41-2.12,4.89-4.19,7.49-6.19,3.55-2.76,7.29-5.41,11.29-7.94,1-.63,1.95-1.24,2.93-1.84,99.71-62,173.1-41.74,222.06,0q5.53,4.69,10.66,9.78c2.08,2,4.09,4.09,6,6.19.22.22.42.45.63.69q2.06,2.19,4,4.41l1.15,1.32c.57.66,1.14,1.32,1.7,2s1.37,1.63,2,2.45l1.27,1.56c2.73,3.36,5.33,6.77,7.81,10.2.5.68,1,1.37,1.48,2.06,3.42,4.8,6.6,9.65,9.55,14.47l1.25,2.06q.63,1,1.23,2.07l1.19,2.05c.4.69.79,1.37,1.17,2.05l1.14,2c.39.68.76,1.36,1.11,2l1.09,2c.36.67.71,1.35,1.06,2l1,2c.34.67.67,1.34,1,2q2,4,3.73,7.82c.58,1.3,1.16,2.59,1.71,3.86,2.49,5.72,4.62,11.19,6.36,16.28a.19.19,0,0,1,0,.07c.17.49.33,1,.49,1.45s.33,1,.49,1.48.25.75.36,1.13c.18.56.36,1.12.53,1.69s.37,1.22.54,1.83c.33,1.12.65,2.24.95,3.37.26,1,.51,1.9.75,2.86.05.18.1.35.14.53s.07.3.11.45c.14.56.28,1.12.41,1.69.36,1.49.69,3,1,4.49.17.82.34,1.63.49,2.45l.09.46q.22,1.16.42,2.31c.18,1,.35,2.07.5,3.1.13.78.24,1.57.35,2.36,0,.11,0,.23.05.35.07.52.14,1,.2,1.58s.11.88.16,1.31c.18,1.59.34,3.17.47,4.76l.09,1.08.12,1.81c0,.67.08,1.34.11,2,0,.52,0,1,.07,1.55,0,.76,0,1.53.06,2.29S-41,235.88-41,236.77Z" transform="translate(503.84 -42.95)"/><g class="cls-4"><path class="cls-1" d="M-41,236.77a119.56,119.56,0,0,1-3.33,28.48c-.75,3.06-1.65,6.11-2.68,9.11-.3.86-.6,1.72-.92,2.57-.26.7-.53,1.4-.8,2.09l-.23.57c-.29.72-.58,1.44-.89,2.15l-.15.35c-.3.7-.61,1.4-.92,2.09l-.42.91c-.28.62-.57,1.23-.87,1.84s-.63,1.29-1,1.93c-.12.23-.23.46-.35.68l-.85,1.65-.69,1.27q-1.59,2.94-3.33,5.8c-.47.78-1,1.56-1.44,2.33-.11.19-.23.38-.35.57q-.84,1.32-1.71,2.64c-.47.71-.94,1.42-1.43,2.13l-1.27,1.85-.28.39c-.44.64-.9,1.28-1.35,1.92-.56.79-1.13,1.56-1.7,2.34-.12.16-.23.32-.35.47-.65.89-1.32,1.77-2,2.64-.4.52-.8,1-1.21,1.56-.72.95-1.46,1.89-2.21,2.83s-1.43,1.79-2.16,2.68l-.24.29c-.72.89-1.44,1.77-2.18,2.65-.21.27-.44.54-.66.8-.67.81-1.35,1.62-2,2.42q-2.94,3.48-5.93,6.9-6.07,7-12.41,13.89c-3.51,3.8-7.07,7.58-10.7,11.29-17.42,17.89-36.28,34.58-56.79,47.88-2.55,1.65-5.12,3.26-7.72,4.79l-2.85,1.67-.49.28c-1,.56-2,1.11-2.95,1.65s-2,1.11-3,1.64l-1.38.72q-3,1.56-6,3c-1.09.52-2.18,1-3.28,1.51s-2,.91-3.05,1.35l-1.25.53c-.93.4-1.87.78-2.81,1.16q-2.72,1.1-5.48,2.09l-2.12.76-1.2.41-2,.65-1.72.55-.06,0q-1.69.53-3.39,1c-1.79.52-3.58,1-5.38,1.46-1.19.3-2.38.58-3.58.85s-2.26.5-3.4.74l-.27.05c-1.18.24-2.37.47-3.56.68l-1.82.31-1.84.29c-.55.09-1.11.17-1.66.24l-2,.28a154.51,154.51,0,0,1-21.37,1.21l-1.28,0a176.84,176.84,0,0,1-19.35-1.45l-1.41-.19-2.43-.34-1.89-.3c-2.67-.42-5.32-.9-8-1.44-.59-.11-1.17-.23-1.75-.36-1.78-.37-3.57-.77-5.34-1.19-1.19-.28-2.37-.57-3.55-.87l-1.77-.46-1.77-.47c-2.35-.63-4.69-1.31-7-2q-4.06-1.23-8.08-2.61l-2.92-1c-3-1.07-6-2.2-9-3.37l-1.63-.66-1.31-.57-.88-.4c-1.94-.88-4.05-1.91-6.32-3.07l-1.16-.6c-1.39-.73-2.84-1.5-4.33-2.32-3.13-1.72-6.48-3.62-10-5.69-40-23.54-101.26-67.72-115.64-84.47-.73-.85-1.44-1.71-2.15-2.58-.55-.68-1.1-1.37-1.63-2.07s-1-1.26-1.44-1.91-.83-1.13-1.23-1.71-.76-1.07-1.13-1.61a.83.83,0,0,0-.08-.12c-.45-.67-.9-1.34-1.34-2s-.84-1.3-1.24-2c-.2-.31-.39-.63-.58-.95q-.68-1.11-1.32-2.22v0c-.46-.82-.92-1.64-1.37-2.47-.78-1.45-1.53-2.91-2.23-4.39l-.54-1.15a91.47,91.47,0,0,1-3.74-9.29c-.39-1.1-.74-2.21-1.08-3.32-.43-1.43-.82-2.87-1.18-4.31-.07-.29-.14-.57-.2-.86-.18-.75-.35-1.51-.5-2.27-.23-1.06-.43-2.12-.6-3.19,0-.26-.09-.52-.12-.78-.09-.55-.17-1.1-.24-1.66s-.17-1.33-.24-2c0-.23-.05-.45-.07-.67-.06-.57-.1-1.14-.15-1.7a.61.61,0,0,0,0-.14c-.05-.68-.09-1.35-.11-2a1.28,1.28,0,0,1,0-.19q0-1.06-.06-2.13c0-1.73,0-3.45.11-5.17,0-.68.09-1.36.15-2,.12-1.34.28-2.68.48-4,.1-.68.21-1.36.34-2q.36-2,.87-4a69.72,69.72,0,0,1,3.45-10.25,72.21,72.21,0,0,1,3.59-7.34c.1-.2.22-.41.34-.61,5.39-9.49,12.72-17.91,21-25.71l1.42-1.33,1.26-1.14c.95-.87,1.91-1.72,2.88-2.58l.18-.16q2.32-2,4.71-4c2.45-2.05,4.94-4.06,7.45-6.06l.25-.2c2.15-1.7,4.32-3.39,6.48-5.07l3.26-2.52c2.31-1.78,4.62-3.56,6.89-5.34l2.64-2.07c1-.76,1.92-1.52,2.87-2.28a213.69,213.69,0,0,0,23.86-22.64q2.08-2.28,4.14-4.59c.65-.74,1.3-1.47,1.94-2.21,9.13-10.4,17.62-20.92,27.07-30.85q3.38-3.56,6.92-7c2-1.91,4-3.79,6.14-5.63,2.41-2.12,4.89-4.19,7.49-6.19,3.55-2.76,7.29-5.41,11.29-7.94,1-.63,1.95-1.24,2.93-1.84,99.71-62,173.1-41.74,222.06,0q5.53,4.69,10.66,9.78c2.08,2,4.09,4.09,6,6.19.22.22.42.45.63.69q2.06,2.19,4,4.41l1.15,1.32c.57.66,1.14,1.32,1.7,2s1.37,1.63,2,2.45l1.27,1.56c2.73,3.36,5.33,6.77,7.81,10.2.5.68,1,1.37,1.48,2.06,3.42,4.8,6.6,9.65,9.55,14.47l1.25,2.06q.63,1,1.23,2.07l1.19,2.05c.4.69.79,1.37,1.17,2.05l1.14,2c.39.68.76,1.36,1.11,2l1.09,2c.36.67.71,1.35,1.06,2l1,2c.34.67.67,1.34,1,2q2,4,3.73,7.82c.58,1.3,1.16,2.59,1.71,3.86,2.49,5.72,4.62,11.19,6.36,16.28a.19.19,0,0,1,0,.07c.17.49.33,1,.49,1.45s.33,1,.49,1.48.25.75.36,1.13c.18.56.36,1.12.53,1.69s.37,1.22.54,1.83c.33,1.12.65,2.24.95,3.37.26,1,.51,1.9.75,2.86.05.18.1.35.14.53s.07.3.11.45c.14.56.28,1.12.41,1.69.36,1.49.69,3,1,4.49.17.82.34,1.63.49,2.45l.09.46q.22,1.16.42,2.31c.18,1,.35,2.07.5,3.1.13.78.24,1.57.35,2.36,0,.11,0,.23.05.35.07.52.14,1,.2,1.58s.11.88.16,1.31c.18,1.59.34,3.17.47,4.76l.09,1.08.12,1.81c0,.67.08,1.34.11,2,0,.52,0,1,.07,1.55,0,.76,0,1.53.06,2.29S-41,235.88-41,236.77Z" transform="translate(503.84 -42.95)"/></g><path class="cls-5" d="M-490.56,253.2c-.2-.13-.15-.22,0,0Z" transform="translate(503.84 -42.95)"/><path class="cls-5" d="M-397,244.38a18.32,18.32,0,0,1-12.57,14.47l-2.48.81c-8.92,12.63-24.56,18-37.89,10.19l-3.9-2.29-10.92-13-.13,0c-3.46.72-7.37.19-9.93-2.25a3.57,3.57,0,0,1-5.07,2.3,3.57,3.57,0,0,1-.44-5.55c-2.2,1.94-5.6,1-7.72-1.07a66.7,66.7,0,0,1,1.95-17.29,69.72,69.72,0,0,1,3.45-10.25,72.21,72.21,0,0,1,3.59-7.34c.1-.2.22-.41.34-.61a87.87,87.87,0,0,1,6.65-10l1.26-1.14c.95-.87,1.91-1.72,2.88-2.58l.18-.16q2.32-2,4.71-4c2.45-2.05,4.94-4.06,7.45-6.06l.25-.2c2.15-1.7,4.32-3.39,6.48-5.07l3.26-2.52a8.94,8.94,0,0,1,1.92.45c2.67.93,3.13,3.38,5,5.06,2.46,2.25,4.82-1.53,8.61-1.41,11.65.36,7.13,12.31,12.82,10.81,24.57-6.48,20.44,24.95,9.76,31.85C-401.24,232.75-395.81,236.2-397,244.38Z" transform="translate(503.84 -42.95)"/><ellipse class="cls-2" cx="53.98" cy="190.38" rx="41.44" ry="40.93"/><ellipse class="cls-6" cx="53.98" cy="188.73" rx="37.78" ry="37.32"/><path class="cls-7" d="M-490.47,246.38c-2.37,1.48-3.06,6.45-1.18,8.61s5.46.49,6.19-2.87a1.12,1.12,0,0,0,2,.28,2.3,2.3,0,0,0,.14-2.1c-.18-.15-.11-.26,0,0,1.22,1,3.32-.09,3.61-2.16-.89,5.5,4.11,10.3,7.79,7.5-1.09,2.34.34,5.41,2.24,6s3.94-.53,5.76-1.77,3.68-2.67,5.67-2.76c1.74-.08,3.35.9,5,1.48,5.26,1.83,11.42-.6,15.44-6.11,2.66,4.55,9.21,2.87,11-2.79.36,2.65,2.18,4.67,4.2,4.69s4.07-1.94,4.77-4.57v0c.05,2.51,2.29,3.74,3.89,2.13a9.36,9.36,0,0,0,2.3-8.87c2.73-.11,5.37-3.27,5.78-6.93s-1.43-7.34-4.06-8.06c4.51-1.87,8.05-8,8.22-14.29s-3.06-12.09-7.49-13.55a4.72,4.72,0,0,0-5.09,1.06c-.52-3.57-2.14-6.76-4.53-8.36-3.8-2.57-9.09-.81-11.92,4a9.41,9.41,0,0,0,.22-8.38c-1.26-2.33-3.76-3.27-5.88-2.17-.45-3.83-3.41-6.55-6.3-5.81s-5.22,4.84-5,8.71c-.27-3.12-4-3.89-5.28-1.27.11.24-.06.1,0,0-1.84-3.86-5.58-5.84-9-4.71-3.69,1.21-6.79,5.84-7.27,10.9a6.51,6.51,0,0,0-9,.25c-2.73,2.46-4.31,7.14-3.83,11.32-2.87-2.83-7.71-1.28-9.68,3.1s-.61,10.58,2.72,12.42c-2.3.35-4.31,3.39-4.31,6.47s2,5.72,4.32,5.64c-2.32.2-4.5,2.94-4.84,6.05S-492.69,245.7-490.47,246.38Z" transform="translate(503.84 -42.95)"/><g class="cls-8"><path class="cls-1" d="M-452.37,232a4.33,4.33,0,0,0-4.05-1,4.81,4.81,0,0,0-3,3.72c-.32,1.81.52,3.81,1.9,4.15,1.69.42,3.42-1.47,5.14-1.26a11.8,11.8,0,0,1,1.77.58c2.47.69,5-1.53,7.06-3.61a9.58,9.58,0,0,0,2-2.49,4,4,0,0,0,.27-3.29c-.61-1.35-2.1-1.46-3.36-1.2a13.44,13.44,0,0,0-7,4.1c.07-.51.14-1,.22-1.52Z" transform="translate(503.84 -42.95)"/><path class="cls-1" d="M-416.25,227.11a5.69,5.69,0,0,0-2.14-1.32,2.06,2.06,0,0,0-2.26,1,3.29,3.29,0,0,0,.55,3.76,5.26,5.26,0,0,0,3.14,1.17c1.14.15,2.58.12,3.17-1.21a2.88,2.88,0,0,0-.48-2.88,4.93,4.93,0,0,0-2.22-1.27Z" transform="translate(503.84 -42.95)"/><path class="cls-1" d="M-472.79,206.68a11,11,0,0,0-4.74,7.32c-.18.94-.18,2.12.45,2.58a1.69,1.69,0,0,0,1.56-.05l6.64-2.4a10,10,0,0,0-3,2.19,5,5,0,0,0-1.2,3.92,2.88,2.88,0,0,0,3,2.44,6.44,6.44,0,0,0,3.67-2.08,6.75,6.75,0,0,0,2.38-4.45c0-1.8-1.7-3.37-2.81-2.15a24.61,24.61,0,0,0,7.17-4.54,8.59,8.59,0,0,0,2.09-2.58,4.38,4.38,0,0,0,.27-3.44c-2.16-5.09-5.15,2.75-6.55,3.52C-466.52,208.42-469.42,204.7-472.79,206.68Z" transform="translate(503.84 -42.95)"/><path class="cls-1" d="M-483.47,229.63a3.17,3.17,0,0,0,.53,2.88,1.3,1.3,0,0,0,2.12-.68,8.06,8.06,0,0,0-4,3.09c-1,1.64-.77,4.39.68,4.91.91.33,1.9-.3,2.76-1a56.84,56.84,0,0,0,6.93-6.15,3.16,3.16,0,0,0,2.48,4.14c1.64.08,3.2-1.14,4.62-2.32,1.76-1.45,3.78-3.61,3.37-6.09a3,3,0,0,0-4.23-2.26c-1.7.75-3,2.56-4.21,4.3,1-1.78-.31-4.25-1.93-4.43s-3.16,1.14-4.17,2.68c1.86-1.4,2.33-4.77-.12-5C-480.26,223.59-483,227.91-483.47,229.63Z" transform="translate(503.84 -42.95)"/><path class="cls-1" d="M-432.94,219c-1.37-.58-3.13.68-3.54,2.53s.63,3.87,2.09,4.06a4.4,4.4,0,0,0-2.83,2,3.49,3.49,0,0,0-.63,2.14,2,2,0,0,0,1.94,1.8,5.36,5.36,0,0,0,2.59-1.08,4.38,4.38,0,0,0-2.55,1.09,2.55,2.55,0,0,0-.43,3c.52.64,1.39.47,2.11.17a11.31,11.31,0,0,0,4.38-3.37,3.53,3.53,0,0,0,3.59,1.73,3.48,3.48,0,0,0,2.14-3.9,2.52,2.52,0,0,0-2.2-1.94,5.77,5.77,0,0,0-2.88.75,7.32,7.32,0,0,0,2.36-3.38c.38-1.44-.34-3.29-1.5-3.11s-2,2.52-3.07,3.4C-432.61,223.49-430.17,220.18-432.94,219Z" transform="translate(503.84 -42.95)"/><path class="cls-1" d="M-456.34,213.54c-1.51,1.37-2.07,3.93-2,6.21.07,2.52.92,5.16,2.72,6.06,2.36,1.18,5.39-1.53,5.89-4.83a8.1,8.1,0,0,0-3.41-7.92A2.87,2.87,0,0,0-456.34,213.54Z" transform="translate(503.84 -42.95)"/><path class="cls-1" d="M-439.62,209.8l.6.64a2.62,2.62,0,0,0-4.34-.17,4.75,4.75,0,0,0-.12,5.56,2.71,2.71,0,0,0,4.36-.66,4,4,0,0,0,5.23-1.57c1.25-1.93,1-5.17-.6-6.26s-4.17.85-4,3.25l-.7-1Z" transform="translate(503.84 -42.95)"/><path class="cls-1" d="M-421.29,212.46a13.73,13.73,0,0,0-2.94,5.27c-.47,2.07.2,4.62,1.8,5s3.12-1.35,4.06-3.15a8.06,8.06,0,0,0,1.08-5.4c-.44-1.77-2.45-2.71-3.49-1.26Z" transform="translate(503.84 -42.95)"/><path class="cls-1" d="M-447.58,201.77a2.31,2.31,0,0,0-3.73-1.08,5.12,5.12,0,0,0-1.25,5,3.93,3.93,0,0,0,3.35,2.91,3.7,3.7,0,0,0,3.61-4.09,3.2,3.2,0,0,0,3.43,1.46,9,9,0,0,0,3.63-1.94c1.54-1.21,3.19-3,3.07-5.25a3.2,3.2,0,0,0-2.8-3.12,5.13,5.13,0,0,0-3.86,2.05c-.85.95-1.56,2.12-2.48,3s-2.15,1.35-3.1.75Z" transform="translate(503.84 -42.95)"/></g><rect class="cls-9" x="126.82" y="220.76" width="230.67" height="97.15"/><rect class="cls-2" x="131.64" y="226.63" width="21.7" height="12.01"/><rect class="cls-2" x="317.97" y="285.2" width="34.18" height="12.01"/><rect class="cls-2" x="331.05" y="241.64" width="21.1" height="12.01"/><rect class="cls-2" x="131.64" y="270.38" width="21.7" height="12.01"/><rect class="cls-2" x="131.64" y="255.92" width="17.57" height="12.01"/><rect class="cls-2" x="131.64" y="241.27" width="12.01" height="12.01"/><rect class="cls-2" x="146.98" y="241.27" width="12.01" height="12.01"/><rect class="cls-2" x="162.31" y="241.27" width="12.01" height="12.01"/><rect class="cls-2" x="177.64" y="241.27" width="12.01" height="12.01"/><rect class="cls-2" x="192.98" y="241.27" width="12.01" height="12.01"/><rect class="cls-2" x="208.31" y="241.27" width="12.01" height="12.01"/><rect class="cls-2" x="223.64" y="241.27" width="12.01" height="12.01"/><rect class="cls-2" x="238.98" y="241.27" width="12.01" height="12.01"/><rect class="cls-2" x="254.31" y="241.27" width="12.01" height="12.01"/><rect class="cls-2" x="269.64" y="241.27" width="12.01" height="12.01"/><rect class="cls-2" x="284.98" y="241.27" width="12.01" height="12.01"/><rect class="cls-2" x="300.31" y="241.27" width="12.01" height="12.01"/><rect class="cls-2" x="315.65" y="241.27" width="12.01" height="12.01"/><rect class="cls-2" x="131.64" y="300.01" width="12.01" height="12.01"/><rect class="cls-2" x="146.98" y="300.01" width="12.01" height="12.01"/><rect class="cls-2" x="162.31" y="300.01" width="12.01" height="12.01"/><rect class="cls-2" x="177.64" y="300.01" width="14.66" height="12.01"/><rect class="cls-2" x="195.62" y="300.01" width="73.35" height="12.01"/><rect class="cls-2" x="293.63" y="300.01" width="12.01" height="12.01"/><rect class="cls-2" x="308.96" y="300.01" width="12.01" height="12.01"/><rect class="cls-2" x="324.32" y="300.01" width="12.01" height="12.01"/><rect class="cls-2" x="271.97" y="300.01" width="18.65" height="12.01"/><rect class="cls-2" x="340.14" y="300.01" width="12.01" height="12.01"/><rect class="cls-2" x="152.62" y="255.92" width="12.01" height="12.01"/><rect class="cls-2" x="167.95" y="255.92" width="12.01" height="12.01"/><rect class="cls-2" x="183.29" y="255.92" width="12.01" height="12.01"/><rect class="cls-2" x="198.62" y="255.92" width="12.01" height="12.01"/><rect class="cls-2" x="213.95" y="255.92" width="12.01" height="12.01"/><rect class="cls-2" x="229.29" y="255.92" width="12.01" height="12.01"/><rect class="cls-2" x="244.62" y="255.92" width="12.01" height="12.01"/><rect class="cls-2" x="259.96" y="255.92" width="12.01" height="12.01"/><rect class="cls-2" x="275.29" y="255.92" width="12.01" height="12.01"/><rect class="cls-2" x="290.62" y="255.92" width="12.01" height="12.01"/><rect class="cls-2" x="305.96" y="255.92" width="12.01" height="12.01"/><rect class="cls-2" x="321.29" y="255.92" width="12.01" height="12.01"/><polygon class="cls-2" points="352.15 255.92 352.15 282.57 340.14 282.57 340.14 267.93 336.62 267.93 336.62 255.92 352.15 255.92"/><rect class="cls-2" x="156.14" y="270.56" width="12.01" height="12.01"/><rect class="cls-2" x="171.47" y="270.56" width="12.01" height="12.01"/><rect class="cls-2" x="186.8" y="270.56" width="12.01" height="12.01"/><rect class="cls-2" x="202.14" y="270.56" width="12.01" height="12.01"/><rect class="cls-2" x="217.47" y="270.56" width="12.01" height="12.01"/><rect class="cls-2" x="232.81" y="270.56" width="12.01" height="12.01"/><rect class="cls-2" x="248.14" y="270.56" width="12.01" height="12.01"/><rect class="cls-2" x="263.47" y="270.56" width="12.01" height="12.01"/><rect class="cls-2" x="278.81" y="270.56" width="12.01" height="12.01"/><rect class="cls-2" x="294.14" y="270.56" width="12.01" height="12.01"/><rect class="cls-2" x="309.47" y="270.56" width="12.01" height="12.01"/><rect class="cls-2" x="324.81" y="270.56" width="12.01" height="12.01"/><rect class="cls-2" x="149.62" y="285.2" width="12.01" height="12.01"/><rect class="cls-2" x="164.95" y="285.2" width="12.01" height="12.01"/><rect class="cls-2" x="180.29" y="285.2" width="12.01" height="12.01"/><rect class="cls-2" x="195.62" y="285.2" width="12.01" height="12.01"/><rect class="cls-2" x="210.95" y="285.2" width="12.01" height="12.01"/><rect class="cls-2" x="226.29" y="285.2" width="12.01" height="12.01"/><rect class="cls-2" x="241.62" y="285.2" width="12.01" height="12.01"/><rect class="cls-2" x="256.96" y="285.2" width="12.01" height="12.01"/><rect class="cls-2" x="272.29" y="285.2" width="12.01" height="12.01"/><rect class="cls-2" x="287.62" y="285.2" width="12.01" height="12.01"/><rect class="cls-2" x="302.96" y="285.2" width="12.01" height="12.01"/><rect class="cls-2" x="156.14" y="227.36" width="12.01" height="12.01"/><rect class="cls-2" x="171.47" y="227.36" width="12.01" height="12.01"/><rect class="cls-2" x="186.8" y="227.36" width="12.01" height="12.01"/><rect class="cls-2" x="202.14" y="227.36" width="12.01" height="12.01"/><rect class="cls-2" x="217.47" y="227.36" width="12.01" height="12.01"/><rect class="cls-2" x="232.81" y="227.36" width="12.01" height="12.01"/><rect class="cls-2" x="248.14" y="227.36" width="12.01" height="12.01"/><rect class="cls-2" x="263.47" y="227.36" width="12.01" height="12.01"/><rect class="cls-2" x="278.81" y="227.36" width="12.01" height="12.01"/><rect class="cls-2" x="294.14" y="227.36" width="12.01" height="12.01"/><rect class="cls-2" x="309.47" y="227.36" width="12.01" height="12.01"/><rect class="cls-2" x="324.81" y="227.36" width="12.01" height="12.01"/><rect class="cls-2" x="340.14" y="227.36" width="12.01" height="12.01"/><rect class="cls-2" x="131.64" y="285.2" width="14.55" height="12.01"/><polygon points="126.82 221.38 131.64 219.77 354.36 219.77 357.53 221.36 126.82 221.38"/><path class="cls-5" d="M-212.37,430.94l-4.69-28.25a23.07,23.07,0,0,0-6.35-11.06c-9.33-9-21.66-18.24-22.19-30-.81-18-3.62-17.49-3.32-21.94a54.06,54.06,0,0,0,3.21-6.6,38.47,38.47,0,0,0,1.36-5.34,3.64,3.64,0,0,1,4-2.85,6.19,6.19,0,0,1,3.39,1.59,9.39,9.39,0,0,1,2.54,6.5,27.79,27.79,0,0,1-1,7.06,46.16,46.16,0,0,1,3,12.41c1.07-3.3,1.88-6.63,3-9.92.22-.12.14-.38.35-.5-1.51-3.24-.23-3.06-3.22-10.19-5-12-10.64-23.57-14.65-38.65a8.57,8.57,0,0,1,.09-4.24c1.45-4.31,5.89-3.32,7.83-.81a8.28,8.28,0,0,1,1.2,2.18,116.46,116.46,0,0,0,9.57,18.45l10.89,16.6s3.79-3.11,4.37-4.5h0c.57-1.4.85-12.67.85-12.67s-.86,2.11-2.77,2c-1.38-.1-4.18.7-6.17-1.54a5.21,5.21,0,0,1-.18-6.54l4.93-6.66a7.48,7.48,0,0,1,7.74-.93,36.82,36.82,0,0,1,8.71,6.1,17.81,17.81,0,0,1,7.58,1.46c3.49,1.68,7.15,6.5,7.15,6.5s4.07.25,5.9,1.58c.46.33,6.67,10,4.43,17.53-1.33,4.49-2.15,11-2.75,12.76l-3.05,44.09,6.15,29-13.15,7.33a94.44,94.44,0,0,1-15.13,6.77Z" transform="translate(503.84 -42.95)"/><path class="cls-1" d="M-175,379.42l.12-44.2c.48-1.79.86-8.35,1.89-12.92,1.74-7.66-5.1-16.9-5.58-17.2-1.92-1.19-6-1.17-6-1.17s-4-4.57-7.56-6a17.88,17.88,0,0,0-7.66-1,36.61,36.61,0,0,0-9.1-5.51,7.48,7.48,0,0,0-7.66,1.44l-4.47,7a5.21,5.21,0,0,0,.61,6.52c2.14,2.11,4.88,1.12,6.26,1.12,1.91,0,2.63-2.16,2.63-2.16s.47,11.26,0,12.69h0c-.49,1.43-4.07,4.78-4.07,4.78l-12-15.83a115.34,115.34,0,0,1-10.78-17.78,8.19,8.19,0,0,0-1.34-2.09c-2.1-2.38-6.6-3.07-7.76,1.32a8.58,8.58,0,0,0,.19,4.24c5,14.78,11.38,25.95,17.19,37.59,3.45,6.91,2.17,6.83,3.89,10-.2.14-.11.4-.32.53-.85,3.36-1.43,6.73-2.28,10.09a46,46,0,0,0-3.83-12.18,27.49,27.49,0,0,0,.52-7.12,9.33,9.33,0,0,0-3-6.31,6.2,6.2,0,0,0-3.49-1.36A3.64,3.64,0,0,0-242.4,327a36.16,36.16,0,0,1-1,5.41,52.6,52.6,0,0,1-2.76,6.8c0,4.46,2.76,3.73,4.78,21.67,1.56,14,19.56,23.21,29.36,33.3L-201.59,427a202.67,202.67,0,0,0,34.85-18.3Z" transform="translate(503.84 -42.95)"/><g class="cls-10"><path class="cls-7" d="M-180.16,319.35a7.8,7.8,0,0,1,2.3-3.46A2.93,2.93,0,0,1-174,316q-1.12-3.43-2.38-6.83a10.56,10.56,0,0,0-2.78-4.68c-1.42-1.16-3.76-1.4-5,0a54.05,54.05,0,0,1,.28,15.81c-.37,2.84-.85,6.1,1.06,8.23.53.43,1.44-.34,1.11-.93-.16-.28-.72-.3-1-.28A50.78,50.78,0,0,1-180.16,319.35Z" transform="translate(503.84 -42.95)"/><path class="cls-7" d="M-180.16,319.35a7.8,7.8,0,0,1,2.3-3.46A2.93,2.93,0,0,1-174,316q-1.12-3.43-2.38-6.83a10.56,10.56,0,0,0-2.78-4.68c-1.42-1.16-3.76-1.4-5,0a54.05,54.05,0,0,1,.28,15.81c-.37,2.84-.85,6.1,1.06,8.23.53.43,1.44-.34,1.11-.93-.16-.28-.72-.3-1-.28A50.78,50.78,0,0,1-180.16,319.35Z" transform="translate(503.84 -42.95)"/><path class="cls-11" d="M-180.16,319.35a7.8,7.8,0,0,1,2.3-3.46A2.93,2.93,0,0,1-174,316q-1.12-3.43-2.38-6.83a10.56,10.56,0,0,0-2.78-4.68c-1.42-1.16-3.76-1.4-5,0a54.05,54.05,0,0,1,.28,15.81c-.37,2.84-.85,6.1,1.06,8.23.53.43,1.44-.34,1.11-.93-.16-.28-.72-.3-1-.28A50.78,50.78,0,0,1-180.16,319.35Z" transform="translate(503.84 -42.95)"/><path class="cls-7" d="M-196.11,314.61a27.57,27.57,0,0,0,.54,5.74,7.16,7.16,0,0,0,3.19,4.61c-1-3.72-.45-7.67.09-11.48l1-7a5.28,5.28,0,0,1,.7-2.32,1.82,1.82,0,0,1,2.12-.76c-1,.58-2.27-.2-2.87-1.18a27.65,27.65,0,0,0-1.54-3.08c-1.33-1.72-4.19-2.1-6.17-1.64C-198.46,303.25-196.34,308.71-196.11,314.61Z" transform="translate(503.84 -42.95)"/><path class="cls-7" d="M-196.11,314.61a27.57,27.57,0,0,0,.54,5.74,7.16,7.16,0,0,0,3.19,4.61c-1-3.72-.45-7.67.09-11.48l1-7a5.28,5.28,0,0,1,.7-2.32,1.82,1.82,0,0,1,2.12-.76c-1,.58-2.27-.2-2.87-1.18a27.65,27.65,0,0,0-1.54-3.08c-1.33-1.72-4.19-2.1-6.17-1.64C-198.46,303.25-196.34,308.71-196.11,314.61Z" transform="translate(503.84 -42.95)"/><g class="cls-12"><path class="cls-1" d="M-196.11,314.61a27.57,27.57,0,0,0,.54,5.74,7.16,7.16,0,0,0,3.19,4.61c-1-3.72-.45-7.67.09-11.48l1-7a5.28,5.28,0,0,1,.7-2.32,1.82,1.82,0,0,1,2.12-.76c-1,.58-2.27-.2-2.87-1.18a27.65,27.65,0,0,0-1.54-3.08c-1.33-1.72-4.19-2.1-6.17-1.64C-198.46,303.25-196.34,308.71-196.11,314.61Z" transform="translate(503.84 -42.95)"/></g><path class="cls-7" d="M-212.44,299.19a3.5,3.5,0,0,1-1.05-2.1,3,3,0,0,0-1.17-2c-3.07,1.95-1.39,7.66-4.5,9.55-.6.37-1.37.58-1.7,1.2a1.57,1.57,0,0,0,.32,1.76,3.07,3.07,0,0,0,1.7.8,6.86,6.86,0,0,0,6.55-2.84c1.22-1.68,2.06-4.38,1.46-6.37A1.55,1.55,0,0,1-212.44,299.19Z" transform="translate(503.84 -42.95)"/><path class="cls-7" d="M-244.36,336.58c-.06.21-.1.48.08.62s.61-.12.81-.4a5.35,5.35,0,0,1,5.95-1.93c.81,0,1.09-1.25.56-1.86a2.89,2.89,0,0,0-2.24-.72,4.36,4.36,0,0,1-2.36-.39,2.34,2.34,0,0,1-1-2.52C-243.07,331.79-243.74,334.18-244.36,336.58Z" transform="translate(503.84 -42.95)"/><g class="cls-12"><path class="cls-1" d="M-212.44,299.19a3.5,3.5,0,0,1-1.05-2.1,3,3,0,0,0-1.17-2c-3.07,1.95-1.39,7.66-4.5,9.55-.6.37-1.37.58-1.7,1.2a1.57,1.57,0,0,0,.32,1.76,3.07,3.07,0,0,0,1.7.8,6.86,6.86,0,0,0,6.55-2.84c1.22-1.68,2.06-4.38,1.46-6.37A1.55,1.55,0,0,1-212.44,299.19Z" transform="translate(503.84 -42.95)"/><path class="cls-1" d="M-244.36,336.58c-.06.21-.1.48.08.62s.61-.12.81-.4a5.35,5.35,0,0,1,5.95-1.93c.81,0,1.09-1.25.56-1.86a2.89,2.89,0,0,0-2.24-.72,4.36,4.36,0,0,1-2.36-.39,2.34,2.34,0,0,1-1-2.52C-243.07,331.79-243.74,334.18-244.36,336.58Z" transform="translate(503.84 -42.95)"/></g><path class="cls-7" d="M-203.65,298.43c-1.75-.23-3.6-.28-5.12-1.17-1.91-1.12-3.21-3.5-5.42-3.6-2-.09-3.43,1.71-4.54,3.33a6.06,6.06,0,0,1,3.93-5.63,9.8,9.8,0,0,1,7.16.28,26.83,26.83,0,0,1,6.2,3.87,8.31,8.31,0,0,1,2.1,2C-196.88,301.44-202.1,298.64-203.65,298.43Z" transform="translate(503.84 -42.95)"/><path class="cls-11" d="M-203.65,298.43c-1.75-.23-3.6-.28-5.12-1.17-1.91-1.12-3.21-3.5-5.42-3.6-2-.09-3.43,1.71-4.54,3.33a6.06,6.06,0,0,1,3.93-5.63,9.8,9.8,0,0,1,7.16.28,26.83,26.83,0,0,1,6.2,3.87,8.31,8.31,0,0,1,2.1,2C-196.88,301.44-202.1,298.64-203.65,298.43Z" transform="translate(503.84 -42.95)"/><path class="cls-7" d="M-234.93,355.23c.12-.22.23-.45.33-.68A.77.77,0,0,0-234.93,355.23Z" transform="translate(503.84 -42.95)"/><path class="cls-7" d="M-232,339.73c-.19-2.46.16-4.94.06-7.41s-.75-5.07-2.55-6.77c-2.58-2.43-9.65-1.19-7.28,3.43a3,3,0,0,0,3.67,1.37,2.67,2.67,0,0,0,1.25-3.61,12.81,12.81,0,0,1-.61,14.56,11.64,11.64,0,0,1,2.82,13.25,1.46,1.46,0,0,1,1.65,0,5,5,0,0,1,1.27,2.26c.34.81,1,1.65,1.88,1.59,1.2-2.95.8-6.3,0-9.38S-231.7,342.91-232,339.73Z" transform="translate(503.84 -42.95)"/><path class="cls-7" d="M-206.08,293.36a10,10,0,0,0-4.73-2Z" transform="translate(503.84 -42.95)"/><path class="cls-7" d="M-194.32,324.65c-.38-1.7-1.17-3.28-1.64-5-1.09-3.91-.4-8.09-.9-12.12a20.92,20.92,0,0,0-7.43-13.45l-1.79-.76a10.15,10.15,0,0,1,3.6,5.24c1.39,4.78,1.82,9.76,2.43,14.7a199.32,199.32,0,0,0,4.16,22.61C-194.7,332.26-193.49,328.4-194.32,324.65Z" transform="translate(503.84 -42.95)"/><path class="cls-7" d="M-213.36,306.87a6.29,6.29,0,0,0,2.11-4.11,16.58,16.58,0,0,0-.12-4.22,1.37,1.37,0,0,1-1.57.95,3.55,3.55,0,0,1-1.89-1.72c-.12.42-.24.84-.37,1.25,0-.22-.09-.45-.14-.68l-.48.61c.71,2,1.39,4.33.3,6.16a7.23,7.23,0,0,1-2.25,2.08A3.8,3.8,0,0,0-213.36,306.87Z" transform="translate(503.84 -42.95)"/><path class="cls-7" d="M-211.42,298c0,.17,0,.33,0,.5A.73.73,0,0,0-211.42,298Z" transform="translate(503.84 -42.95)"/><path class="cls-7" d="M-216.65,318.28c-3.51-6.89-7-13.78-10.87-20.48a65.72,65.72,0,0,0-7.65-11.17c-1.33-1.49-5.16-4.95-7.26-2.67-1.41,1.52.44,4.28-1.29,5.93.4,0,2.35-.19,2.56.07a30.41,30.41,0,0,1,6.71,19.39c1.41-1.11,3.34.43,4.45,1.85a326.28,326.28,0,0,1,19,27.1c-1.13-4.13-1.16-8.52-2.39-12.62A44.9,44.9,0,0,0-216.65,318.28Z" transform="translate(503.84 -42.95)"/><path class="cls-7" d="M-175.91,335.07a43.81,43.81,0,0,0,3.13-13.84,22.82,22.82,0,0,0-3.14-12.53c-.58-.93-3-4.77-4.3-4.45-2.34.55.74,4.63,1.28,5.65,2,3.85,4.11,7.92,4,12.27-.1,3.35-1.51,6.5-2.64,9.65a20.8,20.8,0,0,0-1.41,6.87c-.17.25-.33.52-.52.76a10.3,10.3,0,0,1-6.28,4.15c1-3,1.93-6,2.9-9,.34-1.07.47-2.53-.15-3.27a2.67,2.67,0,0,0,.3-1.3,6.4,6.4,0,0,0-.84-2.3c-1.34-2.88-.89-6.23-.56-9.39.4-3.9.55-7.91-.59-11.66s-3.79-7.23-7.51-8.47c.32.34.64.68.95,1l-1.26-.92c.79,1.63,1.57,3.25,2.35,4.88l-.87,1.23c1.29-.68,3,.3,3.54,1.63a8.58,8.58,0,0,1,.29,4.31,86.2,86.2,0,0,0,1.18,24.26,11.78,11.78,0,0,1-1.44,5.33,5.26,5.26,0,0,1-5,2.71,5.26,5.26,0,0,0-1.93-5.33c-2,2.8-.83,7.15-.52,10.34a114.22,114.22,0,0,0,2.32,14.36,46,46,0,0,1,2.56-12q1.62,5.93,3.26,11.85a7.08,7.08,0,0,1,.61-3.23,2.42,2.42,0,0,1,2.76-1.28,3.39,3.39,0,0,1,1.66,2.06,36.75,36.75,0,0,1,2,21.63c1.34.75,3.12-.15,3.86-1.49a8.91,8.91,0,0,0,.72-4.5Q-175.57,355.08-175.91,335.07Z" transform="translate(503.84 -42.95)"/><path class="cls-7" d="M-209.81,339.3c-.65,1.12,2,5.58,2.41,6.64q3.3,8.07,6.61,16.15a76.09,76.09,0,0,0-5.13-20.68C-206.37,340.3-208.54,337.07-209.81,339.3Z" transform="translate(503.84 -42.95)"/><path class="cls-7" d="M-206.39,310.78c-.38.57-.91,1.27-1.57,1.07s-.71-1-.7-1.63q.09-5.61.19-11.23c-3,2.17-2.64,5-2.85,8.24-.12,1.87.42,10.8-.86,11.89a33.33,33.33,0,0,0,7.44-9.06C-205.26,309.63-206,310.21-206.39,310.78Z" transform="translate(503.84 -42.95)"/><g class="cls-12"><path class="cls-1" d="M-234.93,355.23c.12-.22.23-.45.33-.68A.77.77,0,0,0-234.93,355.23Z" transform="translate(503.84 -42.95)"/><path class="cls-1" d="M-232,339.73c-.19-2.46.16-4.94.06-7.41s-.75-5.07-2.55-6.77c-2.58-2.43-9.65-1.19-7.28,3.43a3,3,0,0,0,3.67,1.37,2.67,2.67,0,0,0,1.25-3.61,12.81,12.81,0,0,1-.61,14.56,11.64,11.64,0,0,1,2.82,13.25,1.46,1.46,0,0,1,1.65,0,5,5,0,0,1,1.27,2.26c.34.81,1,1.65,1.88,1.59,1.2-2.95.8-6.3,0-9.38S-231.7,342.91-232,339.73Z" transform="translate(503.84 -42.95)"/><path class="cls-1" d="M-206.08,293.36a10,10,0,0,0-4.73-2Z" transform="translate(503.84 -42.95)"/><path class="cls-1" d="M-194.32,324.65c-.38-1.7-1.17-3.28-1.64-5-1.09-3.91-.4-8.09-.9-12.12a20.92,20.92,0,0,0-7.43-13.45l-1.79-.76a10.15,10.15,0,0,1,3.6,5.24c1.39,4.78,1.82,9.76,2.43,14.7a199.32,199.32,0,0,0,4.16,22.61C-194.7,332.26-193.49,328.4-194.32,324.65Z" transform="translate(503.84 -42.95)"/><path class="cls-1" d="M-213.36,306.87a6.29,6.29,0,0,0,2.11-4.11,16.58,16.58,0,0,0-.12-4.22,1.37,1.37,0,0,1-1.57.95,3.55,3.55,0,0,1-1.89-1.72c-.12.42-.24.84-.37,1.25,0-.22-.09-.45-.14-.68l-.48.61c.71,2,1.39,4.33.3,6.16a7.23,7.23,0,0,1-2.25,2.08A3.8,3.8,0,0,0-213.36,306.87Z" transform="translate(503.84 -42.95)"/><path class="cls-1" d="M-211.42,298c0,.17,0,.33,0,.5A.73.73,0,0,0-211.42,298Z" transform="translate(503.84 -42.95)"/><path class="cls-1" d="M-216.65,318.28c-3.51-6.89-7-13.78-10.87-20.48a65.72,65.72,0,0,0-7.65-11.17c-1.33-1.49-5.16-4.95-7.26-2.67-1.41,1.52.44,4.28-1.29,5.93.4,0,2.35-.19,2.56.07a30.41,30.41,0,0,1,6.71,19.39c1.41-1.11,3.34.43,4.45,1.85a326.28,326.28,0,0,1,19,27.1c-1.13-4.13-1.16-8.52-2.39-12.62A44.9,44.9,0,0,0-216.65,318.28Z" transform="translate(503.84 -42.95)"/><path class="cls-1" d="M-175.91,335.07a43.81,43.81,0,0,0,3.13-13.84,22.82,22.82,0,0,0-3.14-12.53c-.58-.93-3-4.77-4.3-4.45-2.34.55.74,4.63,1.28,5.65,2,3.85,4.11,7.92,4,12.27-.1,3.35-1.51,6.5-2.64,9.65a20.8,20.8,0,0,0-1.41,6.87c-.17.25-.33.52-.52.76a10.3,10.3,0,0,1-6.28,4.15c1-3,1.93-6,2.9-9,.34-1.07.47-2.53-.15-3.27a2.67,2.67,0,0,0,.3-1.3,6.4,6.4,0,0,0-.84-2.3c-1.34-2.88-.89-6.23-.56-9.39.4-3.9.55-7.91-.59-11.66s-3.79-7.23-7.51-8.47c.32.34.64.68.95,1l-1.26-.92c.79,1.63,1.57,3.25,2.35,4.88l-.87,1.23c1.29-.68,3,.3,3.54,1.63a8.58,8.58,0,0,1,.29,4.31,86.2,86.2,0,0,0,1.18,24.26,11.78,11.78,0,0,1-1.44,5.33,5.26,5.26,0,0,1-5,2.71,5.26,5.26,0,0,0-1.93-5.33c-2,2.8-.83,7.15-.52,10.34a114.22,114.22,0,0,0,2.32,14.36,46,46,0,0,1,2.56-12q1.62,5.93,3.26,11.85a7.08,7.08,0,0,1,.61-3.23,2.42,2.42,0,0,1,2.76-1.28,3.39,3.39,0,0,1,1.66,2.06,36.75,36.75,0,0,1,2,21.63c1.34.75,3.12-.15,3.86-1.49a8.91,8.91,0,0,0,.72-4.5Q-175.57,355.08-175.91,335.07Z" transform="translate(503.84 -42.95)"/><path class="cls-1" d="M-209.81,339.3c-.65,1.12,2,5.58,2.41,6.64q3.3,8.07,6.61,16.15a76.09,76.09,0,0,0-5.13-20.68C-206.37,340.3-208.54,337.07-209.81,339.3Z" transform="translate(503.84 -42.95)"/><path class="cls-1" d="M-206.39,310.78c-.38.57-.91,1.27-1.57,1.07s-.71-1-.7-1.63q.09-5.61.19-11.23c-3,2.17-2.64,5-2.85,8.24-.12,1.87.42,10.8-.86,11.89a33.33,33.33,0,0,0,7.44-9.06C-205.26,309.63-206,310.21-206.39,310.78Z" transform="translate(503.84 -42.95)"/></g></g><path class="cls-13" d="M-198.74,298.53a78.3,78.3,0,0,1,2.73,20,10.81,10.81,0,0,0,.36,3.36,3.32,3.32,0,0,0,2.29,2.29" transform="translate(503.84 -42.95)"/><path class="cls-13" d="M-184.59,305.1c3,6.26-.07,20.25.15,21.23a3.53,3.53,0,0,0,1.69,2.4" transform="translate(503.84 -42.95)"/><path class="cls-13" d="M-210.37,297.68c-.35,2-.65,4.29-1,6.28a11.54,11.54,0,0,1-4-8" transform="translate(503.84 -42.95)"/><path class="cls-13" d="M-229.53,351l-2.16,1" transform="translate(503.84 -42.95)"/><path class="cls-13" d="M-229,352.76a12.5,12.5,0,0,0,0,5.06" transform="translate(503.84 -42.95)"/><path class="cls-13" d="M-216.34,334.08c.8,1.43,1.59,2.87,2.39,4.31" transform="translate(503.84 -42.95)"/><path class="cls-13" d="M-211.75,318.3l2.38-3.36" transform="translate(503.84 -42.95)"/><path class="cls-13" d="M-178.27,334.08l-.72,2.63" transform="translate(503.84 -42.95)"/><path class="cls-13" d="M-184.09,326.87l2.1-6.72" transform="translate(503.84 -42.95)"/><path class="cls-13" d="M-177,315a2.71,2.71,0,0,1,3.64,1.13" transform="translate(503.84 -42.95)"/><path class="cls-13" d="M-191.43,303.47a5.18,5.18,0,0,1,4.82,1.1" transform="translate(503.84 -42.95)"/><path class="cls-13" d="M-236,310.14a7.34,7.34,0,0,1,6.21-2.34" transform="translate(503.84 -42.95)"/><path class="cls-13" d="M-245,291.28a6.7,6.7,0,0,1,5-1.18" transform="translate(503.84 -42.95)"/><path class="cls-1" d="M-243.13,336a12.64,12.64,0,0,0-2.93,3.3Z" transform="translate(503.84 -42.95)"/><path class="cls-13" d="M-242.17,331.49c1.58-1.13,4.1,1.39,5.55.1a2.33,2.33,0,0,0,.49-2.16,7.5,7.5,0,0,1-.29-2.29" transform="translate(503.84 -42.95)"/><path class="cls-13" d="M-197.58,324.55a18.11,18.11,0,0,1,1.1,12.82" transform="translate(503.84 -42.95)"/><path class="cls-13" d="M-186,330.72a8.26,8.26,0,0,1-1,5.5" transform="translate(503.84 -42.95)"/><path class="cls-14" d="M-201.59,427-212,394.17c-9.8-10.09-27.8-19.32-29.36-33.3-2-17.94-4.78-17.21-4.78-21.67a52.6,52.6,0,0,0,2.76-6.8,36.16,36.16,0,0,0,1-5.41,3.64,3.64,0,0,1,3.84-3.12,6.2,6.2,0,0,1,3.49,1.36,9.33,9.33,0,0,1,3,6.31,27.49,27.49,0,0,1-.52,7.12,46,46,0,0,1,3.83,12.18c.85-3.36,1.43-6.73,2.28-10.09.21-.13.12-.39.32-.53-1.72-3.12-.44-3-3.89-10-5.81-11.64-12.18-22.81-17.19-37.59a8.58,8.58,0,0,1-.19-4.24c1.16-4.39,5.66-3.7,7.76-1.32a8.19,8.19,0,0,1,1.34,2.09A115.34,115.34,0,0,0-227.59,307l12,15.83s3.58-3.35,4.07-4.78h0c.47-1.43,0-12.69,0-12.69s-.72,2.16-2.63,2.16c-1.38,0-4.12,1-6.26-1.12a5.21,5.21,0,0,1-.61-6.52l4.47-7a7.48,7.48,0,0,1,7.66-1.44,36.61,36.61,0,0,1,9.1,5.51,17.88,17.88,0,0,1,7.66,1c3.59,1.45,7.56,6,7.56,6s4.08,0,6,1.17c.48.3,7.32,9.54,5.58,17.2-1,4.57-1.41,11.13-1.89,12.92l-.12,44.2,8.29,29.31" transform="translate(503.84 -42.95)"/><path class="cls-14" d="M-198.74,298.53a78.3,78.3,0,0,1,2.73,20,10.81,10.81,0,0,0,.36,3.36,3.32,3.32,0,0,0,2.29,2.29" transform="translate(503.84 -42.95)"/><path class="cls-14" d="M-184.59,305.1c3,6.26-.07,20.25.15,21.23a3.53,3.53,0,0,0,1.69,2.4" transform="translate(503.84 -42.95)"/><path class="cls-14" d="M-210.37,297.68c-.35,2-.65,4.29-1,6.28a11.54,11.54,0,0,1-4-8" transform="translate(503.84 -42.95)"/><path class="cls-14" d="M-229.53,351l-2.16,1" transform="translate(503.84 -42.95)"/><path class="cls-14" d="M-229,352.76a12.5,12.5,0,0,0,0,5.06" transform="translate(503.84 -42.95)"/><path class="cls-14" d="M-216.34,334.08c.8,1.43,1.59,2.87,2.39,4.31" transform="translate(503.84 -42.95)"/><path class="cls-14" d="M-211.75,318.3l2.38-3.36" transform="translate(503.84 -42.95)"/><path class="cls-14" d="M-178.27,334.08l-.72,2.63" transform="translate(503.84 -42.95)"/><path class="cls-14" d="M-184.09,326.87l2.1-6.72" transform="translate(503.84 -42.95)"/><path class="cls-14" d="M-177,315a2.71,2.71,0,0,1,3.64,1.13" transform="translate(503.84 -42.95)"/><path class="cls-14" d="M-191.43,303.47a5.18,5.18,0,0,1,4.82,1.1" transform="translate(503.84 -42.95)"/><path class="cls-14" d="M-236,310.14a7.34,7.34,0,0,1,6.21-2.34" transform="translate(503.84 -42.95)"/><path class="cls-14" d="M-245,291.28a6.7,6.7,0,0,1,5-1.18" transform="translate(503.84 -42.95)"/><path class="cls-14" d="M-243.13,336a12.64,12.64,0,0,0-2.93,3.3" transform="translate(503.84 -42.95)"/><path class="cls-14" d="M-242.17,331.49c1.58-1.13,4.1,1.39,5.55.1a2.33,2.33,0,0,0,.49-2.16,7.5,7.5,0,0,1-.29-2.29" transform="translate(503.84 -42.95)"/><path class="cls-14" d="M-197.58,324.55a18.11,18.11,0,0,1,1.1,12.82" transform="translate(503.84 -42.95)"/><path class="cls-14" d="M-186,330.72a8.26,8.26,0,0,1-1,5.5" transform="translate(503.84 -42.95)"/><path class="cls-5" d="M-282.65,345.73a6.06,6.06,0,0,1-.09,2.08c-.65,3-2.53,11.78-3.22,16.58-.82,5.86-10.29,24-10.29,24s-8.72,10.84-13.16,16.48c-2.18,2.77-5.63,14-8.56,24.66q-5.55-1.68-11-3.62c-3-1.07-6-2.2-9-3.37a147.09,147.09,0,0,1-15.63-7.62c1.66-6,2.77-10.67,2.75-10.94-.05-.63,3.56-7.58,3.56-7.58L-350.43,355l-1.86-6.31a47.39,47.39,0,0,1-1.83-10,48.34,48.34,0,0,1,1.29-15.33l5.43-8.06,2.54-.19,7.86-11s4.25-1.28,5.34,1.92-3.54,9.18-3.54,9.18l-1.59,9.87,3.78,9.24,2,.72s.66-16.27.21-19.52l4.18-14.85a70.54,70.54,0,0,0,3.26-7.46c.76-2.49,5.23-5,7.8-.59a6.43,6.43,0,0,1,.4,5.27c-1.05,3.05-1.92,5.45-1.92,5.45s-.95,12.58-1.25,12.93,1.85,18.73,1.85,18.73l1.64.73.58-17.55,3.41-16.49s-.28-7.93,5.31-7a4.32,4.32,0,0,1,4.11,2.56c1.49,2.85.07,21.83.07,21.83l1.38,19.62,2.21,15.13,2.6-10.37s.15-14.86,9.53-16.13c0,0,2.79-.5,3.36,1.44s-1.39,5.9-1.11,9.7C-283.22,341.17-282.84,344.18-282.65,345.73Z" transform="translate(503.84 -42.95)"/><path class="cls-1" d="M-285.5,327.36c-.43-2-3.24-1.69-3.24-1.69-9.45.56-10.73,15.37-10.73,15.37l-3.38,10.14-1.06-15.26.11-19.67s2.86-18.82,1.58-21.77a4.29,4.29,0,0,0-3.9-2.86c-5.5-1.38-5.82,6.55-5.82,6.55l-4.65,16.18-1.9,17.45-1.58-.84s-.75-18.52-.43-18.83,2.22-12.79,2.22-12.79,1-2.33,2.33-5.29a6.43,6.43,0,0,0,0-5.29c-2.23-4.54-6.87-2.42-7.83,0a70.32,70.32,0,0,1-3.81,7.2l-5.29,14.48c.2,3.28-1.68,19.46-1.68,19.46l-1.91-.87-3.07-9.5,2.33-9.73s5.08-5.59,4.23-8.88-5.18-2.32-5.18-2.32L-346.83,309h-2.54l-6,7.61a48.65,48.65,0,0,0-2.45,15.2,48.45,48.45,0,0,0,1.07,10.09l1.38,6.43v41.56s-4.12,6.66-4.12,7.29c0,.29-1.7,5.54-4.07,12.09,10.37,6.1,19.3,10.82,25.62,13.31,3,1.18,6,2.3,9,3.37,3.8-10.67,8.24-22.08,10.69-24.75,4.86-5.28,14.37-15.44,14.37-15.44s10.82-17.37,12.08-23.14c1.05-4.74,3.59-13.35,4.47-16.3a5.77,5.77,0,0,0,.24-2.07c-.07-1.56-.22-4.59-.22-7.26C-287.34,333.14-285.08,329.33-285.5,327.36Z" transform="translate(503.84 -42.95)"/><g class="cls-15"><path class="cls-7" d="M-350.4,323.18c1.62-2,4.94-2.79,6.82-1a7.17,7.17,0,0,1,1.71,4,8.43,8.43,0,0,0,1.51,4.12c1,1.13,2.89,1.57,3.9.49.14,2.19.27,4.38.41,6.57a26.05,26.05,0,0,0,3.44-13.44c-.05-2.27-.39-4.58.14-6.8s2.24-4.36,4.51-4.47c2.53-.11,4.52,2.34,5,4.82s-.08,5-.23,7.54A22.94,22.94,0,0,0-321,336.21l1.59-3.22c.48,2.16.95,4.31,1.43,6.46q.61-7.11,1.24-14.21a10.17,10.17,0,0,1,.87-3.9,3.46,3.46,0,0,1,3.21-2c1.8.18,2.84,2.1,3.44,3.8,4.5,12.75,2.65,26.74.74,40.12,1.25.23,2.3-1,2.62-2.26a28.81,28.81,0,0,1,.67-3.75c.46-1.19,1.91-2.16,3-1.48,1.57,1,.47,4.06,2.13,4.91a22.73,22.73,0,0,1,4.53-10.93c1.11-1.44,2.77-2.87,4.53-2.41a3.55,3.55,0,0,1,2.36,3c.2,1.34,2.13-4.2,1.8-2.89.76-7.71-.76-8.52,0-16.24.14-1.39,2.39-3.8,1.43-4.82s-3.63-2.4-4.84-1.84-5.14,2.52-5.92,3.59c-4.91,6.79-4.57,16.61-6.1,24.85-1.31-12.56-2.6-25.33-.3-37.74,1.27-6.85,3.61-14,1.4-20.59-1-3-3.69-6-6.82-5.46-2.52.46-4.05,3-5.07,5.36-3.45,7.9-5,16.48-6.48,25l5.64-25.63a17.35,17.35,0,0,0,.58-6.74c-.41-2.24-1.94-4.43-4.16-4.9s-4.4.84-6.06,2.36c-5.95,5.44-8.16,13.74-10.1,21.56a15.52,15.52,0,0,0,1.16-6.31c-.21-2.14-1.57-4.32-3.67-4.79-2.73-.59-5.2,1.84-6.4,4.36s-1.78,5.41-3.69,7.44c-1.39-1.56-4-1.47-5.74-.31a11.09,11.09,0,0,0-3.65,5,46.52,46.52,0,0,0-3.87,22.48,8.22,8.22,0,0,1,8.21-4.68l-.6-5.11" transform="translate(503.84 -42.95)"/><path class="cls-7" d="M-343.81,339.45c-.09,1.26-.17,2.52-.26,3.78a1.82,1.82,0,0,1,2.77-.7,4.14,4.14,0,0,1,.63-2.34c.32-.76.35-1.84-.39-2.2s-1.75.58-2.21,1.44c0-.31-.08-.62-.11-.94Z" transform="translate(503.84 -42.95)"/><path class="cls-7" d="M-329.47,337.19a8.79,8.79,0,0,0-2,4.18,4.37,4.37,0,0,1,1.46-1.08,1.49,1.49,0,0,1,1.67.38c.22.3.3.74.64.91a.79.79,0,0,0,1-.36,2.28,2.28,0,0,0,.25-1.1,6.08,6.08,0,0,0-.12-2.17,2.11,2.11,0,0,0-1.44-1.51,1.3,1.3,0,0,0-1.57,1.1Z" transform="translate(503.84 -42.95)"/><path class="cls-7" d="M-315.58,340.63a11.25,11.25,0,0,0-2.1,5,4.3,4.3,0,0,0,1.94-1.05,3.94,3.94,0,0,1,2-1,1.39,1.39,0,0,1,1.56,1.22,9.41,9.41,0,0,1,.08-2.54,5.35,5.35,0,0,0-.18-2.52,2.11,2.11,0,0,0-1.93-1.41,1.33,1.33,0,0,0-1.18,1.79Z" transform="translate(503.84 -42.95)"/><path class="cls-7" d="M-353.79,345.65a10,10,0,0,0-1.17,4.7,1.64,1.64,0,0,1,1.47-1.46,3.28,3.28,0,0,1,2.13.57,5.78,5.78,0,0,0,.14-2.3,2,2,0,0,0-1.47-1.6c-.76-.12-1.6.61-1.39,1.35l-.24-.57Z" transform="translate(503.84 -42.95)"/><path class="cls-11" d="M-350.4,323.18c1.62-2,4.94-2.79,6.82-1a7.17,7.17,0,0,1,1.71,4,8.43,8.43,0,0,0,1.51,4.12c1,1.13,2.89,1.57,3.9.49.14,2.19.27,4.38.41,6.57a26.05,26.05,0,0,0,3.44-13.44c-.05-2.27-.39-4.58.14-6.8s2.24-4.36,4.51-4.47c2.53-.11,4.52,2.34,5,4.82s-.08,5-.23,7.54A22.94,22.94,0,0,0-321,336.21l1.59-3.22c.48,2.16.95,4.31,1.43,6.46q.61-7.11,1.24-14.21a10.17,10.17,0,0,1,.87-3.9,3.46,3.46,0,0,1,3.21-2c1.8.18,2.84,2.1,3.44,3.8,4.5,12.75,2.65,26.74.74,40.12,1.25.23,2.3-1,2.62-2.26a28.81,28.81,0,0,1,.67-3.75c.46-1.19,1.91-2.16,3-1.48,1.57,1,.47,4.06,2.13,4.91a22.73,22.73,0,0,1,4.53-10.93c1.11-1.44,2.77-2.87,4.53-2.41a3.55,3.55,0,0,1,2.36,3c.2,1.34,2.13-4.2,1.8-2.89.76-7.71-.76-8.52,0-16.24.14-1.39,2.39-3.8,1.43-4.82s-3.63-2.4-4.84-1.84-5.14,2.52-5.92,3.59c-4.91,6.79-4.57,16.61-6.1,24.85-1.31-12.56-2.6-25.33-.3-37.74,1.27-6.85,3.61-14,1.4-20.59-1-3-3.69-6-6.82-5.46-2.52.46-4.05,3-5.07,5.36-3.45,7.9-5,16.48-6.48,25l5.64-25.63a17.35,17.35,0,0,0,.58-6.74c-.41-2.24-1.94-4.43-4.16-4.9s-4.4.84-6.06,2.36c-5.95,5.44-8.16,13.74-10.1,21.56a15.52,15.52,0,0,0,1.16-6.31c-.21-2.14-1.57-4.32-3.67-4.79-2.73-.59-5.2,1.84-6.4,4.36s-1.78,5.41-3.69,7.44c-1.39-1.56-4-1.47-5.74-.31a11.09,11.09,0,0,0-3.65,5,46.52,46.52,0,0,0-3.87,22.48,8.22,8.22,0,0,1,8.21-4.68l-.6-5.11" transform="translate(503.84 -42.95)"/><g class="cls-12"><path class="cls-1" d="M-343.81,339.45c-.09,1.26-.17,2.52-.26,3.78a1.82,1.82,0,0,1,2.77-.7,4.14,4.14,0,0,1,.63-2.34c.32-.76.35-1.84-.39-2.2s-1.75.58-2.21,1.44c0-.31-.08-.62-.11-.94Z" transform="translate(503.84 -42.95)"/><path class="cls-1" d="M-329.47,337.19a8.79,8.79,0,0,0-2,4.18,4.37,4.37,0,0,1,1.46-1.08,1.49,1.49,0,0,1,1.67.38c.22.3.3.74.64.91a.79.79,0,0,0,1-.36,2.28,2.28,0,0,0,.25-1.1,6.08,6.08,0,0,0-.12-2.17,2.11,2.11,0,0,0-1.44-1.51,1.3,1.3,0,0,0-1.57,1.1Z" transform="translate(503.84 -42.95)"/><path class="cls-1" d="M-315.58,340.63a11.25,11.25,0,0,0-2.1,5,4.3,4.3,0,0,0,1.94-1.05,3.94,3.94,0,0,1,2-1,1.39,1.39,0,0,1,1.56,1.22,9.41,9.41,0,0,1,.08-2.54,5.35,5.35,0,0,0-.18-2.52,2.11,2.11,0,0,0-1.93-1.41,1.33,1.33,0,0,0-1.18,1.79Z" transform="translate(503.84 -42.95)"/><path class="cls-1" d="M-353.79,345.65a10,10,0,0,0-1.17,4.7,1.64,1.64,0,0,1,1.47-1.46,3.28,3.28,0,0,1,2.13.57,5.78,5.78,0,0,0,.14-2.3,2,2,0,0,0-1.47-1.6c-.76-.12-1.6.61-1.39,1.35l-.24-.57Z" transform="translate(503.84 -42.95)"/></g></g><path class="cls-14" d="M-363.59,409.23c2.37-6.55,4.07-11.8,4.07-12.09,0-.63,4.12-7.29,4.12-7.29V348.29l-1.38-6.43a48.45,48.45,0,0,1-1.07-10.09,48.65,48.65,0,0,1,2.45-15.2l6-7.61h2.54l8.67-10.36s4.34-1,5.18,2.32-4.23,8.88-4.23,8.88l-2.33,9.73,3.07,9.5,1.91.87s1.88-16.18,1.68-19.46l5.29-14.48a70.32,70.32,0,0,0,3.81-7.2c1-2.42,5.6-4.54,7.83,0a6.43,6.43,0,0,1,0,5.29c-1.28,3-2.33,5.29-2.33,5.29s-1.9,12.47-2.22,12.79.43,18.83.43,18.83l1.58.84,1.9-17.45,4.65-16.18s.32-7.93,5.82-6.55a4.29,4.29,0,0,1,3.9,2.86c1.28,2.95-1.58,21.77-1.58,21.77l-.11,19.67,1.06,15.26,3.38-10.14s1.28-14.81,10.73-15.37c0,0,2.81-.29,3.24,1.69s-1.84,5.78-1.84,9.59c0,2.67.15,5.7.22,7.26a5.77,5.77,0,0,1-.24,2.07c-.88,3-3.42,11.56-4.47,16.3-1.26,5.77-12.08,23.14-12.08,23.14s-9.51,10.16-14.37,15.44c-2.45,2.67-6.89,14.08-10.69,24.75" transform="translate(503.84 -42.95)"/><path class="cls-2" d="M-334.74,331.46a6,6,0,0,1-1.42,5.7" transform="translate(503.84 -42.95)"/><path class="cls-2" d="M-350.86,345.44c1.37-2.12,2.71-5.05,2.34-7.55-.72-4.91-3-10.56-2-15.42.64-3.1,1.28-6.21,1.93-9.31" transform="translate(503.84 -42.95)"/><path class="cls-14" d="M-311,299.06a9.77,9.77,0,0,1,5,0l.06-1.4" transform="translate(503.84 -42.95)"/><path class="cls-14" d="M-324.12,292.82a3.25,3.25,0,0,0,3.35.22,3.24,3.24,0,0,0,1.69-2.89" transform="translate(503.84 -42.95)"/><path class="cls-14" d="M-288,327.53a6.13,6.13,0,0,0-4.59,6.33l2.45.74" transform="translate(503.84 -42.95)"/><path class="cls-2" d="M-320.16,328.75c.11,1.68-.1,5.69,0,7.37" transform="translate(503.84 -42.95)"/><path class="cls-2" d="M-318.32,331.08c-.2,2.74-.41,5.49-.61,8.24,0-.35,0-.7.05-1.05" transform="translate(503.84 -42.95)"/><path class="cls-2" d="M-303.07,354.25a13.67,13.67,0,0,1-.93,9.06" transform="translate(503.84 -42.95)"/><path class="cls-14" d="M-328.41,339.84c-2.18,2.39-1.86,8.13-.32,11.28" transform="translate(503.84 -42.95)"/><path class="cls-14" d="M-312.3,343.79a11.23,11.23,0,0,1-2.67,7.33" transform="translate(503.84 -42.95)"/><path class="cls-14" d="M-344.29,341a10.22,10.22,0,0,0,1.49,7" transform="translate(503.84 -42.95)"/><path class="cls-14" d="M-353.57,348.45a8.53,8.53,0,0,0,1.54,5.34" transform="translate(503.84 -42.95)"/><path class="cls-14" d="M-340.85,302.35a3.15,3.15,0,0,1,3.49.56l1.24-1.63" transform="translate(503.84 -42.95)"/><path class="cls-14" d="M-330.59,309.69a4.13,4.13,0,0,1,5.28.9" transform="translate(503.84 -42.95)"/><path class="cls-14" d="M-314.57,314.69a6.7,6.7,0,0,1,5.69.12" transform="translate(503.84 -42.95)"/><path class="cls-14" d="M-350.23,323.08a5.42,5.42,0,0,1,5.24-2.6" transform="translate(503.84 -42.95)"/><path class="cls-14" d="M-356.93,332.65a2.84,2.84,0,0,1,2.37-2.67" transform="translate(503.84 -42.95)"/><circle class="cls-16" cx="404.58" cy="176.39" r="41.45"/><path class="cls-5" d="M-52.34,220.42c-8.84,14.49-12,12.53-42.13,27-15.3,7.34-30.09-16.23-20.08-40.42.49-1.18,4.81-7.15,4.81-7.15a22.55,22.55,0,0,1,16.45-16.58,22.56,22.56,0,0,1,22.13,7.46A23.84,23.84,0,0,1-50,185.64c.35,1,.68,2,1,3,.12.38.25.75.36,1.13.38,1.17.74,2.34,1.07,3.52q1,3.36,1.84,6.76a13.55,13.55,0,0,0-9.84.59c-2.21,1.08-4.06,2.86-6.36,3.74s-5.48.38-6.36-1.92c1.11,4.62,6,3.24,10.61,4.15C-50.45,208-48.62,214.32-52.34,220.42Z" transform="translate(503.84 -42.95)"/><path class="cls-17" d="M-66,213.27s7.42-1,10.95-.47a6.75,6.75,0,0,1,4.27,2.44,2.45,2.45,0,0,1,.51,1.33l.4,5.8a2.37,2.37,0,0,1-.64,1.79c-1.45,1.51-5.82,4.26-18.76,5.25C-87.42,230.8-66,213.27-66,213.27Z" transform="translate(503.84 -42.95)"/><path class="cls-17" d="M-71.38,198.28a27.69,27.69,0,0,1,6.08,17.63c0,6.91-8,30.52-28.5,33.39-21.69,3-39.12-15.52-35.4-37.86C-126.62,196-88.79,176.64-71.38,198.28Z" transform="translate(503.84 -42.95)"/><ellipse class="cls-1" cx="405.96" cy="171.41" rx="31.47" ry="29.79"/><ellipse cx="405.9" cy="172.97" rx="25.84" ry="24.45"/><path class="cls-16" d="M-66.41,214.35c0-16.45-14.09-29.78-31.47-29.78s-31.47,13.33-31.47,29.78" transform="translate(503.84 -42.95)"/><path class="cls-16" d="M-74.71,234.52a28.87,28.87,0,0,0,8.3-20.17" transform="translate(503.84 -42.95)"/><path class="cls-16" d="M-119.92,235.61a32.28,32.28,0,0,0,22,8.53,32.91,32.91,0,0,0,14.61-3.39" transform="translate(503.84 -42.95)"/><path class="cls-16" d="M-124.46,230.3c.41.62.85,1.22,1.3,1.8" transform="translate(503.84 -42.95)"/><path class="cls-16" d="M-129.35,214.35a28.39,28.39,0,0,0,3,12.71" transform="translate(503.84 -42.95)"/><path class="cls-17" d="M-51.69,222.51s-5.62-3.93-14.72-.37" transform="translate(503.84 -42.95)"/><path class="cls-17" d="M-56.52,225.23a57.1,57.1,0,0,1-11.64,1.83" transform="translate(503.84 -42.95)"/><path class="cls-17" d="M-53.61,224a5.44,5.44,0,0,1-1.4.73" transform="translate(503.84 -42.95)"/><path class="cls-1" d="M-48.62,189.77c-.11-.38-.24-.75-.36-1.13-1.91-5.92-4.37-12.42-7.36-19.28-.55-1.27-1.13-2.56-1.71-3.86l-.67.06c-2.87.29-5.89.65-8.25,2.28s-3.77,5.07-2.24,7.52,5.43,3.78,4.81,6.55c-6.41,3.61-14.23,3.19-21.36,5a34.78,34.78,0,0,0-11.91,5.62h0a36.71,36.71,0,0,0-3.24,2.72,12.81,12.81,0,0,0-1.32,1.42s0,0,0,0a4.89,4.89,0,0,0-1.13,2.54c-.25,2.67,2.18,4.49,4.77,5.65a.58.58,0,0,1,0,1.08,14.9,14.9,0,0,0-4.67,2.7l0,0a1.16,1.16,0,0,0,1,2l.4,0a7.55,7.55,0,0,1,3,.36,3.63,3.63,0,0,1,2.71,2.86c.16,2-2.15,3.86-5.15,4.09-.73.07-.17.94.9,1.12a16,16,0,0,0,6.4-.52c2.51-.6,5.19-1.47,6.61-3.62a4.52,4.52,0,0,0,.6-3.18,3.22,3.22,0,0,0-2.66-2.92,87.49,87.49,0,0,0,13.72-2.75h0l1.41-.43A13.16,13.16,0,0,0-70.55,204a5.39,5.39,0,0,0,1.69-1.86c1-2-.43-5.19-2.65-4.77,6.45-2.53,13.27-4,19.79-6.34C-50.68,190.61-49.64,190.21-48.62,189.77Z" transform="translate(503.84 -42.95)"/><path class="cls-5" d="M-98.06,103.27a127,127,0,0,1-19.9,14c-36.41,21.54-77.54,34.44-119.38,40.73s-84.44,6.1-126.6,2.63c-8.28-.68-16.7-1.52-24.31-4.86-6.45-2.84-12.3-7.78-15-14.17,9.13-10.4,17.62-20.92,27.07-30.85q3.38-3.56,6.92-7c2-1.91,4-3.79,6.14-5.63,2.41-2.12,4.89-4.19,7.49-6.19,3.55-2.76,7.29-5.41,11.29-7.94,1-.63,1.95-1.24,2.93-1.84,99.71-62,173.1-41.74,222.06,0q5.53,4.69,10.66,9.78c2.08,2,4.09,4.09,6,6.19.22.22.42.45.63.69Q-100,101-98.06,103.27Z" transform="translate(503.84 -42.95)"/><path class="cls-17" d="M-94.13,93.33l-335.46,1.53,5.07-7.61a13.17,13.17,0,0,1,10.94-5.85H-110a13.14,13.14,0,0,1,10.24,4.91Z" transform="translate(503.84 -42.95)"/><rect class="cls-18" x="195.3" y="100.67" width="86.68" height="86.68" rx="34.15"/><path class="cls-19" d="M-292.79,194.28V206.6a7,7,0,0,0,7,7h42.27a7,7,0,0,0,7-6.95c.05-5.54.35-12.37.35-12.37Z" transform="translate(503.84 -42.95)"/><path class="cls-20" d="M-138.09,198.4h-247.2a6.34,6.34,0,0,1-5.9-4L-429.32,96.5a3.9,3.9,0,0,1,3.64-5.32h328A3.91,3.91,0,0,1-94,96.5l-38.13,97.86A6.35,6.35,0,0,1-138.09,198.4Z" transform="translate(503.84 -42.95)"/><polygon points="367.59 146.92 116.12 146.92 81.52 54.43 402.03 54.43 367.59 146.92"/><rect x="211.32" y="155.32" width="56.06" height="3.84"/><path class="cls-7" d="M-173,185.89H-350.56c-1,0-1.91-.44-2.08-1l-25.26-80.25c-.28-.9.51-1.63,1.76-1.63h228.73c1.26,0,2,.73,1.76,1.63l-25.26,80.25C-171.08,185.45-172,185.89-173,185.89Z" transform="translate(503.84 -42.95)"/><polygon points="330.2 141.13 153.94 141.13 132.47 70.62 351.67 70.62 330.2 141.13"/><path class="cls-1" d="M-324.61,131.07H-358c-.82,0-1.36.44-1.2,1a1.81,1.81,0,0,0,1.76,1h33.18c.82,0,1.4-.44,1.3-1S-323.78,131.07-324.61,131.07Z" transform="translate(503.84 -42.95)"/><path class="cls-1" d="M-323.49,137.16h-28.38c-.81,0-1.35.43-1.2,1a1.77,1.77,0,0,0,1.71.95h28.22c.81,0,1.38-.43,1.29-.95S-322.68,137.16-323.49,137.16Z" transform="translate(503.84 -42.95)"/><path class="cls-11" d="M-322.41,143h-32.2c-.8,0-1.32.42-1.18.92a1.76,1.76,0,0,0,1.69.92h32c.79,0,1.36-.41,1.27-.92S-321.61,143-322.41,143Z" transform="translate(503.84 -42.95)"/><path class="cls-1" d="M-321.37,148.72h-18.91c-.78,0-1.32.4-1.2.89s.85.89,1.63.89H-321c.78,0,1.33-.4,1.25-.89S-320.59,148.72-321.37,148.72Z" transform="translate(503.84 -42.95)"/><path class="cls-1" d="M-320.36,154.2h-31.12c-.77,0-1.28.39-1.14.87s.86.85,1.63.85H-320c.77,0,1.32-.38,1.23-.85S-319.59,154.2-320.36,154.2Z" transform="translate(503.84 -42.95)"/><path class="cls-1" d="M-319.39,159.51h-25.13c-.75,0-1.26.37-1.14.83s.83.83,1.58.83h25c.75,0,1.29-.37,1.21-.83S-318.63,159.51-319.39,159.51Z" transform="translate(503.84 -42.95)"/><path class="cls-1" d="M-318.45,164.64h-24.71c-.75,0-1.25.36-1.13.8s.81.81,1.55.81h24.59c.74,0,1.27-.36,1.19-.81S-317.7,164.64-318.45,164.64Z" transform="translate(503.84 -42.95)"/><path class="cls-1" d="M-317.54,169.6h-27c-.74,0-1.23.35-1.11.78s.8.78,1.53.78h26.83c.73,0,1.25-.35,1.18-.78S-316.81,169.6-317.54,169.6Z" transform="translate(503.84 -42.95)"/><path class="cls-11" d="M-316.65,174.41h-17.42c-.72,0-1.22.34-1.12.76s.76.75,1.48.75h17.33c.72,0,1.24-.34,1.16-.75S-315.94,174.41-316.65,174.41Z" transform="translate(503.84 -42.95)"/><path class="cls-11" d="M-325.76,124.75h-24.87c-.84,0-1.4.46-1.26,1a1.81,1.81,0,0,0,1.78,1h24.72c.84,0,1.43-.45,1.33-1S-324.93,124.75-325.76,124.75Z" transform="translate(503.84 -42.95)"/><path class="cls-1" d="M-327,118.2h-34.62c-.86,0-1.41.48-1.24,1.07a1.92,1.92,0,0,0,1.84,1.06h34.41c.85,0,1.46-.48,1.35-1.06A1.69,1.69,0,0,0-327,118.2Z" transform="translate(503.84 -42.95)"/><path class="cls-1" d="M-315.8,179.07h-28.69c-.71,0-1.19.33-1.08.73s.78.73,1.49.73h28.55c.7,0,1.22-.32,1.14-.73S-315.09,179.07-315.8,179.07Z" transform="translate(503.84 -42.95)"/><polygon class="cls-11" points="190.96 90.35 197.43 90.35 197.11 87.88 190.59 87.88 190.96 90.35"/><polygon class="cls-11" points="191.86 96.36 198.22 96.36 197.91 93.98 191.5 93.98 191.86 96.36"/><polygon class="cls-11" points="192.73 102.17 198.98 102.17 198.68 99.86 192.39 99.86 192.73 102.17"/><polygon class="cls-11" points="193.57 107.77 199.72 107.77 199.42 105.55 193.24 105.55 193.57 107.77"/><polygon class="cls-11" points="194.39 113.19 200.43 113.19 200.15 111.04 194.06 111.04 194.39 113.19"/><polygon class="cls-11" points="195.18 118.43 201.11 118.43 200.84 116.35 194.86 116.35 195.18 118.43"/><polygon class="cls-11" points="195.94 123.5 201.78 123.5 201.51 121.49 195.63 121.49 195.94 123.5"/><polygon class="cls-11" points="196.67 128.41 202.42 128.41 202.17 126.46 196.38 126.46 196.67 128.41"/><polygon class="cls-11" points="197.39 133.16 203.05 133.16 202.8 131.28 197.1 131.28 197.39 133.16"/><polygon class="cls-11" points="190.02 84.11 196.61 84.11 196.28 81.55 189.63 81.55 190.02 84.11"/><polygon class="cls-11" points="189.05 77.64 195.76 77.64 195.41 74.98 188.65 74.98 189.05 77.64"/><polygon class="cls-11" points="198.08 137.77 203.65 137.77 203.41 135.94 197.81 135.94 198.08 137.77"/><path class="cls-1" d="M-271.66,170.38c0-.43.57-.78,1.3-.78h95.82c.73,0,1.22.35,1.1.78a1.63,1.63,0,0,1-1.55.78h-95.32C-271,171.16-271.64,170.81-271.66,170.38Z" transform="translate(503.84 -42.95)"/><path class="cls-1" d="M-173.58,166.25h-53c-.74,0-1.3-.36-1.25-.81s.69-.8,1.43-.8h53.34c.74,0,1.24.36,1.11.8S-172.84,166.25-173.58,166.25Z" transform="translate(503.84 -42.95)"/><path class="cls-11" d="M-239.22,166.25h-16.51c-.74,0-1.33-.36-1.32-.81s.61-.8,1.36-.8h16.59c.74,0,1.31.36,1.28.8S-238.48,166.25-239.22,166.25Z" transform="translate(503.84 -42.95)"/><path class="cls-1" d="M-204.78,161.17h-74.84c-.75,0-1.38-.37-1.41-.83s.56-.83,1.32-.83h75.24c.75,0,1.29.37,1.21.83S-204,161.17-204.78,161.17Z" transform="translate(503.84 -42.95)"/><path class="cls-11" d="M-295.27,159.51h5.34c.75,0,1.4.37,1.44.83s-.54.83-1.29.83h-5.31c-.75,0-1.4-.37-1.45-.83S-296,159.51-295.27,159.51Z" transform="translate(503.84 -42.95)"/><path class="cls-1" d="M-193.95,155.07c-.1.47-.8.85-1.57.85H-266c-.77,0-1.39-.38-1.4-.85s.6-.87,1.37-.87h70.91C-194.39,154.2-193.85,154.59-193.95,155.07Z" transform="translate(503.84 -42.95)"/><path class="cls-1" d="M-295.83,154.2h20c.77,0,1.41.39,1.43.87s-.59.85-1.35.85h-19.91c-.76,0-1.43-.38-1.48-.85S-296.6,154.2-295.83,154.2Z" transform="translate(503.84 -42.95)"/><path class="cls-1" d="M-296.42,148.72h76.93c.78,0,1.36.4,1.3.89s-.75.89-1.53.89h-76.51c-.77,0-1.45-.4-1.5-.89S-297.2,148.72-296.42,148.72Z" transform="translate(503.84 -42.95)"/><path class="cls-1" d="M-246.47,144.88c-.79,0-1.41-.41-1.39-.92s.68-.92,1.48-.92h40.59c.8,0,1.37.42,1.28.92s-.8.92-1.59.92Z" transform="translate(503.84 -42.95)"/><path class="cls-1" d="M-297,143h35.13c.8,0,1.44.42,1.44.92s-.65.92-1.44.92h-34.94c-.79,0-1.47-.41-1.53-.92S-297.82,143-297,143Z" transform="translate(503.84 -42.95)"/><path class="cls-1" d="M-165.78,139.07h-96.7c-.8,0-1.46-.43-1.46-.95s.65-1,1.46-1h97.25c.81,0,1.34.43,1.19,1A1.83,1.83,0,0,1-165.78,139.07Z" transform="translate(503.84 -42.95)"/><path class="cls-1" d="M-164,133.05h-85.09c-.82,0-1.47-.44-1.45-1s.7-1,1.52-1h85.59c.82,0,1.36.44,1.2,1A1.84,1.84,0,0,1-164,133.05Z" transform="translate(503.84 -42.95)"/><path class="cls-11" d="M-162.26,126.8h-17.81c-.84,0-1.41-.45-1.28-1a1.77,1.77,0,0,1,1.76-1h17.92c.84,0,1.39.46,1.22,1A1.87,1.87,0,0,1-162.26,126.8Z" transform="translate(503.84 -42.95)"/><path class="cls-1" d="M-192.54,126.8H-258c-.84,0-1.51-.45-1.51-1s.69-1,1.53-1h65.82c.84,0,1.42.46,1.31,1A1.71,1.71,0,0,1-192.54,126.8Z" transform="translate(503.84 -42.95)"/><path class="cls-1" d="M-293.68,174.41h60.42c.72,0,1.27.34,1.23.76s-.65.75-1.37.75h-60.12c-.71,0-1.33-.34-1.38-.75S-294.4,174.41-293.68,174.41Z" transform="translate(503.84 -42.95)"/><path class="cls-1" d="M-293.18,179.07h92.83c.71,0,1.22.33,1.13.73s-.73.73-1.43.73H-293c-.71,0-1.32-.32-1.36-.73S-293.89,179.07-293.18,179.07Z" transform="translate(503.84 -42.95)"/><path class="cls-1" d="M-195.79,120.33H-243c-.85,0-1.51-.48-1.49-1.06s.75-1.07,1.6-1.07h47.55c.85,0,1.46.48,1.34,1.07A1.72,1.72,0,0,1-195.79,120.33Z" transform="translate(503.84 -42.95)"/><path class="cls-11" d="M-256.45,120.33h-43c-.84,0-1.59-.48-1.65-1.06s.57-1.07,1.43-1.07h43.25c.85,0,1.54.48,1.52,1.07S-255.61,120.33-256.45,120.33Z" transform="translate(503.84 -42.95)"/><path class="cls-11" d="M-219.85,174.41c.72,0,1.26.34,1.2.76s-.69.75-1.41.75h-4.67c-.72,0-1.26-.34-1.21-.75s.68-.76,1.4-.76Z" transform="translate(503.84 -42.95)"/><path class="cls-11" d="M-277.16,170.38c0,.43-.55.78-1.28.78h-6.36c-.73,0-1.35-.35-1.38-.78s.53-.78,1.26-.78h6.39C-277.8,169.6-277.19,170-277.16,170.38Z" transform="translate(503.84 -42.95)"/><path class="cls-11" d="M-200.41,149.61c-.09.49-.8.89-1.57.89h-7.44c-.78,0-1.35-.4-1.27-.89s.77-.89,1.56-.89h7.48C-200.87,148.72-200.32,149.12-200.41,149.61Z" transform="translate(503.84 -42.95)"/><path class="cls-11" d="M-177.2,154.2c.77,0,1.29.39,1.16.87a1.67,1.67,0,0,1-1.62.85h-5.92c-.77,0-1.3-.38-1.18-.85s.83-.87,1.6-.87Z" transform="translate(503.84 -42.95)"/><path class="cls-11" d="M-274.19,139.07c-.81,0-1.48-.43-1.5-.95s.62-1,1.43-1h6.31c.81,0,1.47.43,1.48,1s-.64.95-1.44.95Z" transform="translate(503.84 -42.95)"/><path class="cls-1" d="M-360.13,108.28a2.13,2.13,0,0,1-2.1,3,4.44,4.44,0,0,1-3.94-3,2.13,2.13,0,0,1,2.08-3A4.42,4.42,0,0,1-360.13,108.28Z" transform="translate(503.84 -42.95)"/><path class="cls-1" d="M-352,108.33a2.2,2.2,0,0,1-2.2,3,4.26,4.26,0,0,1-3.84-3,2.21,2.21,0,0,1,2.18-3A4.24,4.24,0,0,1-352,108.33Z" transform="translate(503.84 -42.95)"/><path class="cls-1" d="M-343.76,108.28a2.27,2.27,0,0,1-2.29,3,4.09,4.09,0,0,1-3.75-3,2.28,2.28,0,0,1,2.28-3A4.07,4.07,0,0,1-343.76,108.28Z" transform="translate(503.84 -42.95)"/><polygon class="cls-21" points="81.52 54.43 108.47 126.46 140.98 54.43 81.52 54.43"/><polygon class="cls-21" points="126.99 146.92 180.91 54.43 237.37 54.43 158 146.92 126.99 146.92"/><polygon class="cls-21" points="261.7 53.98 177.64 146.92 190.59 146.92 277.66 54.43 261.7 53.98"/><polygon class="cls-21" points="278.3 146.92 370.68 54.43 383.72 54.43 288.47 146.92 278.3 146.92"/><path class="cls-17" d="M-350.8,230h-21.1a5,5,0,0,0-5,5v10.26a5,5,0,0,0,5,5h5.52l4.18,9.47,5.89-9.47h5.51a5,5,0,0,0,5-5V235A5,5,0,0,0-350.8,230Z" transform="translate(503.84 -42.95)"/><path d="M-364.28,235.88a1,1,0,0,1,1-1,1,1,0,0,1,1,.93,1,1,0,0,1-1,1A1,1,0,0,1-364.28,235.88Zm.22,2.09h1.61v6.86h-1.61Z" transform="translate(503.84 -42.95)"/><path d="M-358.58,237.61V238h1.89v1.29h-1.84v5.52h-1.6v-5.52h-1.13V238h1.13v-.43a2.22,2.22,0,0,1,2.45-2.38,2.63,2.63,0,0,1,1.45.37l-.45,1.21a1.54,1.54,0,0,0-.88-.28C-358.23,236.51-358.58,236.88-358.58,237.61Z" transform="translate(503.84 -42.95)"/><path class="cls-17" d="M-286.58,231.44h-21.1a5,5,0,0,0-5,5v10.27a5,5,0,0,0,5,5h5.51l4.18,9.47,5.89-9.47h5.52a5,5,0,0,0,5-5V236.4A5,5,0,0,0-286.58,231.44Z" transform="translate(503.84 -42.95)"/><path d="M-303.25,243.35h-5.38a2.07,2.07,0,0,0,2.22,1.65,2.49,2.49,0,0,0,1.87-.75l.86,1a3.49,3.49,0,0,1-2.76,1.12,3.48,3.48,0,0,1-3.79-3.52,3.41,3.41,0,0,1,3.54-3.51,3.34,3.34,0,0,1,3.47,3.55A4,4,0,0,1-303.25,243.35Zm-5.39-1.06h3.89a1.87,1.87,0,0,0-1.94-1.67A1.89,1.89,0,0,0-308.64,242.29Z" transform="translate(503.84 -42.95)"/><path d="M-301.68,236.74h1.6v9.53h-1.6Z" transform="translate(503.84 -42.95)"/><path d="M-298.76,245.59l.62-1.22a4.59,4.59,0,0,0,2.39.68c1,0,1.44-.28,1.44-.76,0-1.31-4.24-.08-4.24-2.81,0-1.3,1.17-2.15,3-2.15a5.51,5.51,0,0,1,2.57.59l-.62,1.22a3.78,3.78,0,0,0-2-.51c-1,0-1.44.32-1.44.77,0,1.39,4.24.15,4.24,2.84,0,1.29-1.19,2.12-3.11,2.12A5.44,5.44,0,0,1-298.76,245.59Z" transform="translate(503.84 -42.95)"/><path d="M-284.93,243.35h-5.39A2.07,2.07,0,0,0-288.1,245a2.47,2.47,0,0,0,1.87-.75l.86,1a3.49,3.49,0,0,1-2.76,1.12,3.48,3.48,0,0,1-3.79-3.52,3.41,3.41,0,0,1,3.54-3.51,3.34,3.34,0,0,1,3.47,3.55C-284.91,243-284.92,243.2-284.93,243.35Zm-5.4-1.06h3.89a1.86,1.86,0,0,0-1.94-1.67A1.89,1.89,0,0,0-290.33,242.29Z" transform="translate(503.84 -42.95)"/><path class="cls-17" d="M-224.32,230.84h-21.1a5,5,0,0,0-5,4.95v10.27a5,5,0,0,0,5,5h5.51l4.18,9.47,5.89-9.47h5.52a5,5,0,0,0,5-5V235.79A5,5,0,0,0-224.32,230.84Z" transform="translate(503.84 -42.95)"/><path d="M-240.58,238.44v.41h1.89v1.29h-1.84v5.52h-1.61v-5.52h-1.13v-1.29h1.13v-.43a2.22,2.22,0,0,1,2.46-2.38,2.54,2.54,0,0,1,1.45.37l-.45,1.21a1.54,1.54,0,0,0-.89-.28C-240.23,237.34-240.58,237.71-240.58,238.44Z" transform="translate(503.84 -42.95)"/><path d="M-238.28,242.23a3.46,3.46,0,0,1,3.64-3.51,3.46,3.46,0,0,1,3.67,3.51,3.46,3.46,0,0,1-3.67,3.52A3.46,3.46,0,0,1-238.28,242.23Zm5.69,0a2,2,0,0,0-2-2.14,2,2,0,0,0-2,2.14,2,2,0,0,0,2,2.15A2,2,0,0,0-232.59,242.23Z" transform="translate(503.84 -42.95)"/><path d="M-225.47,238.72v1.53a2.6,2.6,0,0,0-.37,0,1.87,1.87,0,0,0-2,2.12v3.33h-1.61V238.8h1.53v1A2.7,2.7,0,0,1-225.47,238.72Z" transform="translate(503.84 -42.95)"/><path class="cls-17" d="M-163,230h-21.1a5,5,0,0,0-5,5v10.26a5,5,0,0,0,5,5h5.51l4.18,9.47,5.89-9.47H-163a5,5,0,0,0,5-5V235A5,5,0,0,0-163,230Z" transform="translate(503.84 -42.95)"/><path d="M-176.25,237.63h5.92v1.29h-5.92Zm0,3.11h5.92V242h-5.92Z" transform="translate(503.84 -42.95)"/><path class="cls-17" d="M-318.64,218.13h-21.1a5,5,0,0,0-5,5v10.26a5,5,0,0,0,5,5h5.51l4.18,9.47,5.89-9.47h5.52a5,5,0,0,0,5-5V223.09A5,5,0,0,0-318.64,218.13Z" transform="translate(503.84 -42.95)"/><path d="M-334.15,222.39h3.07v1.29h-1.47v9.45h1.47v1.29h-3.07Z" transform="translate(503.84 -42.95)"/><path d="M-327.11,234.42v-1.29h1.46v-9.45h-1.46v-1.29H-324v12Z" transform="translate(503.84 -42.95)"/><path class="cls-17" d="M-255.92,217.08H-277a5,5,0,0,0-5,5V232.3a5,5,0,0,0,5,5h5.52l4.17,9.47,5.89-9.47h5.52a5,5,0,0,0,5-5V222A5,5,0,0,0-255.92,217.08Z" transform="translate(503.84 -42.95)"/><path d="M-270.76,227.32c.51.16.75.51.75,1.31v2.44a.86.86,0,0,0,1,1h.26v1.29h-.64a1.91,1.91,0,0,1-2.18-2.1v-2.64c0-.43-.22-.62-.58-.62h-.42v-1.31h.42c.36,0,.58-.19.58-.62V223.4a1.91,1.91,0,0,1,2.18-2.1h.64v1.29H-269a.86.86,0,0,0-1,1V226C-270,226.8-270.25,227.15-270.76,227.32Z" transform="translate(503.84 -42.95)"/><path d="M-261,226.66V228h-.43c-.35,0-.57.19-.57.62v2.64a1.92,1.92,0,0,1-2.2,2.1h-.64V232h.27a.87.87,0,0,0,1-1v-2.44c0-.8.23-1.15.74-1.31-.51-.17-.74-.52-.74-1.32v-2.44a.87.87,0,0,0-1-1h-.27V221.3h.64a1.92,1.92,0,0,1,2.2,2.1V226c0,.43.22.62.57.62Z" transform="translate(503.84 -42.95)"/><path class="cls-17" d="M-193.87,215H-215a5,5,0,0,0-5,5v10.26a5,5,0,0,0,5,5h5.51l4.18,9.47,5.89-9.47h5.51a5,5,0,0,0,5-5V220A5,5,0,0,0-193.87,215Z" transform="translate(503.84 -42.95)"/><path d="M-205.25,222.6a1,1,0,0,1,1.05-1.07,1,1,0,0,1,1,1.07,1,1,0,0,1-1,1.06A1,1,0,0,1-205.25,222.6Zm2.1,4.89a2.91,2.91,0,0,1-.29,1.11l-.66,1.81h-1l.52-2a1,1,0,0,1-.61-.95,1,1,0,0,1,1-1.07A1,1,0,0,1-203.15,227.49Z" transform="translate(503.84 -42.95)"/><path class="cls-17" d="M-276.35,394.44h21.1a5,5,0,0,0,5-5V379.22a5,5,0,0,0-5-5h-5.51l-1.61-9.47-8.46,9.47h-5.52a5,5,0,0,0-4.95,5v10.26A5,5,0,0,0-276.35,394.44Z" transform="translate(503.84 -42.95)"/><path d="M-268.93,382.24l-4.43,1.66,4.43,1.65v1.34l-5.92-2.3V383.2l5.92-2.3Z" transform="translate(503.84 -42.95)"/><path d="M-264.26,377.57h1.44l-4.24,12.11h-1.44Z" transform="translate(503.84 -42.95)"/><path d="M-256.59,383.2v1.39l-5.92,2.3v-1.34l4.43-1.65-4.43-1.66V380.9Z" transform="translate(503.84 -42.95)"/><path class="cls-17" d="M-410.46,319.69h21.09a5,5,0,0,0,5-4.95V304.47a5,5,0,0,0-5-5h-5.51l1.2-9.47-11.27,9.47h-5.51a5,5,0,0,0-5,5v10.27A5,5,0,0,0-410.46,319.69Z" transform="translate(503.84 -42.95)"/><path d="M-404.21,313.19a1,1,0,0,1,1-1,1,1,0,0,1,1,1,1,1,0,0,1-1,1A1,1,0,0,1-404.21,313.19Zm.09-8.09h1.9l-.32,6h-1.27Z" transform="translate(503.84 -42.95)"/><path d="M-400.56,307.4h5.92v1.29h-5.92Zm0,3.11h5.92v1.29h-5.92Z" transform="translate(503.84 -42.95)"/><path class="cls-1" d="M-72.67,308.06a71.82,71.82,0,0,1-1,11.86c-2.9,17.31-12,29.93-22.76,29.93a13.61,13.61,0,0,1-2.86-.3c-11.75-2.49-20.87-20.11-20.87-41.49,0-23.08,10.63-31.25,23.73-31.25S-72.67,285-72.67,308.06Z" transform="translate(503.84 -42.95)"/><g class="cls-22"><path class="cls-7" d="M-81.27,308.32c.88,12.38-1.25,24.82-4.81,36.71,8.94-7.34,13-18.88,16.77-29.83,2.69-7.95,5.43-16.15,4.94-24.53s-5-17.11-12.84-20a17.13,17.13,0,0,0-12.13.19c-6.59,2.65-3,4.79-.21,9.53A64.73,64.73,0,0,1-81.27,308.32Z" transform="translate(503.84 -42.95)"/><path class="cls-11" d="M-81.27,308.32c.88,12.38-1.25,24.82-4.81,36.71,8.94-7.34,13-18.88,16.77-29.83,2.69-7.95,5.43-16.15,4.94-24.53s-5-17.11-12.84-20a17.13,17.13,0,0,0-12.13.19c-6.59,2.65-3,4.79-.21,9.53A64.73,64.73,0,0,1-81.27,308.32Z" transform="translate(503.84 -42.95)"/></g><path class="cls-14" d="M-72.67,308.06a71.82,71.82,0,0,1-1,11.86c-2.9,17.31-12,29.93-22.76,29.93a13.61,13.61,0,0,1-2.86-.3c-11.75-2.49-20.87-20.11-20.87-41.49,0-23.08,10.63-31.25,23.73-31.25S-72.67,285-72.67,308.06Z" transform="translate(503.84 -42.95)"/><path class="cls-2" d="M-83.65,329.29a41,41,0,0,1-7.79,14.6" transform="translate(503.84 -42.95)"/><path class="cls-14" d="M-82.9,326.39c-.13.56-.26,1.12-.41,1.68" transform="translate(503.84 -42.95)"/><path class="cls-2" d="M-83,308a41,41,0,0,1,.47,16.29" transform="translate(503.84 -42.95)"/><path class="cls-14" d="M-120.13,308.06s27-10.66,47.46,0" transform="translate(503.84 -42.95)"/><path class="cls-2" d="M-96.4,276.81s2.7,10,3,26.27" transform="translate(503.84 -42.95)"/><path class="cls-20" d="M-92.64,289c.35,3.11-.19,5.76-1.2,5.91s-2.11-2.23-2.46-5.33.2-5.76,1.21-5.92S-93,285.87-92.64,289Z" transform="translate(503.84 -42.95)"/><path class="cls-14" d="M-107,357.85h-31.62a7.75,7.75,0,0,1-7.69-6.71,5.33,5.33,0,0,1-.09-1.07V275.48a5.63,5.63,0,0,1,.09-1.08,7.74,7.74,0,0,1,7.69-6.7h89.72a7.66,7.66,0,0,1,3.73,1" transform="translate(503.84 -42.95)"/></svg>